SplineFontDB: 3.0
FontName: Rosario-Bold
FullName: Rosario Bold
FamilyName: Rosario
Weight: Bold
Copyright: Rosario is the name of the city of its type designer, Hector Gatti. This is a new typeface of classic proportions, subtle contrast and soft endings. Carefully produced, elegant, ideal for magazines and academic journals. 
Version: 001.001
ItalicAngle: 0
UnderlinePosition: -50
UnderlineWidth: 50
Ascent: 800
Descent: 200
sfntRevision: 0x00010000
LayerCount: 2
Layer: 0 1 "Back"  1
Layer: 1 1 "Fore"  0
NeedsXUIDChange: 1
XUID: [1021 288 713564382 9789711]
FSType: 0
OS2Version: 2
OS2_WeightWidthSlopeOnly: 0
OS2_UseTypoMetrics: 1
CreationTime: 1323181525
ModificationTime: 1323210525
PfmFamily: 17
TTFWeight: 700
TTFWidth: 5
LineGap: 0
VLineGap: 0
Panose: 2 0 5 3 6 0 0 2 0 4
OS2TypoAscent: 177
OS2TypoAOffset: 1
OS2TypoDescent: -35
OS2TypoDOffset: 1
OS2TypoLinegap: 0
OS2WinAscent: 9
OS2WinAOffset: 1
OS2WinDescent: 5
OS2WinDOffset: 1
HheadAscent: 9
HheadAOffset: 1
HheadDescent: -5
HheadDOffset: 1
OS2SubXSize: 700
OS2SubYSize: 650
OS2SubXOff: 0
OS2SubYOff: 140
OS2SupXSize: 700
OS2SupYSize: 650
OS2SupXOff: 0
OS2SupYOff: 477
OS2StrikeYSize: 50
OS2StrikeYPos: 250
OS2CodePages: 00000001.00000000
OS2UnicodeRanges: 00000001.00000000.00000000.00000000
Lookup: 258 0 0 "'kern' Horizontal Kerning in Latin lookup 0"  {"'kern' Horizontal Kerning in Latin lookup 0 subtable"  } ['kern' ('DFLT' <'dflt' > 'latn' <'dflt' > ) ]
MarkAttachClasses: 1
DEI: 91125
TtTable: prep
PUSHW_1
 511
SCANCTRL
PUSHB_1
 4
SCANTYPE
EndTTInstrs

StartChar: exclam
Encoding: 33 33 4
Width: 250
Flags: HMW
HStem: -12 148<105 145.5> 705 20G<89 160 160 170.5>
VStem: 51 133 80 104 80 120
LayerCount: 2
Fore
SplineSet
73 9.5 m 128,-1,1
 51 31 51 31 51 61.5 c 128,-1,2
 51 92 51 92 73 114 c 128,-1,3
 95 136 95 136 125.5 136 c 128,-1,4
 156 136 156 136 178 114.5 c 128,-1,5
 200 93 200 93 200 62 c 128,-1,6
 200 31 200 31 178 9.5 c 128,-1,7
 156 -12 156 -12 125.5 -12 c 128,-1,0
 95 -12 95 -12 73 9.5 c 128,-1,1
80 219 m 1,8,-1
 51 692 l 1,9,-1
 51 695 l 2,10,11
 51 725 51 725 89 725 c 2,12,-1
 160 725 l 2,13,14
 199 725 199 725 199 690 c 1,15,-1
 170 219 l 1,16,-1
 80 219 l 1,8,-1
EndSplineSet
EndChar

StartChar: quotedbl
Encoding: 34 34 5
Width: 331
Flags: HMW
HStem: 449 21G<82 103 82 82 228 250 228 228> 712 20G<45 139 139 139 192 286 286 286>
VStem: 45 94<559 732 559 732> 192 94<559 732 559 732>
LayerCount: 2
Fore
SplineSet
50 542 m 2,0,-1
 45 559 l 1,1,-1
 45 732 l 1,2,-1
 139 732 l 1,3,-1
 139 559 l 1,4,-1
 103 449 l 1,5,-1
 82 449 l 1,6,7
 58 516 58 516 50 542 c 2,0,-1
228 449 m 1,8,-1
 192 559 l 1,9,-1
 192 732 l 1,10,-1
 286 732 l 1,11,-1
 286 559 l 1,12,-1
 250 449 l 1,13,-1
 228 449 l 1,8,-1
EndSplineSet
EndChar

StartChar: numbersign
Encoding: 35 35 6
Width: 586
Flags: HMW
HStem: 0 21G<110 199 110 110 293 382 293 293> 208 89<32 138 32 150 32 227 239 321 422 528> 425 89<58 168 58 180 269 351 58 257 452 554> 712 20G<209 298 298 298 392 481 481 481>
LayerCount: 2
Fore
SplineSet
138 208 m 1,0,-1
 32 208 l 1,1,-1
 32 297 l 1,2,-1
 150 297 l 1,3,-1
 168 425 l 1,4,-1
 58 425 l 1,5,-1
 58 514 l 1,6,-1
 180 514 l 1,7,-1
 209 732 l 1,8,-1
 298 732 l 1,9,-1
 269 514 l 1,10,-1
 363 514 l 1,11,-1
 392 732 l 1,12,-1
 481 732 l 1,13,-1
 452 514 l 1,14,-1
 554 514 l 1,15,-1
 554 425 l 1,16,-1
 440 425 l 1,17,-1
 422 297 l 1,18,-1
 528 297 l 1,19,-1
 528 208 l 1,20,-1
 410 208 l 1,21,-1
 382 0 l 1,22,-1
 293 0 l 1,23,-1
 321 208 l 1,24,-1
 227 208 l 1,25,-1
 199 0 l 1,26,-1
 110 0 l 1,27,-1
 138 208 l 1,0,-1
257 425 m 1,28,-1
 239 297 l 1,29,-1
 333 297 l 1,30,-1
 351 425 l 1,31,-1
 257 425 l 1,28,-1
EndSplineSet
EndChar

StartChar: dollar
Encoding: 36 36 7
Width: 426
Flags: HMW
HStem: -125 196<165.5 206 165.5 208 135 206> 429 81<220 257.5> 429 195<230 257.5>
VStem: 42 130<330 395.5 330 404> 261 130<113 184.5>
LayerCount: 2
Fore
SplineSet
30 29 m 1,0,-1
 73 111 l 1,1,2
 143 71 143 71 180.5 71 c 0,3,4
 218 71 218 71 239.5 87.5 c 128,-1,5
 261 104 261 104 261 133 c 0,6,7
 261 162 261 162 238.5 179.5 c 128,-1,8
 216 197 216 197 184 208.5 c 128,-1,9
 152 220 152 220 119.5 234.5 c 128,-1,10
 87 249 87 249 64.5 279 c 128,-1,11
 42 309 42 309 42 354 c 0,12,13
 42 425 42 425 94 465.5 c 128,-1,14
 146 506 146 506 220 510 c 1,15,-1
 230 624 l 1,16,-1
 302 624 l 1,17,-1
 271 508 l 1,18,19
 338 500 338 500 381 479 c 1,20,-1
 339 395 l 1,21,22
 295 429 295 429 240 429 c 0,23,24
 212 429 212 429 192 416 c 128,-1,25
 172 403 172 403 172 377 c 0,26,27
 172 351 172 351 194.5 334.5 c 128,-1,28
 217 318 217 318 249.5 307 c 128,-1,29
 282 296 282 296 314 281 c 128,-1,30
 346 266 346 266 368.5 234 c 128,-1,31
 391 202 391 202 391 155 c 0,32,33
 391 84 391 84 340.5 38.5 c 128,-1,34
 290 -7 290 -7 218 -13 c 1,35,-1
 208 -125 l 1,36,-1
 135 -125 l 1,37,-1
 167 -12 l 1,38,39
 88 -5 88 -5 30 29 c 1,0,-1
EndSplineSet
EndChar

StartChar: percent
Encoding: 37 37 8
Width: 872
Flags: HMW
HStem: -12 21G<225 292 225 225> -4 79<632.5 693.5 632.5 724.5> 304 79<177.5 238.5 177.5 269> 326 79<632.5 693.5> 645 54<348 547 348 348> 645 68
VStem: 31 109<487 531.5 487 565.5> 276 109<487 531.5> 486 109<179 224 179 257.5> 731 109<179 224>
LayerCount: 2
Fore
SplineSet
31 509 m 128,-1,1
 31 599 31 599 75.5 656 c 128,-1,2
 120 713 120 713 208 713 c 0,3,4
 253 713 253 713 282 699 c 1,5,-1
 638 699 l 1,6,-1
 292 -12 l 1,7,-1
 225 -12 l 1,8,-1
 547 645 l 1,9,-1
 348 645 l 1,10,11
 385 590 385 590 385 504.5 c 128,-1,12
 385 419 385 419 340 361.5 c 128,-1,13
 295 304 295 304 207.5 304 c 128,-1,14
 120 304 120 304 75.5 361.5 c 128,-1,0
 31 419 31 419 31 509 c 128,-1,1
208 634 m 128,-1,16
 140 634 140 634 140 508.5 c 128,-1,17
 140 383 140 383 208 383 c 128,-1,18
 276 383 276 383 276 508.5 c 128,-1,15
 276 634 276 634 208 634 c 128,-1,16
486 201 m 128,-1,20
 486 291 486 291 530.5 348 c 128,-1,21
 575 405 575 405 663 405 c 128,-1,22
 751 405 751 405 795.5 348 c 128,-1,23
 840 291 840 291 840 201 c 128,-1,24
 840 111 840 111 795.5 53.5 c 128,-1,25
 751 -4 751 -4 663 -4 c 128,-1,26
 575 -4 575 -4 530.5 53.5 c 128,-1,19
 486 111 486 111 486 201 c 128,-1,20
663 326 m 128,-1,28
 595 326 595 326 595 200.5 c 128,-1,29
 595 75 595 75 663 75 c 128,-1,30
 731 75 731 75 731 200.5 c 128,-1,27
 731 326 731 326 663 326 c 128,-1,28
EndSplineSet
EndChar

StartChar: ampersand
Encoding: 38 38 9
Width: 739
Flags: HMW
HStem: -12 117 0 105<621 731 704 731 704 731> 610 80<312.5 349.5>
VStem: 83 117<172 228 172 230.5> 159 105<525.5 563 525.5 572> 390 106<523.5 564.5> 532 78<357.5 362 330 381>
LayerCount: 2
Fore
SplineSet
83 185 m 0,0,1
 83 303 83 303 213 388 c 1,2,3
 159 462 159 462 159 528.5 c 128,-1,4
 159 595 159 595 210.5 642.5 c 128,-1,5
 262 690 262 690 332.5 690 c 128,-1,6
 403 690 403 690 449.5 653.5 c 128,-1,7
 496 617 496 617 496 550 c 0,8,9
 496 500 496 500 464.5 461.5 c 128,-1,10
 433 423 433 423 380 386 c 1,11,12
 419 344 419 344 500 249 c 1,13,14
 532 318 532 318 532 381 c 1,15,-1
 610 362 l 1,16,17
 610 270 610 270 563 178 c 1,18,19
 608.773584906 124.597484277 608.773584906 124.597484277 628.886792453 114.798742138 c 128,-1,20
 649 105 649 105 704 105 c 2,21,-1
 731 105 l 1,22,-1
 731 0 l 1,23,-1
 657 0 l 2,24,25
 607 0 607 0 571.5 19 c 128,-1,26
 536 38 536 38 495 79 c 1,27,28
 409 -12 409 -12 297 -12 c 0,29,30
 206 -12 206 -12 144.5 41.5 c 128,-1,31
 83 95 83 95 83 185 c 0,0,1
274 315 m 1,32,33
 200 260 200 260 200 208.5 c 128,-1,34
 200 157 200 157 231.5 130 c 128,-1,35
 263 103 263 103 317.5 103 c 128,-1,36
 372 103 372 103 426 149 c 1,37,-1
 274 315 l 1,32,33
264 545 m 0,38,39
 264 504 264 504 316 452 c 1,40,41
 339 467 339 467 351 476.5 c 128,-1,42
 363 486 363 486 376.5 505.5 c 128,-1,43
 390 525 390 525 390 550 c 128,-1,44
 390 575 390 575 374 592.5 c 128,-1,45
 358 610 358 610 330.5 610 c 128,-1,46
 303 610 303 610 283.5 591 c 128,-1,47
 264 572 264 572 264 545 c 0,38,39
EndSplineSet
EndChar

StartChar: quotesingle
Encoding: 39 39 10
Width: 184
Flags: HMW
HStem: 449 21G<82 103 82 82> 712 20G<45 139 139 139>
VStem: 45 94<559 732 559 732>
LayerCount: 2
Fore
SplineSet
50 542 m 2,0,-1
 45 559 l 1,1,-1
 45 732 l 1,2,-1
 139 732 l 1,3,-1
 139 559 l 1,4,-1
 103 449 l 1,5,-1
 82 449 l 1,6,7
 58 516 58 516 50 542 c 2,0,-1
EndSplineSet
EndChar

StartChar: parenleft
Encoding: 40 40 11
Width: 322
Flags: HMW
HStem: -146 21G<223 223> 723 20G<223 223>
VStem: 32 120<213 383.5>
LayerCount: 2
Fore
SplineSet
223 -146 m 1,0,1
 32 64 32 64 32 297 c 128,-1,2
 32 530 32 530 223 743 c 1,3,-1
 318 727 l 1,4,5
 232 625 232 625 192 524.5 c 128,-1,6
 152 424 152 424 152 297.5 c 128,-1,7
 152 171 152 171 192 72 c 128,-1,8
 232 -27 232 -27 318 -130 c 1,9,-1
 223 -146 l 1,0,1
EndSplineSet
EndChar

StartChar: parenright
Encoding: 41 41 12
Width: 322
Flags: HMW
HStem: -146 21G<99 99> 723 20G<99 99>
VStem: 170 120<213 383.5 213 384>
LayerCount: 2
Fore
SplineSet
99 -146 m 1,0,-1
 4 -130 l 1,1,2
 90 -27 90 -27 130 72 c 128,-1,3
 170 171 170 171 170 297.5 c 0,4,5
 170 424 170 424 130 524.5 c 128,-1,6
 90 625 90 625 4 727 c 1,7,-1
 99 743 l 1,8,9
 290 530 290 530 290 297 c 0,10,11
 290 64 290 64 99 -146 c 1,0,-1
EndSplineSet
EndChar

StartChar: asterisk
Encoding: 42 42 13
Width: 467
Flags: HMW
HStem: 353 21G<304 304> 721 20G<175 286 286 286>
LayerCount: 2
Fore
SplineSet
187 531 m 1,0,-1
 34 552 l 1,1,-1
 64 659 l 1,2,-1
 204 585 l 1,3,-1
 175 741 l 1,4,-1
 286 741 l 1,5,-1
 261 585 l 1,6,-1
 395 663 l 1,7,-1
 436 555 l 1,8,-1
 278 528 l 1,9,-1
 393 422 l 1,10,-1
 304 353 l 1,11,-1
 233 494 l 1,12,-1
 162 356 l 1,13,-1
 76 420 l 1,14,-1
 187 531 l 1,0,-1
EndSplineSet
EndChar

StartChar: plus
Encoding: 43 43 14
Width: 558
Flags: HMW
HStem: 0 21G<235 323 235 235> 205 88<323 528 323 528> 477 20G<235 323 323 323>
VStem: 235 88<0 204 204 204 293 497>
LayerCount: 2
Fore
SplineSet
235 204 m 1,0,-1
 30 204 l 1,1,-1
 30 292 l 1,2,-1
 235 292 l 1,3,-1
 235 497 l 1,4,-1
 323 497 l 1,5,-1
 323 293 l 1,6,-1
 528 293 l 1,7,-1
 528 205 l 1,8,-1
 323 205 l 1,9,-1
 323 0 l 1,10,-1
 235 0 l 1,11,-1
 235 204 l 1,0,-1
EndSplineSet
EndChar

StartChar: comma
Encoding: 44 44 15
Width: 231
Flags: HMW
HStem: -134 21G<81 81> 119 20G<89.5 135>
VStem: 40 150<55 70 8.5 88.5> 88 102<-30.5 70>
LayerCount: 2
Fore
SplineSet
64 13 m 1,0,1
 40 37 40 37 40 67.5 c 128,-1,2
 40 98 40 98 60 118.5 c 128,-1,3
 80 139 80 139 113 139 c 128,-1,4
 146 139 146 139 168 111.5 c 128,-1,5
 190 84 190 84 190 46 c 0,6,7
 190 -55 190 -55 81 -134 c 1,8,9
 61 -114 61 -114 42 -93 c 1,10,11
 88 -47 88 -47 88 -20 c 0,12,13
 88 -12 88 -12 80 -4 c 2,14,-1
 64 13 l 1,0,1
EndSplineSet
EndChar

StartChar: hyphen
Encoding: 45 45 16
Width: 337
Flags: HMW
HStem: 210 95<58 279 58 279>
VStem: 58 221<210 305 210 305>
LayerCount: 2
Fore
SplineSet
279 210 m 1,0,-1
 58 210 l 1,1,-1
 58 305 l 1,2,-1
 279 305 l 1,3,-1
 279 210 l 1,0,-1
EndSplineSet
EndChar

StartChar: period
Encoding: 46 46 17
Width: 232
Flags: HMW
HStem: -12 155<94.5 137.5>
VStem: 39 154<43.5 86.5>
LayerCount: 2
Fore
SplineSet
39 65 m 128,-1,1
 39 97 39 97 61.5 120 c 128,-1,2
 84 143 84 143 116 143 c 128,-1,3
 148 143 148 143 170.5 120 c 128,-1,4
 193 97 193 97 193 65 c 128,-1,5
 193 33 193 33 170.5 10.5 c 128,-1,6
 148 -12 148 -12 116 -12 c 128,-1,7
 84 -12 84 -12 61.5 10.5 c 128,-1,0
 39 33 39 33 39 65 c 128,-1,1
EndSplineSet
EndChar

StartChar: slash
Encoding: 47 47 18
Width: 426
Flags: HMW
HStem: 0 21G<32 125 32 32> 712 20G<301 395 395 395>
LayerCount: 2
Fore
SplineSet
125 0 m 1,0,-1
 32 0 l 1,1,-1
 301 732 l 1,2,-1
 395 732 l 1,3,-1
 125 0 l 1,0,-1
EndSplineSet
EndChar

StartChar: zero
Encoding: 48 48 19
Width: 590
Flags: HMW
HStem: -12 81<239.5 350.5 239.5 377> 429 81<242.5 348.5>
VStem: 35 131<203.5 292.5 203.5 333> 423 132<203.5 292.5>
LayerCount: 2
Fore
SplineSet
103.5 57 m 128,-1,1
 35 126 35 126 35 250.5 c 128,-1,2
 35 375 35 375 102 442.5 c 128,-1,3
 169 510 169 510 294.5 510 c 128,-1,4
 420 510 420 510 487.5 442 c 128,-1,5
 555 374 555 374 555 250 c 128,-1,6
 555 126 555 126 486.5 57 c 128,-1,7
 418 -12 418 -12 295 -12 c 128,-1,0
 172 -12 172 -12 103.5 57 c 128,-1,1
166 249 m 0,8,9
 166 148.074074074 166 148.074074074 201.5 106 c 0,10,11
 232.71875 69 232.71875 69 295 69 c 0,12,13
 374.290909091 69 374.290909091 69 401 125.5 c 0,14,15
 423 172.038461538 423 172.038461538 423 249 c 0,16,17
 423 429 423 429 294.5 429 c 128,-1,18
 166 429 166 429 166 249 c 0,8,9
EndSplineSet
EndChar

StartChar: one
Encoding: 49 49 20
Width: 406
Flags: HMW
HStem: 0 99<50 159 280 384 50 159> 478 20G<202 280 280 280>
VStem: 159 121<99 378 378 378>
LayerCount: 2
Fore
SplineSet
50 349 m 1,0,-1
 29 413 l 1,1,-1
 202 498 l 1,2,-1
 280 498 l 1,3,-1
 280 99 l 1,4,-1
 384 99 l 1,5,-1
 384 0 l 1,6,-1
 50 0 l 1,7,-1
 50 99 l 1,8,-1
 159 99 l 1,9,-1
 159 378 l 1,10,-1
 50 349 l 1,0,-1
EndSplineSet
EndChar

StartChar: two
Encoding: 50 50 21
Width: 490
Flags: HMW
HStem: 0 99<205 445> 421 91<212 238.5>
VStem: 282 144<351.5 382.5>
LayerCount: 2
Fore
SplineSet
445 0 m 1,0,-1
 32 0 l 1,1,-1
 32 54 l 1,2,3
 71 95 71 95 144.5 179 c 128,-1,4
 218 263 218 263 249 297 c 1,5,6
 282 330 282 330 282 360.5 c 128,-1,7
 282 391 282 391 265 406 c 128,-1,8
 248 421 248 421 222 421 c 0,9,10
 162 421 162 421 96 355 c 1,11,-1
 36 419 l 1,12,13
 137 512 137 512 256 512 c 0,14,15
 325 512 325 512 375.5 476.5 c 128,-1,16
 426 441 426 441 426 377 c 128,-1,17
 426 313 426 313 371 256 c 1,18,19
 338.567823344 220.747634069 338.567823344 220.747634069 278.283911672 165.873817035 c 128,-1,20
 218 111 218 111 205 99 c 1,21,-1
 466 99 l 1,22,-1
 445 0 l 1,0,-1
EndSplineSet
EndChar

StartChar: three
Encoding: 51 51 22
Width: 500
Flags: HMW
HStem: -198 70<11 25 11 40> 148 77<249.5 361> 428 83<275.5 285.5>
VStem: 310 139<365.5 398> 333 140<-5.5 98.5>
LayerCount: 2
Fore
SplineSet
25 -198 m 1,0,-1
 11 -128 l 1,1,2
 119.048067861 -125.96135721 119.048067861 -125.96135721 218 -86 c 0,3,4
 270 -65 270 -65 301.5 -23.5 c 128,-1,5
 333 18 333 18 333 74 c 0,6,7
 333 148 333 148 261 148 c 0,8,9
 228 148 228 148 191 134 c 1,10,-1
 156 206 l 1,11,12
 213 232 213 232 261.5 282.5 c 128,-1,13
 310 333 310 333 310 386 c 0,14,15
 310 428 310 428 273 428 c 0,16,17
 225 428 225 428 174 379 c 1,18,-1
 118 435 l 1,19,20
 148 471 148 471 202 491 c 128,-1,21
 256 511 256 511 311 511 c 128,-1,22
 366 511 366 511 407.5 485.5 c 128,-1,23
 449 460 449 460 449 406 c 128,-1,24
 449 352 449 352 398 303 c 128,-1,25
 347 254 347 254 286 223 c 1,26,27
 308 225 308 225 317 225 c 0,28,29
 387 225 387 225 430 190.5 c 128,-1,30
 473 156 473 156 473 92 c 128,-1,31
 473 28 473 28 444.5 -22 c 128,-1,32
 416 -72 416 -72 370.5 -104 c 128,-1,33
 325 -136 325 -136 266.5 -157.5 c 0,34,35
 156.302325581 -198 156.302325581 -198 40 -198 c 2,36,-1
 25 -198 l 1,0,-1
EndSplineSet
EndChar

StartChar: four
Encoding: 52 52 23
Width: 545
Flags: HMW
HStem: -184 21G<305 430 305 305> -1 100<156 305 156 305 430 509> 478 20G<299 430 430 430>
VStem: 305 125<-184 -1 -184 -1 99 329 329 329>
LayerCount: 2
Fore
SplineSet
305 -1 m 1,0,-1
 13 -1 l 1,1,-1
 13 57 l 1,2,-1
 299 498 l 1,3,-1
 430 498 l 1,4,-1
 430 99 l 1,5,-1
 537 99 l 1,6,-1
 509 -1 l 1,7,-1
 430 -1 l 1,8,-1
 430 -184 l 1,9,-1
 305 -184 l 1,10,-1
 305 -1 l 1,0,-1
305 329 m 1,11,-1
 156 99 l 1,12,-1
 305 99 l 1,13,-1
 305 329 l 1,11,-1
EndSplineSet
EndChar

StartChar: five
Encoding: 53 53 24
Width: 441
Flags: HMW
HStem: -207 21G<33 33> 377 121<213 401 213 213>
VStem: 235 132<14.5 121.5>
LayerCount: 2
Fore
SplineSet
33 -207 m 1,0,-1
 11 -145 l 1,1,2
 99.435125448 -118.263799283 99.435125448 -118.263799283 162 -69.5 c 0,3,4
 235 -12.6029411765 235 -12.6029411765 235 77 c 0,5,6
 235 137 235 137 179.5 190.5 c 128,-1,7
 124 244 124 244 57 273 c 1,8,-1
 159 498 l 1,9,-1
 436 498 l 1,10,-1
 401 377 l 1,11,-1
 213 377 l 1,12,-1
 191 327 l 1,13,14
 367 229 367 229 367 82 c 0,15,16
 367 1 367 1 314 -64 c 0,17,18
 215.801689546 -184.43189018 215.801689546 -184.43189018 33 -207 c 1,0,-1
EndSplineSet
EndChar

StartChar: six
Encoding: 54 54 25
Width: 553
Flags: HMW
HStem: -12 83<240.5 319 240.5 346.5> 335 86<285.5 319.5> 710 20G<479 479>
VStem: 34 135<197.5 240.5 197.5 343> 387 135<174 238.5>
LayerCount: 2
Fore
SplineSet
34 244 m 0,0,1
 34 383 34 383 118.5 491.5 c 128,-1,2
 203 600 203 600 338 672 c 0,3,4
 415 714 415 714 479 730 c 1,5,-1
 507 665 l 1,6,7
 410 630 410 630 323.5 553 c 128,-1,8
 237 476 237 476 193 384 c 1,9,10
 251 421 251 421 309 421 c 0,11,12
 402 421 402 421 462 363 c 128,-1,13
 522 305 522 305 522 210.5 c 0,14,15
 522 116 522 116 451 52 c 128,-1,16
 380 -12 380 -12 276 -12 c 0,17,18
 172 -12 172 -12 103 59.5 c 128,-1,19
 34 131 34 131 34 244 c 0,0,1
169 232 m 0,20,21
 169 171 169 171 197 121 c 128,-1,22
 225 71 225 71 279.5 71 c 0,23,24
 334 71 334 71 360.5 111.5 c 128,-1,25
 387 152 387 152 387 206 c 128,-1,26
 387 260 387 260 360.5 297.5 c 128,-1,27
 334 335 334 335 277.5 335 c 0,28,29
 221 335 221 335 173 282 c 1,30,31
 169 263 169 263 169 232 c 0,20,21
EndSplineSet
EndChar

StartChar: seven
Encoding: 55 55 26
Width: 464
Flags: HMW
HStem: -189 21G<36 172 36 36> 386 111<50 306 18 457>
LayerCount: 2
Fore
SplineSet
306 386 m 1,0,-1
 18 386 l 1,1,-1
 50 497 l 1,2,-1
 457 497 l 1,3,-1
 457 434 l 1,4,-1
 172 -189 l 1,5,-1
 36 -189 l 1,6,-1
 306 386 l 1,0,-1
EndSplineSet
EndChar

StartChar: eight
Encoding: 56 56 27
Width: 510
Flags: HMW
HStem: -12 81<215.5 276 215.5 308> 653 79<241 290.5>
VStem: 37 111<143 205 143 222> 59 135<542 589 542 619> 338 111 338 135<142.5 199>
LayerCount: 2
Fore
SplineSet
78.5 289 m 0,0,1
 96 309 96 309 103.5 316.5 c 128,-1,2
 111 324 111 324 137 346 c 128,-1,3
 163 368 163 368 170 374 c 1,4,-1
 158 385 l 2,5,6
 121 418 121 418 104 437 c 128,-1,7
 87 456 87 456 73 489.5 c 128,-1,8
 59 523 59 523 59 565 c 0,9,10
 59 642 59 642 119.5 687 c 128,-1,11
 180 732 180 732 260.5 732 c 128,-1,12
 341 732 341 732 395 688.5 c 128,-1,13
 449 645 449 645 449 565 c 0,14,15
 449 504.285714286 449 504.285714286 415 463 c 0,16,17
 387.4 429.485714286 387.4 429.485714286 339 388 c 1,18,-1
 355 373 l 2,19,20
 386 344 386 344 401 328.5 c 128,-1,21
 416 313 416 313 436 286.5 c 0,22,23
 473 237.475 473 237.475 473 170 c 0,24,25
 473 82 473 82 408 35 c 128,-1,26
 343 -12 343 -12 253.5 -12 c 128,-1,27
 164 -12 164 -12 100.5 36.5 c 128,-1,28
 37 85 37 85 37 163.285714286 c 128,-1,29
 37 241.571428571 37 241.571428571 78.5 289 c 0,0,1
174.5 98 m 128,-1,31
 201 69 201 69 245.5 69 c 128,-1,32
 290 69 290 69 314 97.5 c 128,-1,33
 338 126 338 126 338 171 c 0,34,35
 338 209.307692308 338 209.307692308 303 247 c 0,36,37
 281.952380952 269.666666667 281.952380952 269.666666667 263.476190476 285.833333333 c 128,-1,38
 245 302 245 302 241 306 c 1,39,40
 237 302 237 302 220 288 c 128,-1,41
 203 274 203 274 197 269 c 128,-1,42
 191 264 191 264 179 250.5 c 128,-1,43
 167 237 167 237 162 227.5 c 0,44,45
 148 200.9 148 200.9 148 163.95 c 128,-1,30
 148 127 148 127 174.5 98 c 128,-1,31
207.5 519.763157895 m 128,-1,47
 221 502 221 502 227 495 c 128,-1,48
 233 488 233 488 248 474 c 128,-1,49
 263 460 263 460 267 456 c 1,50,-1
 271 460 l 1,51,52
 303 485 303 485 320 508 c 128,-1,53
 337 531 337 531 337 566 c 128,-1,54
 337 601 337 601 319 627 c 128,-1,55
 301 653 301 653 266 653 c 128,-1,56
 231 653 231 653 212.5 628 c 128,-1,57
 194 603 194 603 194 570.263157895 c 128,-1,46
 194 537.526315789 194 537.526315789 207.5 519.763157895 c 128,-1,47
EndSplineSet
EndChar

StartChar: nine
Encoding: 57 57 28
Width: 537
Flags: HMW
HStem: -214 21G<63 63> 78 86<228.5 261.5> 428 83<227.5 307>
VStem: 26 134<260.5 325 260.5 352.5> 378 135<258.5 301.5>
LayerCount: 2
Fore
SplineSet
85.5 136 m 128,-1,1
 26 194 26 194 26 288.5 c 128,-1,2
 26 383 26 383 96.5 447 c 128,-1,3
 167 511 167 511 271 511 c 128,-1,4
 375 511 375 511 444 439 c 128,-1,5
 513 367 513 367 513 255 c 0,6,7
 513 167 513 167 474 87 c 128,-1,8
 435 7 435 7 370 -51.5 c 0,9,10
 234.928057554 -173.064748201 234.928057554 -173.064748201 63 -214 c 1,11,-1
 36 -149 l 1,12,13
 136 -116 136 -116 223 -45.5 c 128,-1,14
 310 25 310 25 354 115 c 1,15,16
 296 78 296 78 238 78 c 0,17,0
 145 78 145 78 85.5 136 c 128,-1,1
186.5 387.5 m 128,-1,19
 160 347 160 347 160 293.5 c 128,-1,20
 160 240 160 240 187 202 c 128,-1,21
 214 164 214 164 270.5 164 c 128,-1,22
 327 164 327 164 375 217 c 1,23,24
 378 242 378 242 378 267 c 0,25,26
 378 329 378 329 350 378.5 c 128,-1,27
 322 428 322 428 267.5 428 c 128,-1,18
 213 428 213 428 186.5 387.5 c 128,-1,19
EndSplineSet
EndChar

StartChar: colon
Encoding: 58 58 29
Width: 260
Flags: HMW
HStem: -12 155<109 151.5 108.5 152.5> 276 155<109.5 152 108.5 152.5>
VStem: 53 155<43.5 86.5 43.5 87 332.5 375.5>
LayerCount: 2
Fore
SplineSet
75.5 10.5 m 128,-1,1
 53 33 53 33 53 65.5 c 128,-1,2
 53 98 53 98 75.5 120.5 c 128,-1,3
 98 143 98 143 130 143 c 128,-1,4
 162 143 162 143 185 120 c 128,-1,5
 208 97 208 97 208 65 c 128,-1,6
 208 33 208 33 185.5 10.5 c 128,-1,7
 163 -12 163 -12 130.5 -12 c 128,-1,0
 98 -12 98 -12 75.5 10.5 c 128,-1,1
53 354 m 128,-1,9
 53 386 53 386 75.5 408.5 c 128,-1,10
 98 431 98 431 130.5 431 c 128,-1,11
 163 431 163 431 185.5 408.5 c 128,-1,12
 208 386 208 386 208 353.5 c 128,-1,13
 208 321 208 321 185.5 298.5 c 128,-1,14
 163 276 163 276 131 276 c 128,-1,15
 99 276 99 276 76 299 c 128,-1,8
 53 322 53 322 53 354 c 128,-1,9
EndSplineSet
EndChar

StartChar: semicolon
Encoding: 59 59 30
Width: 258
Flags: HMW
HStem: -134 21G<95 95> 139 137<106.5 149> 276 155<106.5 149.5>
VStem: 51 154<332.5 375.5> 102 103
LayerCount: 2
Fore
SplineSet
51 354 m 128,-1,1
 51 386 51 386 73.5 408.5 c 128,-1,2
 96 431 96 431 128 431 c 128,-1,3
 160 431 160 431 182.5 408.5 c 128,-1,4
 205 386 205 386 205 354 c 128,-1,5
 205 322 205 322 182.5 299 c 128,-1,6
 160 276 160 276 128 276 c 128,-1,7
 96 276 96 276 73.5 299 c 128,-1,0
 51 322 51 322 51 354 c 128,-1,1
78 13 m 1,8,9
 54 37 54 37 54 67.5 c 128,-1,10
 54 98 54 98 74 118.5 c 128,-1,11
 94 139 94 139 127 139 c 128,-1,12
 160 139 160 139 182 111.5 c 128,-1,13
 204 84 204 84 204 46 c 0,14,15
 204 -55 204 -55 95 -134 c 1,16,17
 75 -114 75 -114 56 -93 c 1,18,19
 102 -47 102 -47 102 -20 c 0,20,21
 102 -12 102 -12 94 -4 c 2,22,-1
 78 13 l 1,8,9
EndSplineSet
EndChar

StartChar: less
Encoding: 60 60 31
Width: 572
Flags: HMW
HStem: -12 21G<526 526> 489 20G<526 526>
LayerCount: 2
Fore
SplineSet
526 -12 m 1,0,-1
 28 223 l 1,1,-1
 28 275 l 1,2,-1
 526 509 l 1,3,-1
 526 419 l 1,4,-1
 158 249 l 1,5,-1
 526 76 l 1,6,-1
 526 -12 l 1,0,-1
EndSplineSet
EndChar

StartChar: equal
Encoding: 61 61 32
Width: 625
Flags: HMW
HStem: 109 88<64 562 64 562> 302 88<64 562 64 562>
LayerCount: 2
Fore
SplineSet
562 109 m 1,0,-1
 64 109 l 1,1,-1
 64 197 l 1,2,-1
 562 197 l 1,3,-1
 562 109 l 1,0,-1
562 302 m 1,4,-1
 64 302 l 1,5,-1
 64 390 l 1,6,-1
 562 390 l 1,7,-1
 562 302 l 1,4,-1
EndSplineSet
EndChar

StartChar: greater
Encoding: 62 62 33
Width: 572
Flags: HMW
HStem: -12 21G<46 46> 489 20G<46 46>
LayerCount: 2
Fore
SplineSet
544 223 m 1,0,-1
 46 -12 l 1,1,-1
 46 76 l 1,2,-1
 414 249 l 1,3,-1
 46 419 l 1,4,-1
 46 509 l 1,5,-1
 544 275 l 1,6,-1
 544 223 l 1,0,-1
EndSplineSet
EndChar

StartChar: question
Encoding: 63 63 34
Width: 443
Flags: HMW
HStem: -12 155<171.5 214.5> 625 97<163.5 205>
VStem: 116 154<43.5 86.5> 140 107<217 336 217 422 217 422> 283 129<501 565.5>
LayerCount: 2
Fore
SplineSet
75 590 m 1,0,-1
 29 678 l 1,1,2
 97 722 97 722 188.5 722 c 0,3,4
 280 722 280 722 346 675 c 128,-1,5
 412 628 412 628 412 551 c 0,6,7
 412 474 412 474 371.5 431 c 128,-1,8
 331 388 331 388 260 357 c 0,9,10
 247 351 247 351 247 336 c 2,11,-1
 247 217 l 1,12,-1
 140 217 l 1,13,-1
 140 422 l 1,14,15
 193 426 193 426 238 457 c 128,-1,16
 283 488 283 488 283 533 c 0,17,18
 283 578 283 578 252 601.5 c 128,-1,19
 221 625 221 625 174 625 c 0,20,21
 127 625 127 625 75 590 c 1,0,-1
116 65 m 128,-1,23
 116 97 116 97 138.5 120 c 128,-1,24
 161 143 161 143 193 143 c 128,-1,25
 225 143 225 143 247.5 120 c 128,-1,26
 270 97 270 97 270 65 c 128,-1,27
 270 33 270 33 247.5 10.5 c 128,-1,28
 225 -12 225 -12 193 -12 c 128,-1,29
 161 -12 161 -12 138.5 10.5 c 128,-1,22
 116 33 116 33 116 65 c 128,-1,23
EndSplineSet
EndChar

StartChar: at
Encoding: 64 64 35
Width: 813
Flags: HMW
HStem: -135 54<287 376 287 379.5> 50 57 378 62<397 445.5> 568 54<342.5 522.5>
VStem: 40 64<114.5 283 114.5 296> 236 91<182.5 232.5 182.5 254> 718 64<261 393>
LayerCount: 2
Fore
SplineSet
40 192 m 0,0,1
 40 271 40 271 69 347 c 128,-1,2
 98 423 98 423 149 484.5 c 128,-1,3
 200 546 200 546 278.5 584 c 128,-1,4
 357 622 357 622 449 622 c 0,5,6
 590 622 590 622 686 538 c 128,-1,7
 782 454 782 454 782 311 c 0,8,9
 782 211 782 211 727.5 131 c 128,-1,10
 673 51 673 51 591 51 c 128,-1,11
 509 51 509 51 478 107 c 1,12,13
 458 80 458 80 425.5 65 c 128,-1,14
 393 50 393 50 364 50 c 0,15,16
 301 50 301 50 268.5 95 c 128,-1,17
 236 140 236 140 236 214 c 128,-1,18
 236 288 236 288 293 364 c 128,-1,19
 350 440 350 440 441 440 c 0,20,21
 495 440 495 440 527 403 c 1,22,-1
 544 433 l 1,23,-1
 591 433 l 1,24,25
 573 317 573 317 563 259 c 128,-1,26
 553 201 553 201 553 162 c 0,27,28
 553 107 553 107 590 107 c 0,29,30
 646 107 646 107 682 169.5 c 128,-1,31
 718 232 718 232 718 311 c 0,32,33
 718 430 718 430 641 499 c 128,-1,34
 564 568 564 568 449 568 c 0,35,36
 372 568 372 568 305.5 535 c 128,-1,37
 239 502 239 502 196 448 c 128,-1,38
 153 394 153 394 128.5 327.5 c 128,-1,39
 104 261 104 261 104 192 c 0,40,41
 104 75 104 75 177 -3 c 128,-1,42
 250 -81 250 -81 362 -81 c 0,43,44
 404 -81 404 -81 446 -69 c 1,45,-1
 461 -122 l 1,46,47
 416 -135 416 -135 362 -135 c 0,48,49
 222 -135 222 -135 131 -41.5 c 128,-1,50
 40 52 40 52 40 192 c 0,0,1
327 206 m 0,51,52
 327 113 327 113 381 113 c 0,53,54
 434.666666667 113 434.666666667 113 461.5 193.5 c 0,55,56
 480.592592593 250.777777778 480.592592593 250.777777778 496 349 c 1,57,58
 465 378 465 378 432.5 378 c 128,-1,59
 400 378 400 378 374 345 c 0,60,61
 327 285.346153846 327 285.346153846 327 206 c 0,51,52
EndSplineSet
EndChar

StartChar: A
Encoding: 65 65 36
Width: 629
Flags: HMW
HStem: 0 21G<1 117 1 1 480 480 480 628> 210 98<226 375 226 408 192 375> 712 20G<260 369 369 369>
LayerCount: 2
Fore
SplineSet
117 0 m 1,0,-1
 1 0 l 1,1,-1
 260 732 l 1,2,-1
 369 732 l 1,3,-1
 628 0 l 1,4,-1
 480 0 l 1,5,-1
 408 210 l 1,6,-1
 192 210 l 1,7,-1
 117 0 l 1,0,-1
226 308 m 1,8,-1
 375 308 l 1,9,10
 324 466 324 466 299 558 c 1,11,12
 258 411 258 411 226 308 c 1,8,-1
EndSplineSet
EndChar

StartChar: B
Encoding: 66 66 37
Width: 611
Flags: HMW
HStem: 0 99<204 313 313 322> 347 99<204 307 204 282> 633 99<204 204 204 304>
VStem: 66 138<99 347 99 446 446 633> 406 145<518.5 574> 440 111 440 145<181 255.5 128 264>
LayerCount: 2
Fore
SplineSet
66 671 m 1,0,-1
 52 732 l 1,1,-1
 312 732 l 2,2,3
 408 732 408 732 474 699 c 0,4,5
 510 681 510 681 530.5 645.5 c 128,-1,6
 551 610 551 610 551 554 c 128,-1,7
 551 498 551 498 508 452.5 c 128,-1,8
 465 407 465 407 402 399 c 1,9,10
 479 386 479 386 532 332.5 c 128,-1,11
 585 279 585 279 585 205.5 c 128,-1,12
 585 132 585 132 545 84.5 c 0,13,14
 473.842105263 2.84217094304e-14 473.842105263 2.84217094304e-14 322 0 c 2,15,-1
 66 0 l 1,16,-1
 66 671 l 1,0,-1
204 347 m 1,17,-1
 204 99 l 1,18,-1
 313 99 l 2,19,20
 370 99 370 99 405 131 c 128,-1,21
 440 163 440 163 440 222.5 c 128,-1,22
 440 282 440 282 394 314.5 c 128,-1,23
 348 347 348 347 282 347 c 2,24,-1
 204 347 l 1,17,-1
204 633 m 1,25,-1
 204 446 l 1,26,-1
 307 446 l 2,27,28
 350 446 350 446 378 472.5 c 128,-1,29
 406 499 406 499 406 543.5 c 128,-1,30
 406 588 406 588 378.5 610.5 c 128,-1,31
 351 633 351 633 304 633 c 2,32,-1
 204 633 l 1,25,-1
EndSplineSet
EndChar

StartChar: C
Encoding: 67 67 38
Width: 635
Flags: HMW
HStem: -12 94<316.5 425.5 316.5 430.5> 649 97<310 416>
VStem: 32 149<313 441.5 313 477>
LayerCount: 2
Fore
SplineSet
122.5 94 m 128,-1,1
 32 200 32 200 32 367 c 128,-1,2
 32 534 32 534 127 640 c 128,-1,3
 222 746 222 746 383 746 c 0,4,5
 445 746 445 746 513 728 c 128,-1,6
 581 710 581 710 620 675 c 1,7,-1
 548 583 l 1,8,9
 521 614 521 614 476.5 631.5 c 128,-1,10
 432 649 432 649 388 649 c 0,11,12
 314 649 314 649 265.5 607 c 128,-1,13
 217 565 217 565 199 506 c 128,-1,14
 181 447 181 447 181 386.5 c 128,-1,15
 181 326 181 326 193.5 276.5 c 128,-1,16
 206 227 206 227 230 182.5 c 128,-1,17
 254 138 254 138 296 110 c 128,-1,18
 338 82 338 82 390 82 c 0,19,20
 483 82 483 82 561 157 c 1,21,-1
 624 62 l 1,22,23
 562 23 562 23 507.5 5.5 c 128,-1,24
 453 -12 453 -12 382 -12 c 0,25,0
 213 -12 213 -12 122.5 94 c 128,-1,1
EndSplineSet
EndChar

StartChar: D
Encoding: 68 68 39
Width: 711
Flags: HMW
HStem: 0 99<203 319 319 325> 633 99<203 203 203 317>
VStem: 65 138<99 633 99 671 99 671> 530 148<315.5 428.5>
LayerCount: 2
Fore
SplineSet
49 732 m 1,0,-1
 326 732 l 2,1,2
 492 732 492 732 585 632 c 128,-1,3
 678 532 678 532 678 364.5 c 128,-1,4
 678 197 678 197 579 98.5 c 128,-1,5
 480 0 480 0 325 0 c 2,6,-1
 65 0 l 1,7,-1
 65 671 l 1,8,9
 53 723 53 723 49 732 c 1,0,-1
203 633 m 1,10,-1
 203 99 l 1,11,-1
 319 99 l 2,12,13
 374 99 374 99 416 120.5 c 128,-1,14
 458 142 458 142 482 179.5 c 0,15,16
 530 254.5 530 254.5 530 361 c 0,17,18
 530 517.868686869 530 517.868686869 440.5 592 c 0,19,20
 391 633 391 633 317 633 c 2,21,-1
 203 633 l 1,10,-1
EndSplineSet
EndChar

StartChar: E
Encoding: 69 69 40
Width: 539
Flags: HMW
HStem: 0 99<202 510 202 510> 327 99<202 438 202 438> 633 99<202 510 202 202>
VStem: 65 137<99 327 426 633>
LayerCount: 2
Fore
SplineSet
65 671 m 1,0,-1
 50 732 l 1,1,-1
 510 732 l 1,2,-1
 510 633 l 1,3,-1
 202 633 l 1,4,-1
 202 426 l 1,5,-1
 438 426 l 1,6,-1
 438 327 l 1,7,-1
 202 327 l 1,8,-1
 202 99 l 1,9,-1
 510 99 l 1,10,-1
 510 0 l 1,11,-1
 65 0 l 1,12,-1
 65 671 l 1,0,-1
EndSplineSet
EndChar

StartChar: F
Encoding: 70 70 41
Width: 491
Flags: HMW
HStem: 0 21G<65 204 65 65> 327 99<204 417 204 417> 633 99<204 480 204 204>
VStem: 65 139<0 327 426 633>
LayerCount: 2
Fore
SplineSet
65 671 m 1,0,-1
 51 732 l 1,1,-1
 480 732 l 1,2,-1
 480 633 l 1,3,-1
 204 633 l 1,4,-1
 204 426 l 1,5,-1
 417 426 l 1,6,-1
 417 327 l 1,7,-1
 204 327 l 1,8,-1
 204 0 l 1,9,-1
 65 0 l 1,10,-1
 65 671 l 1,0,-1
EndSplineSet
EndChar

StartChar: G
Encoding: 71 71 42
Width: 719
Flags: HMW
HStem: -11 96<305.5 402> -1 21G<608 679 608 608> 302 88<398 537 385 676> 650 94<315 437 281.5 440>
VStem: 32 145<306.5 440.5 306.5 473.5> 537 137<171.5 302 171.5 302>
LayerCount: 2
Fore
SplineSet
116 93.5 m 128,-1,1
 32 198 32 198 32 366 c 128,-1,2
 32 534 32 534 129 639 c 128,-1,3
 226 744 226 744 398 744 c 0,4,5
 465 744 465 744 539 724 c 128,-1,6
 613 704 613 704 655 665 c 1,7,-1
 582 583 l 1,8,9
 531 622 531 622 494.5 636 c 128,-1,10
 458 650 458 650 388.5 650 c 128,-1,11
 319 650 319 650 267.5 608.5 c 128,-1,12
 216 567 216 567 196.5 506.5 c 128,-1,13
 177 446 177 446 177 382.5 c 128,-1,14
 177 319 177 319 188.5 271.5 c 128,-1,15
 200 224 200 224 222.5 181 c 128,-1,16
 245 138 245 138 286 111.5 c 128,-1,17
 327 85 327 85 379 85 c 0,18,19
 451 85 451 85 494 127 c 128,-1,20
 537 169 537 169 537 240 c 2,21,-1
 537 302 l 1,22,-1
 385 302 l 1,23,-1
 398 390 l 1,24,-1
 676 390 l 1,25,26
 674 268 674 268 674 176.5 c 128,-1,27
 674 85 674 85 679 -1 c 1,28,-1
 608 -1 l 1,29,-1
 574 75 l 1,30,31
 524 29 524 29 474 9 c 128,-1,32
 424 -11 424 -11 356 -11 c 0,33,0
 200 -11 200 -11 116 93.5 c 128,-1,1
EndSplineSet
EndChar

StartChar: H
Encoding: 72 72 43
Width: 713
Flags: HMW
HStem: 0 21G<65 203 65 65 510 648 510 510> 327 99<203 510 203 510> 712 20G<51 203 203 203 510 648 648 648>
VStem: 65 138<0 327 426 671 671 672.5> 510 138<0 327 327 327 426 732 0 732>
LayerCount: 2
Fore
SplineSet
65 671 m 1,0,-1
 51 732 l 1,1,-1
 203 732 l 1,2,-1
 203 426 l 1,3,-1
 510 426 l 1,4,-1
 510 732 l 1,5,-1
 648 732 l 1,6,-1
 648 0 l 1,7,-1
 510 0 l 1,8,-1
 510 327 l 1,9,-1
 203 327 l 1,10,-1
 203 0 l 1,11,-1
 65 0 l 1,12,-1
 65 671 l 1,0,-1
EndSplineSet
EndChar

StartChar: I
Encoding: 73 73 44
Width: 268
Flags: HMW
HStem: 0 21G<65 203 65 65> 712 20G<51 203 203 203>
VStem: 65 138<0 671 671 672.5>
LayerCount: 2
Fore
SplineSet
65 671 m 1,0,-1
 51 732 l 1,1,-1
 203 732 l 1,2,-1
 203 0 l 1,3,-1
 65 0 l 1,4,-1
 65 671 l 1,0,-1
EndSplineSet
EndChar

StartChar: J
Encoding: 74 74 45
Width: 268
Flags: HMW
HStem: -209 21G<-20 -20> 712 20G<51 203 203 203>
VStem: 65 138<47 98 98 671 671 672.5>
LayerCount: 2
Fore
SplineSet
65 671 m 1,0,-1
 51 732 l 1,1,-1
 203 732 l 1,2,-1
 203 98 l 2,3,4
 203 -13.7037037037 203 -13.7037037037 185.5 -66.8518518519 c 128,-1,5
 168 -120 168 -120 144 -146 c 0,6,7
 89.3891213389 -205.161785216 89.3891213389 -205.161785216 -20 -209 c 1,8,-1
 -40 -131 l 1,9,10
 29.0438596491 -122.877192982 29.0438596491 -122.877192982 49 -67 c 0,11,12
 65 -22.2 65 -22.2 65 47 c 2,13,-1
 65 671 l 1,0,-1
EndSplineSet
EndChar

StartChar: K
Encoding: 75 75 46
Width: 582
Flags: HMW
HStem: 0 21G<65 203 65 65 436 596 436 436> 712 20G<51 203 203 203 447 575 575 575>
VStem: 65 138<0 371 405 671 671 672.5>
LayerCount: 2
Fore
SplineSet
65 671 m 1,0,-1
 51 732 l 1,1,-1
 203 732 l 1,2,-1
 203 405 l 1,3,-1
 447 732 l 1,4,-1
 575 732 l 1,5,-1
 337 412 l 1,6,-1
 596 0 l 1,7,-1
 436 0 l 1,8,-1
 203 371 l 1,9,-1
 203 0 l 1,10,-1
 65 0 l 1,11,-1
 65 671 l 1,0,-1
EndSplineSet
EndChar

StartChar: L
Encoding: 76 76 47
Width: 497
Flags: HMW
HStem: 0 99<205 492 205 492> 712 20G<53 205 205 205>
VStem: 66 139<99 671 671 672.5>
LayerCount: 2
Fore
SplineSet
66 671 m 1,0,-1
 53 732 l 1,1,-1
 205 732 l 1,2,-1
 205 99 l 1,3,-1
 492 99 l 1,4,-1
 492 0 l 1,5,-1
 66 0 l 1,6,-1
 66 671 l 1,0,-1
EndSplineSet
EndChar

StartChar: M
Encoding: 77 77 48
Width: 847
Flags: HMW
HStem: 0 21G<376 450 376 376> 1 21G<64 173 64 64 648 783 648 648> 712 20G<50 242 242 242 607 783 783 783>
VStem: 64 109<1 497 1 671> 648 135<1 497 497 509>
LayerCount: 2
Fore
SplineSet
64 671 m 1,0,-1
 50 732 l 1,1,-1
 242 732 l 1,2,-1
 398 312 l 2,3,4
 409 282 409 282 427 191 c 1,5,6
 430 204 430 204 437.5 245 c 128,-1,7
 445 286 445 286 454 308 c 2,8,-1
 607 732 l 1,9,-1
 783 732 l 1,10,-1
 783 1 l 1,11,-1
 648 1 l 1,12,-1
 648 497 l 2,13,14
 648 531 648 531 653 569 c 1,15,-1
 629 497 l 1,16,-1
 450 0 l 1,17,-1
 376 0 l 1,18,-1
 192 497 l 1,19,-1
 168 569 l 1,20,-1
 173 497 l 1,21,-1
 173 1 l 1,22,-1
 64 1 l 1,23,-1
 64 671 l 1,0,-1
EndSplineSet
EndChar

StartChar: N
Encoding: 78 78 49
Width: 714
Flags: HMW
HStem: -5 21G<541 649 541 541> 0 21G<65 176 65 65> 711 20G<51 215 215 215 538 649 649 649>
VStem: 65 111<0 497 0 670> 538 111<304 731 -5 731>
LayerCount: 2
Fore
SplineSet
65 670 m 1,0,-1
 51 731 l 1,1,-1
 215 731 l 1,2,-1
 503 293 l 2,3,4
 531 250 531 250 544 227 c 1,5,6
 538 277 538 277 538 304 c 2,7,-1
 538 731 l 1,8,-1
 649 731 l 1,9,-1
 649 -5 l 1,10,-1
 541 -5 l 1,11,-1
 212 497 l 2,12,13
 181 545 181 545 170 564 c 1,14,15
 176 518 176 518 176 497 c 2,16,-1
 176 0 l 1,17,-1
 65 0 l 1,18,-1
 65 670 l 1,0,-1
EndSplineSet
EndChar

StartChar: O
Encoding: 79 79 50
Width: 763
Flags: HMW
HStem: -11 95<303.5 459 303.5 488.5> 648 95<302.5 458.5>
VStem: 32 147<305.5 435.5 305.5 474> 583 148<295.5 426.5>
LayerCount: 2
Fore
SplineSet
32 367 m 128,-1,1
 32 533 32 533 124 638 c 128,-1,2
 216 743 216 743 381 743 c 128,-1,3
 546 743 546 743 638.5 638.5 c 128,-1,4
 731 534 731 534 731 367 c 128,-1,5
 731 200 731 200 635.5 94.5 c 128,-1,6
 540 -11 540 -11 377.5 -11 c 128,-1,7
 215 -11 215 -11 123.5 95 c 128,-1,0
 32 201 32 201 32 367 c 128,-1,1
189 469.5 m 128,-1,9
 179 423 179 423 179 370.5 c 128,-1,10
 179 318 179 318 189 270.5 c 128,-1,11
 199 223 199 223 221 179.5 c 128,-1,12
 243 136 243 136 284.5 110 c 128,-1,13
 326 84 326 84 381.5 84 c 128,-1,14
 437 84 437 84 478 108.5 c 128,-1,15
 519 133 519 133 541 174 c 128,-1,16
 563 215 563 215 573 261.5 c 128,-1,17
 583 308 583 308 583 361 c 128,-1,18
 583 414 583 414 573 461.5 c 128,-1,19
 563 509 563 509 541 552.5 c 128,-1,20
 519 596 519 596 477.5 622 c 128,-1,21
 436 648 436 648 380.5 648 c 128,-1,22
 325 648 325 648 284 623.5 c 128,-1,23
 243 599 243 599 221 557.5 c 128,-1,8
 199 516 199 516 189 469.5 c 128,-1,9
EndSplineSet
EndChar

StartChar: P
Encoding: 80 80 51
Width: 567
Flags: HMW
HStem: 0 21G<65 202 65 65> 294 97<203 284 202 287> 633 99<203 203 203 282 282 288>
VStem: 65 137<0 294 0 671> 402 146<477 549.5>
LayerCount: 2
Fore
SplineSet
50 732 m 1,0,-1
 282 732 l 2,1,2
 402 732 402 732 475 680.5 c 128,-1,3
 548 629 548 629 548 517 c 0,4,5
 548 405 548 405 471.5 349.5 c 128,-1,6
 395 294 395 294 284 294 c 2,7,-1
 202 294 l 1,8,-1
 202 0 l 1,9,-1
 65 0 l 1,10,-1
 65 671 l 2,11,12
 65 674 65 674 58.5 701 c 128,-1,13
 52 728 52 728 50 732 c 1,0,-1
203 633 m 1,14,-1
 203 391 l 1,15,-1
 287 391 l 2,16,17
 342 391 342 391 372 424.5 c 128,-1,18
 402 458 402 458 402 513.5 c 0,19,20
 402 569 402 569 373 601 c 128,-1,21
 344 633 344 633 288 633 c 2,22,-1
 203 633 l 1,14,-1
EndSplineSet
EndChar

StartChar: Q
Encoding: 81 81 52
Width: 762
Flags: HMW
HStem: -216 94<922 997> 648 96<308.5 455.5>
VStem: 32 148<294.5 432.5 294.5 462.5> 584 147<300 433>
LayerCount: 2
Fore
SplineSet
118 627.5 m 0,0,1
 160 681 160 681 228 712.5 c 128,-1,2
 296 744 296 744 382 744 c 128,-1,3
 468 744 468 744 536 712.5 c 128,-1,4
 604 681 604 681 646 627.5 c 0,5,6
 731 519.226190476 731 519.226190476 731 364 c 0,7,8
 731 259 731 259 687 168.5 c 128,-1,9
 643 78 643 78 549 27 c 1,10,-1
 561 21 l 1,11,12
 642 -18 642 -18 695 -42 c 128,-1,13
 748 -66 748 -66 838 -94 c 128,-1,14
 928 -122 928 -122 996 -122 c 128,-1,15
 1064 -122 1064 -122 1174 -87 c 1,16,-1
 1197 -163 l 1,17,18
 1072.24405741 -204.585314196 1072.24405741 -204.585314196 1035.11055979 -210.292657098 c 128,-1,19
 997.977062169 -216 997.977062169 -216 951.488531084 -216 c 128,-1,20
 905 -216 905 -216 854 -205 c 128,-1,21
 803 -194 803 -194 742 -171 c 128,-1,22
 681 -148 681 -148 640 -131 c 128,-1,23
 599 -114 599 -114 530.5 -82.5 c 128,-1,24
 462 -51 462 -51 438.5 -40 c 128,-1,25
 415 -29 415 -29 314 -8 c 0,26,27
 169 22 169 22 100.5 122.5 c 128,-1,28
 32 223 32 223 32 370.476190476 c 128,-1,29
 32 517.952380952 32 517.952380952 118 627.5 c 0,0,1
199 499 m 128,-1,31
 180 437 180 437 180 363.5 c 128,-1,32
 180 290 180 290 199 229.5 c 128,-1,33
 218 169 218 169 265 127 c 128,-1,34
 312 85 312 85 382 85 c 128,-1,35
 452 85 452 85 499 127 c 128,-1,36
 546 169 546 169 565 229.5 c 128,-1,37
 584 290 584 290 584 364 c 128,-1,38
 584 438 584 438 565 499.5 c 128,-1,39
 546 561 546 561 499 604.5 c 128,-1,40
 452 648 452 648 382 648 c 128,-1,41
 312 648 312 648 265 604.5 c 128,-1,30
 218 561 218 561 199 499 c 128,-1,31
EndSplineSet
EndChar

StartChar: R
Encoding: 82 82 53
Width: 605
Flags: HMW
HStem: 0 21G<65 202 65 65 460 616 460 460> 632 100<202 202 202 288>
VStem: 65 137<0 326 0 424 424 632> 403 145<490.5 566.5>
LayerCount: 2
Fore
SplineSet
50 732 m 1,0,-1
 301 732 l 2,1,2
 412 732 412 732 480 685 c 128,-1,3
 548 638 548 638 548 532 c 0,4,5
 548 470 548 470 501 416 c 128,-1,6
 454 362 454 362 392 347 c 1,7,-1
 616 0 l 1,8,-1
 460 0 l 1,9,-1
 257 326 l 1,10,-1
 202 326 l 1,11,-1
 202 0 l 1,12,-1
 65 0 l 1,13,-1
 65 671 l 2,14,15
 65 674 65 674 58.5 701 c 128,-1,16
 52 728 52 728 50 732 c 1,0,-1
202 632 m 1,17,-1
 202 424 l 1,18,-1
 266 424 l 2,19,20
 403 424 403 424 403 533 c 0,21,22
 403 581 403 581 370 606.5 c 128,-1,23
 337 632 337 632 288 632 c 2,24,-1
 202 632 l 1,17,-1
EndSplineSet
EndChar

StartChar: S
Encoding: 83 83 54
Width: 537
Flags: HMW
HStem: -12 96<211.5 271.5 208 321> 648 96<265 314.5>
VStem: 42 146<489 592.5 489 606> 364 146<155 268>
LayerCount: 2
Fore
SplineSet
18 46 m 1,0,-1
 65 157 l 1,1,2
 145 84 145 84 240 84 c 0,3,4
 291 84 291 84 327.5 112 c 128,-1,5
 364 140 364 140 364 183 c 0,6,7
 364 226 364 226 340 254 c 128,-1,8
 316 282 316 282 280.5 298 c 128,-1,9
 245 314 245 314 203 335.5 c 128,-1,10
 161 357 161 357 125.5 379 c 128,-1,11
 90 401 90 401 66 441.5 c 128,-1,12
 42 482 42 482 42 535 c 0,13,14
 42 638 42 638 113.5 691 c 128,-1,15
 185 744 185 744 304 744 c 0,16,17
 348 744 348 744 407 726 c 128,-1,18
 466 708 466 708 498 684 c 1,19,-1
 429 598 l 1,20,21
 373 648 373 648 291 648 c 0,22,23
 249 648 249 648 218.5 626 c 128,-1,24
 188 604 188 604 188 566.5 c 0,25,26
 188 529 188 529 212 502.5 c 128,-1,27
 236 476 236 476 271.5 460 c 128,-1,28
 307 444 307 444 349 422 c 128,-1,29
 391 400 391 400 426.5 377.5 c 128,-1,30
 462 355 462 355 486 313 c 128,-1,31
 510 271 510 271 510 215 c 0,32,33
 510 109 510 109 435.5 48.5 c 128,-1,34
 361 -12 361 -12 253 -12 c 0,35,36
 115 -12 115 -12 18 46 c 1,0,-1
EndSplineSet
EndChar

StartChar: T
Encoding: 84 84 55
Width: 568
Flags: HMW
HStem: 0 21G<211 354 211 211> 633 99<8 211 8 560 354 354 354 560>
VStem: 211 143<0 633 0 633>
LayerCount: 2
Fore
SplineSet
211 633 m 1,0,-1
 8 633 l 1,1,-1
 8 732 l 1,2,-1
 560 732 l 1,3,-1
 560 633 l 1,4,-1
 354 633 l 1,5,-1
 354 0 l 1,6,-1
 211 0 l 1,7,-1
 211 633 l 1,0,-1
EndSplineSet
EndChar

StartChar: U
Encoding: 85 85 56
Width: 694
Flags: HMW
HStem: -11 95<312.5 411 312.5 428.5> 712 20G<43 200 200 200 522 635 635 635>
VStem: 59 141<278 672 672 672> 522 113<245 278 278 732>
LayerCount: 2
Fore
SplineSet
59 672 m 1,0,-1
 43 732 l 1,1,-1
 200 732 l 1,2,-1
 200 245 l 2,3,4
 200 171 200 171 244 127.5 c 128,-1,5
 288 84 288 84 362 84 c 0,6,7
 436 84 436 84 479 127 c 128,-1,8
 522 170 522 170 522 245 c 2,9,-1
 522 732 l 1,10,-1
 635 732 l 1,11,-1
 635 278 l 2,12,13
 635 128 635 128 557 58.5 c 128,-1,14
 479 -11 479 -11 343 -11 c 0,15,16
 207 -11 207 -11 133 63.5 c 128,-1,17
 59 138 59 138 59 278 c 2,18,-1
 59 672 l 1,0,-1
EndSplineSet
EndChar

StartChar: V
Encoding: 86 86 57
Width: 605
Flags: HMW
HStem: -2 21G<253 253 253 351> 711 20G<1 147 147 147 493 604 604 604>
LayerCount: 2
Fore
SplineSet
253 -2 m 1,0,-1
 1 731 l 1,1,-1
 147 731 l 1,2,3
 161 689 161 689 212 541.5 c 128,-1,4
 263 394 263 394 284 330 c 0,5,6
 305 266 305 266 319 199 c 1,7,8
 333 268 333 268 358 336 c 1,9,-1
 493 731 l 1,10,-1
 604 731 l 1,11,-1
 351 -2 l 1,12,-1
 253 -2 l 1,0,-1
EndSplineSet
EndChar

StartChar: W
Encoding: 87 87 58
Width: 939
Flags: HMW
HStem: -2 21G<210 210 210 338 604 604 604 728> 712 20G<9 147 147 147 426 542 542 542 820 931 931 931>
LayerCount: 2
Fore
SplineSet
210 -2 m 1,0,-1
 9 732 l 1,1,-1
 147 732 l 1,2,3
 253 349 253 349 261 316.5 c 128,-1,4
 269 284 269 284 286 182 c 1,5,6
 297 257 297 257 321 346 c 2,7,-1
 426 732 l 1,8,-1
 542 732 l 1,9,10
 554 687 554 687 579.5 599 c 0,11,12
 626.857142857 435.571428571 626.857142857 435.571428571 648.428571429 349.785714286 c 128,-1,13
 670 264 670 264 680 182 c 1,14,15
 692 265 692 265 714 346 c 2,16,-1
 820 732 l 1,17,-1
 931 732 l 1,18,-1
 728 -2 l 1,19,-1
 604 -2 l 1,20,21
 511 331 511 331 493.5 403 c 128,-1,22
 476 475 476 475 471 526 c 1,23,24
 459 441 459 441 437 361 c 2,25,-1
 338 -2 l 1,26,-1
 210 -2 l 1,0,-1
EndSplineSet
EndChar

StartChar: X
Encoding: 88 88 59
Width: 588
Flags: HMW
HStem: 0 21G<-8 121 -8 -8 441 441 441 601> 712 20G<6 165 165 165 444 573 573 573>
LayerCount: 2
Fore
SplineSet
121 0 m 1,0,-1
 -8 0 l 1,1,-1
 221 371 l 1,2,-1
 6 732 l 1,3,-1
 165 732 l 1,4,-1
 302 503 l 1,5,-1
 444 732 l 1,6,-1
 573 732 l 1,7,-1
 366 394 l 1,8,-1
 601 0 l 1,9,-1
 441 0 l 1,10,-1
 286 266 l 1,11,-1
 121 0 l 1,0,-1
EndSplineSet
EndChar

StartChar: Y
Encoding: 89 89 60
Width: 563
Flags: HMW
HStem: 0 21G<215 348 215 215> 712 20G<1 149 149 149 445 565 565 565>
VStem: 215 133<0 333 0 333>
LayerCount: 2
Fore
SplineSet
215 333 m 1,0,-1
 1 732 l 1,1,-1
 149 732 l 1,2,-1
 295 460 l 1,3,-1
 445 732 l 1,4,-1
 565 732 l 1,5,-1
 348 333 l 1,6,-1
 348 0 l 1,7,-1
 215 0 l 1,8,-1
 215 333 l 1,0,-1
EndSplineSet
EndChar

StartChar: Z
Encoding: 90 90 61
Width: 578
Flags: HMW
HStem: 0 99<186 550> 634 98<41 368 41 544>
LayerCount: 2
Fore
SplineSet
550 0 m 1,0,-1
 17 0 l 1,1,-1
 17 82 l 1,2,-1
 368 634 l 1,3,-1
 41 634 l 1,4,-1
 41 732 l 1,5,-1
 544 732 l 1,6,-1
 544 659 l 1,7,-1
 186 99 l 1,8,-1
 562 99 l 1,9,-1
 550 0 l 1,0,-1
EndSplineSet
EndChar

StartChar: bracketleft
Encoding: 91 91 62
Width: 306
Flags: HMW
HStem: -132 59<184 283 184 283> 673 59<184 283 184 184>
VStem: 65 119<-73 673 -73 732 -73 732> 65 218<-132 -73 673 732>
LayerCount: 2
Fore
SplineSet
283 -132 m 1,0,-1
 65 -132 l 1,1,-1
 65 732 l 1,2,-1
 283 732 l 1,3,-1
 283 673 l 1,4,-1
 184 673 l 1,5,-1
 184 -73 l 1,6,-1
 283 -73 l 1,7,-1
 283 -132 l 1,0,-1
EndSplineSet
EndChar

StartChar: backslash
Encoding: 92 92 63
Width: 425
Flags: HMW
HStem: 0 21G<299 299 299 393> 712 20G<30 123 123 123>
LayerCount: 2
Fore
SplineSet
299 0 m 1,0,-1
 30 732 l 1,1,-1
 123 732 l 1,2,-1
 393 0 l 1,3,-1
 299 0 l 1,0,-1
EndSplineSet
EndChar

StartChar: bracketright
Encoding: 93 93 64
Width: 306
Flags: HMW
HStem: -132 59<23 122 23 122 23 241> 673 59<23 122 23 241>
VStem: 23 218<-132 -73 -73 -73 673 732 -132 732> 122 119<-73 673 673 673>
LayerCount: 2
Fore
SplineSet
23 -132 m 1,0,-1
 23 -73 l 1,1,-1
 122 -73 l 1,2,-1
 122 673 l 1,3,-1
 23 673 l 1,4,-1
 23 732 l 1,5,-1
 241 732 l 1,6,-1
 241 -132 l 1,7,-1
 23 -132 l 1,0,-1
EndSplineSet
EndChar

StartChar: asciicircum
Encoding: 94 94 65
Width: 618
Flags: HMW
HStem: 0 21G<69 157 69 69 500 500 500 591> 478 20G<304 356 356 356>
LayerCount: 2
Fore
SplineSet
157 0 m 1,0,-1
 69 0 l 1,1,-1
 304 498 l 1,2,-1
 356 498 l 1,3,-1
 591 0 l 1,4,-1
 500 0 l 1,5,-1
 330 368 l 1,6,-1
 157 0 l 1,0,-1
EndSplineSet
EndChar

StartChar: underscore
Encoding: 95 95 66
Width: 710
Flags: HMW
HStem: -143 96<101 609 101 609>
LayerCount: 2
Fore
SplineSet
101 -143 m 1,0,-1
 101 -47 l 1,1,-1
 609 -47 l 1,2,-1
 609 -143 l 1,3,-1
 101 -143 l 1,0,-1
EndSplineSet
EndChar

StartChar: grave
Encoding: 96 96 67
Width: 281
Flags: HMW
HStem: 590 21G<155 155 155 258> 735 20G<4 149 149 149>
LayerCount: 2
Fore
SplineSet
155 590 m 1,0,-1
 4 755 l 1,1,-1
 149 755 l 1,2,-1
 258 590 l 1,3,-1
 155 590 l 1,0,-1
EndSplineSet
EndChar

StartChar: a
Encoding: 97 97 68
Width: 487
Flags: HMW
HStem: -11 92<189 192.5> -8 21G<369.5 409.5> 209 82<263 291> 426 83<208 244.5>
VStem: 20 125<113.5 166.5 113.5 189> 291 120<186 209 209 209 291 347>
LayerCount: 2
Fore
SplineSet
60 23 m 128,-1,1
 20 57 20 57 20 112.5 c 128,-1,2
 20 168 20 168 45 204.5 c 128,-1,3
 70 241 70 241 113 258.5 c 0,4,5
 192.857142857 291 192.857142857 291 291 291 c 1,6,-1
 291 356 l 2,7,8
 291 395 291 395 274.5 410.5 c 128,-1,9
 258 426 258 426 219 426 c 0,10,11
 166 426 166 426 91 368 c 1,12,-1
 42 447 l 1,13,14
 133 509 133 509 244 509 c 0,15,16
 325 509 325 509 368 468 c 128,-1,17
 411 427 411 427 411 347 c 2,18,-1
 411 130 l 2,19,20
 411 80 411 80 435 80 c 0,21,22
 440 80 440 80 485 92 c 1,23,-1
 506 19 l 1,24,25
 418 -8 418 -8 389 -8 c 128,-1,26
 360 -8 360 -8 339 10.5 c 128,-1,27
 318 29 318 29 311 59 c 1,28,29
 261 -11 261 -11 161 -11 c 0,30,0
 100 -11 100 -11 60 23 c 128,-1,1
145 129 m 0,31,32
 145 107 145 107 162.5 94 c 128,-1,33
 180 81 180 81 203 81 c 0,34,35
 242 81 242 81 266.5 113.5 c 128,-1,36
 291 146 291 146 291 186 c 2,37,-1
 291 209 l 1,38,39
 145 209 145 209 145 129 c 0,31,32
EndSplineSet
EndChar

StartChar: b
Encoding: 98 98 69
Width: 544
Flags: HMW
HStem: -12 82<251.5 322 240.5 357> -1 21G<51 113 51 51> 416 92<286 315> 748 20G<41 175 175 175>
VStem: 55 120<171 205 205 368 506 526 526 713 713 713> 386 131<211.5 278.5>
LayerCount: 2
Fore
SplineSet
48 739 m 2,0,-1
 41 768 l 1,1,-1
 175 768 l 1,2,-1
 175 526 l 2,3,4
 175 502 175 502 174 480.5 c 128,-1,5
 173 459 173 459 173 457 c 1,6,7
 234 508 234 508 314 508 c 0,8,9
 409 508 409 508 463 429 c 128,-1,10
 517 350 517 350 517 245.5 c 128,-1,11
 517 141 517 141 453.5 64.5 c 128,-1,12
 390 -12 390 -12 282 -12 c 0,13,14
 190 -12 190 -12 134 57 c 1,15,-1
 113 -1 l 1,16,-1
 51 -1 l 1,17,18
 55 30 55 30 55 65 c 2,19,-1
 55 713 l 1,20,21
 54 716 54 716 48 739 c 2,0,-1
175 368 m 1,22,-1
 175 205 l 2,23,24
 175 148 175 148 200 109 c 128,-1,25
 225 70 225 70 279 70 c 0,26,27
 309 70 309 70 331.5 87.5 c 128,-1,28
 354 105 354 105 365 133 c 0,29,30
 386 186.454545455 386 186.454545455 386 234.727272727 c 128,-1,31
 386 283 386 283 376 319.5 c 128,-1,32
 366 356 366 356 339 386 c 128,-1,33
 312 416 312 416 273 416 c 0,34,35
 218 416 218 416 175 368 c 1,22,-1
EndSplineSet
EndChar

StartChar: c
Encoding: 99 99 70
Width: 452
Flags: HMW
HStem: -12 84<239.5 305> 425 85<230 294.5>
VStem: 27 132<210 285.5 210 326.5>
LayerCount: 2
Fore
SplineSet
27 249 m 128,-1,1
 27 366 27 366 97.5 438 c 128,-1,2
 168 510 168 510 284 510 c 0,3,4
 321 510 321 510 363 497 c 128,-1,5
 405 484 405 484 435 462 c 1,6,-1
 375 386 l 1,7,8
 323 425 323 425 269 425 c 0,9,10
 215 425 215 425 187 370 c 128,-1,11
 159 315 159 315 159 260.5 c 0,12,13
 159 206 159 206 170.5 167.5 c 128,-1,14
 182 129 182 129 212 100.5 c 128,-1,15
 242 72 242 72 289 72 c 0,16,17
 336 72 336 72 392 121 c 1,18,-1
 443 35 l 1,19,20
 395 10 395 10 357.5 -1 c 128,-1,21
 320 -12 320 -12 270 -12 c 0,22,23
 154 -12 154 -12 90.5 60 c 128,-1,0
 27 132 27 132 27 249 c 128,-1,1
EndSplineSet
EndChar

StartChar: d
Encoding: 100 100 71
Width: 546
Flags: HMW
HStem: -12 89<229.5 264.5> 424 85<226 276.5 181.5 308> 748 20G<354 489 489 489>
VStem: 27 131<214 284.5 214 317> 369 120<129 142 142 292 292 325 506 519 519 538 538 714 714 714>
LayerCount: 2
Fore
SplineSet
370 477 m 1,0,-1
 369 506 l 1,1,-1
 369 714 l 1,2,-1
 354 768 l 1,3,-1
 489 768 l 1,4,-1
 489 142 l 2,5,6
 489 49 489 49 514 3 c 1,7,-1
 393 -9 l 1,8,9
 384 14 384 14 378 51 c 1,10,11
 356 22 356 22 317.5 5 c 128,-1,12
 279 -12 279 -12 240 -12 c 0,13,14
 140 -12 140 -12 83.5 64.5 c 128,-1,15
 27 141 27 141 27 250 c 128,-1,16
 27 359 27 359 87.5 434 c 128,-1,17
 148 509 148 509 259 509 c 0,18,19
 332 509 332 509 370 477 c 1,0,-1
167 326.5 m 128,-1,21
 158 290 158 290 158 237 c 128,-1,22
 158 184 158 184 186 130.5 c 128,-1,23
 214 77 214 77 274 77 c 0,24,25
 301 77 301 77 327.5 91.5 c 128,-1,26
 354 106 354 106 369 129 c 1,27,-1
 369 292 l 2,28,29
 369 349 369 349 346 386.5 c 128,-1,30
 323 424 323 424 276 424 c 128,-1,31
 229 424 229 424 202.5 393.5 c 128,-1,20
 176 363 176 363 167 326.5 c 128,-1,21
EndSplineSet
EndChar

StartChar: e
Encoding: 101 101 72
Width: 491
Flags: HMW
HStem: -11 80<239 304.5 239 305> 234 79<157 325 325 332.5 157 416 154 325> 429 82<233 289>
VStem: 27 127<196 234 196 315> 342 125<328.5 359.5 276.5 360.5>
LayerCount: 2
Fore
SplineSet
94 58.5 m 128,-1,1
 27 128 27 128 27 242 c 128,-1,2
 27 356 27 356 90 433.5 c 128,-1,3
 153 511 153 511 255.5 511 c 128,-1,4
 358 511 358 511 412.5 452.5 c 128,-1,5
 467 394 467 394 467 294 c 0,6,7
 467 234 467 234 416 234 c 2,8,-1
 154 234 l 1,9,10
 154 170 154 170 188 119.5 c 128,-1,11
 222 69 222 69 286.5 69 c 128,-1,12
 351 69 351 69 404 122 c 1,13,-1
 455 42 l 1,14,15
 423 16 423 16 373 2.5 c 128,-1,16
 323 -11 323 -11 277 -11 c 0,17,0
 161 -11 161 -11 94 58.5 c 128,-1,1
157 313 m 1,18,-1
 325 313 l 2,19,20
 342 313 342 313 342 335 c 0,21,22
 342 376 342 376 321.5 402.5 c 128,-1,23
 301 429 301 429 261 429 c 128,-1,24
 221 429 221 429 190 392 c 128,-1,25
 159 355 159 355 157 313 c 1,18,-1
EndSplineSet
EndChar

StartChar: f
Encoding: 102 102 73
Width: 330
Flags: HMW
HStem: -1 21G<90 210 90 90> 417 80<210 332 210 309> 694 82<290.5 329>
VStem: 90 120<-1 417 -1 417>
LayerCount: 2
Fore
SplineSet
90 417 m 1,0,-1
 8 417 l 1,1,-1
 8 488 l 1,2,3
 84 488 84 488 92 532 c 2,4,5
 101 577 l 2,6,7
 117.458333333 659.291666667 117.458333333 659.291666667 144 694 c 0,8,9
 157 711 157 711 177 730 c 0,10,11
 229 776 229 776 314 776 c 0,12,13
 374 776 374 776 413 753 c 1,14,-1
 381 672 l 1,15,16
 350 694 350 694 316.5 694 c 128,-1,17
 283 694 283 694 259.5 677.5 c 128,-1,18
 236 661 236 661 226 630 c 0,19,20
 210 580.4 210 580.4 210 511 c 2,21,-1
 210 497 l 1,22,-1
 332 497 l 1,23,-1
 309 417 l 1,24,-1
 210 417 l 1,25,-1
 210 -1 l 1,26,-1
 90 -1 l 1,27,-1
 90 417 l 1,0,-1
EndSplineSet
EndChar

StartChar: g
Encoding: 103 103 74
Width: 486
Flags: HMW
HStem: -230 86<204 253.5 204 270> 0 91<256 270 179 302> 168 70<209 245 205 272> 425 72<315 404 315 489> 437 60 437 75<205 245>
VStem: 8 122<-105.5 -75> 37 125<309 365 309 391.5> 50 124<79.5 136.5> 289 124<309 358.5 289 365> 367 114<-89 -26>
LayerCount: 2
Fore
SplineSet
8 -102 m 0,0,1
 8 -62 8 -62 33 -28 c 128,-1,2
 58 6 58 6 96 23 c 1,3,-1
 96 27 l 1,4,5
 78 32 78 32 64 52 c 128,-1,6
 50 72 50 72 50 95 c 0,7,8
 50 103 50 103 60.5 113.5 c 0,9,10
 105.636363636 158.636363636 105.636363636 158.636363636 126 193 c 1,11,12
 37 242 37 242 37 340 c 0,13,14
 37 415 37 415 93 463.5 c 128,-1,15
 149 512 149 512 226 512 c 0,16,17
 248 512 248 512 282 504.5 c 128,-1,18
 316 497 316 497 348.5 497 c 128,-1,19
 381 497 381 497 511 508 c 1,20,-1
 489 425 l 1,21,-1
 404 425 l 2,22,23
 393 425 393 425 381 430 c 1,24,25
 413 389 413 389 413 341 c 0,26,27
 413 265 413 265 356.5 216.5 c 128,-1,28
 300 168 300 168 221 168 c 0,29,30
 202 168 202 168 188 155.5 c 128,-1,31
 174 143 174 143 174 123 c 0,32,33
 174 91 174 91 256 91 c 2,34,-1
 302 91 l 2,35,36
 403.043478261 91 403.043478261 91 442.5 63.5 c 0,37,38
 481 36.6666666667 481 36.6666666667 481 -27.1666666667 c 128,-1,39
 481 -91 481 -91 437.5 -140 c 0,40,41
 357.602040816 -230 357.602040816 -230 208 -230 c 0,42,43
 139.16 -230 139.16 -230 79 -206.5 c 0,44,45
 8 -178.765625 8 -178.765625 8 -102 c 0,0,1
144 -34.5 m 128,-1,47
 130 -58 130 -58 130 -86 c 128,-1,48
 130 -114 130 -114 159 -129 c 128,-1,49
 188 -144 188 -144 234.5 -144 c 128,-1,50
 281 -144 281 -144 324 -123 c 128,-1,51
 367 -102 367 -102 367 -50 c 0,52,53
 367 0 367 0 270 0 c 2,54,-1
 179 0 l 1,55,46
 158 -11 158 -11 144 -34.5 c 128,-1,47
162 337 m 128,-1,57
 162 294 162 294 179 266 c 128,-1,58
 196 238 196 238 225 238 c 128,-1,59
 254 238 254 238 271.5 266 c 128,-1,60
 289 294 289 294 289 337 c 128,-1,61
 289 380 289 380 271.5 408.5 c 128,-1,62
 254 437 254 437 225 437 c 128,-1,63
 196 437 196 437 179 408.5 c 128,-1,56
 162 380 162 380 162 337 c 128,-1,57
EndSplineSet
EndChar

StartChar: h
Encoding: 104 104 75
Width: 516
Flags: HMW
HStem: 0 21G<54 173 54 54 344 465 344 344> 416 95<291 310.5> 749 20G<42 173 173 173>
VStem: 54 119<0 361 450 715 715 715> 344 121<0 324 324 336 0 346.5>
LayerCount: 2
Fore
SplineSet
54 715 m 1,0,-1
 42 769 l 1,1,-1
 173 769 l 1,2,-1
 173 450 l 1,3,4
 247 511 247 511 322.5 511 c 0,5,6
 398 511 398 511 431.5 466 c 128,-1,7
 465 421 465 421 465 336 c 2,8,-1
 465 0 l 1,9,-1
 344 0 l 1,10,-1
 344 324 l 2,11,12
 344 352 344 352 341 369 c 128,-1,13
 338 386 338 386 323.5 401 c 128,-1,14
 309 416 309 416 284 416 c 0,15,16
 259 416 259 416 224.5 397.5 c 128,-1,17
 190 379 190 379 173 361 c 1,18,-1
 173 0 l 1,19,-1
 54 0 l 1,20,-1
 54 715 l 1,0,-1
EndSplineSet
EndChar

StartChar: i
Encoding: 105 105 76
Width: 229
Flags: HMW
HStem: 0 21G<55 175 55 55> 477 20G<44 175 175 175> 601 153<94.5 137.5>
VStem: 39 153<656.5 699.5> 55 120<0 443 443 444>
LayerCount: 2
Fore
SplineSet
39 678 m 128,-1,1
 39 710 39 710 61.5 732 c 128,-1,2
 84 754 84 754 116 754 c 128,-1,3
 148 754 148 754 170 732 c 128,-1,4
 192 710 192 710 192 678 c 128,-1,5
 192 646 192 646 170 623.5 c 128,-1,6
 148 601 148 601 116 601 c 128,-1,7
 84 601 84 601 61.5 623.5 c 128,-1,0
 39 646 39 646 39 678 c 128,-1,1
55 443 m 1,8,-1
 44 497 l 1,9,-1
 175 497 l 1,10,-1
 175 0 l 1,11,-1
 55 0 l 1,12,-1
 55 443 l 1,8,-1
EndSplineSet
EndChar

StartChar: j
Encoding: 106 106 77
Width: 230
Flags: HMW
HStem: -224 21G<1 1> 497 104<93.5 136.5 93.5 175 93.5 175> 601 153<93.5 136.5>
VStem: 38 153<656.5 699.5> 55 120<40 66 66 444 444 445>
LayerCount: 2
Fore
SplineSet
55 444 m 1,0,-1
 43 497 l 1,1,-1
 175 497 l 1,2,-1
 175 66 l 2,3,4
 175 -43 175 -43 146.5 -119 c 0,5,6
 112.443914081 -209.816229117 112.443914081 -209.816229117 1 -224 c 1,7,-1
 -21 -169 l 1,8,9
 32.6625 -141.175 32.6625 -141.175 45.5 -76 c 0,10,11
 55 -27.7692307692 55 -27.7692307692 55 40 c 2,12,-1
 55 444 l 1,0,-1
38 678 m 128,-1,14
 38 710 38 710 60.5 732 c 128,-1,15
 83 754 83 754 115 754 c 128,-1,16
 147 754 147 754 169 732 c 128,-1,17
 191 710 191 710 191 678 c 128,-1,18
 191 646 191 646 169 623.5 c 128,-1,19
 147 601 147 601 115 601 c 128,-1,20
 83 601 83 601 60.5 623.5 c 128,-1,13
 38 646 38 646 38 678 c 128,-1,14
EndSplineSet
EndChar

StartChar: k
Encoding: 107 107 78
Width: 469
Flags: HMW
HStem: 0 21G<54 177 54 54 342 477 342 342> 477 20G<331 448 448 448> 749 20G<41 177 177 177>
VStem: 54 123<0 255 292 715 715 715>
LayerCount: 2
Fore
SplineSet
54 715 m 1,0,-1
 41 769 l 1,1,-1
 177 769 l 1,2,-1
 177 292 l 1,3,-1
 331 497 l 1,4,-1
 448 497 l 1,5,-1
 287 287 l 1,6,-1
 477 0 l 1,7,-1
 342 0 l 1,8,-1
 177 255 l 1,9,-1
 177 0 l 1,10,-1
 54 0 l 1,11,-1
 54 715 l 1,0,-1
EndSplineSet
EndChar

StartChar: l
Encoding: 108 108 79
Width: 230
Flags: HMW
HStem: 0 21G<54 176 54 54> 749 20G<43 176 176 176>
VStem: 54 122<0 715 715 716>
LayerCount: 2
Fore
SplineSet
54 715 m 1,0,-1
 43 769 l 1,1,-1
 176 769 l 1,2,-1
 176 0 l 1,3,-1
 54 0 l 1,4,-1
 54 715 l 1,0,-1
EndSplineSet
EndChar

StartChar: m
Encoding: 109 109 80
Width: 800
Flags: HMW
HStem: 0 21G<58 178 58 58 342 463 342 342 629 749 629 629> 416 94<291 305 577 590.5>
VStem: 58 120<0 356 356 361 0 373.5> 342 121<0 335 335 356.5> 629 120<0 332 332 339 0 356.5>
LayerCount: 2
Fore
SplineSet
27 493 m 1,0,-1
 153 508 l 1,1,2
 165 482 165 482 170 444 c 1,3,4
 209 477 209 477 243.5 493.5 c 128,-1,5
 278 510 278 510 323 510 c 0,6,7
 415 510 415 510 447 437 c 1,8,9
 520 510 520 510 603 510 c 0,10,11
 686 510 686 510 717.5 465 c 128,-1,12
 749 420 749 420 749 339 c 2,13,-1
 749 0 l 1,14,-1
 629 0 l 1,15,-1
 629 332 l 2,16,17
 629 373 629 373 615 394.5 c 128,-1,18
 601 416 601 416 559 416 c 0,19,20
 517 416 517 416 463 362 c 1,21,-1
 463 0 l 1,22,-1
 342 0 l 1,23,-1
 342 335 l 2,24,25
 342 416 342 416 279 416 c 0,26,27
 255 416 255 416 226 399 c 128,-1,28
 197 382 197 382 178 361 c 1,29,-1
 178 0 l 1,30,-1
 58 0 l 1,31,-1
 58 356 l 2,32,33
 58 456 58 456 27 493 c 1,0,-1
EndSplineSet
EndChar

StartChar: n
Encoding: 110 110 81
Width: 521
Flags: HMW
HStem: 0 21G<58 178 58 58 349 470 349 349> 416 95<294 315.5>
VStem: 58 120<0 356 356 361 0 373.5> 349 121<0 324 324 336 0 346.5>
LayerCount: 2
Fore
SplineSet
27 493 m 1,0,-1
 153 508 l 1,1,2
 165 482 165 482 170 444 c 1,3,4
 244 511 244 511 323.5 511 c 0,5,6
 403 511 403 511 436.5 466 c 128,-1,7
 470 421 470 421 470 336 c 2,8,-1
 470 0 l 1,9,-1
 349 0 l 1,10,-1
 349 324 l 2,11,12
 349 352 349 352 346 369 c 128,-1,13
 343 386 343 386 328.5 401 c 128,-1,14
 314 416 314 416 289 416 c 0,15,16
 264 416 264 416 229.5 397.5 c 128,-1,17
 195 379 195 379 178 361 c 1,18,-1
 178 0 l 1,19,-1
 58 0 l 1,20,-1
 58 356 l 2,21,22
 58 456 58 456 27 493 c 1,0,-1
EndSplineSet
EndChar

StartChar: o
Encoding: 111 111 82
Width: 538
Flags: HMW
HStem: -12 80<223.5 315.5 223.5 344.5> 428 82<223.5 315.5>
VStem: 27 132<213.5 282.5 213.5 321> 379 132<212 284>
LayerCount: 2
Fore
SplineSet
27 249 m 128,-1,1
 27 360 27 360 93.5 435 c 128,-1,2
 160 510 160 510 269.5 510 c 0,3,4
 379 510 379 510 445 435 c 128,-1,5
 511 360 511 360 511 249 c 128,-1,6
 511 138 511 138 445 63 c 128,-1,7
 379 -12 379 -12 269 -12 c 128,-1,8
 159 -12 159 -12 93 63 c 128,-1,0
 27 138 27 138 27 249 c 128,-1,1
159 248 m 128,-1,10
 159 218 159 218 163.5 190 c 128,-1,11
 168 162 168 162 179.5 133 c 128,-1,12
 191 104 191 104 214 86 c 128,-1,13
 237 68 237 68 269.5 68 c 0,14,15
 302 68 302 68 325 85.5 c 128,-1,16
 348 103 348 103 359 132 c 128,-1,17
 370 161 370 161 374.5 189 c 128,-1,18
 379 217 379 217 379 248 c 128,-1,19
 379 279 379 279 374.5 307 c 128,-1,20
 370 335 370 335 359 364 c 128,-1,21
 348 393 348 393 325 410.5 c 128,-1,22
 302 428 302 428 269.5 428 c 0,23,24
 237 428 237 428 214 410 c 128,-1,25
 191 392 191 392 179.5 363 c 128,-1,26
 168 334 168 334 163.5 306 c 128,-1,9
 159 278 159 278 159 248 c 128,-1,10
EndSplineSet
EndChar

StartChar: p
Encoding: 112 112 83
Width: 548
Flags: HMW
HStem: -217 21G<58 193 58 58> -10 85<270.5 322 239.5 365> 422 89<283 318.5>
VStem: 58 121<-162 -36 174 207 207 357 357 370> 390 131<214.5 285>
LayerCount: 2
Fore
SplineSet
178 -1 m 2,0,-1
 179 -36 l 1,1,-1
 179 -162 l 1,2,-1
 185 -188 l 2,3,4
 189 -204 189 -204 193 -217 c 1,5,-1
 58 -217 l 1,6,-1
 58 357 l 2,7,8
 58 449 58 449 29 493 c 1,9,-1
 154 508 l 1,10,11
 164 481 164 481 169 448 c 1,12,13
 190 477 190 477 229.5 494 c 128,-1,14
 269 511 269 511 307 511 c 0,15,16
 408 511 408 511 464.5 435 c 128,-1,17
 521 359 521 359 521 249.5 c 128,-1,18
 521 140 521 140 460 65 c 128,-1,19
 399 -10 399 -10 288 -10 c 0,20,21
 216 -10 216 -10 177 22 c 1,22,23
 177 6 177 6 178 -1 c 2,0,-1
179 370 m 1,24,-1
 179 207 l 2,25,26
 179 150 179 150 202 112.5 c 128,-1,27
 225 75 225 75 272 75 c 128,-1,28
 319 75 319 75 345.5 105.5 c 0,29,30
 390 156.716981132 390 156.716981132 390 249 c 0,31,32
 390 315 390 315 362 368.5 c 128,-1,33
 334 422 334 422 274 422 c 0,34,35
 247 422 247 422 220.5 407.5 c 128,-1,36
 194 393 194 393 179 370 c 1,24,-1
EndSplineSet
EndChar

StartChar: q
Encoding: 113 113 84
Width: 544
Flags: HMW
HStem: -217 21G<368 502 368 368> -11 87<228 254.5> 428 69 428 81<222.5 291 186.5 303>
VStem: 27 130<210.5 282.5 210.5 316> 368 121<-163.5 -162 -162 -35 -35 -12.5 125 293 293 327>
LayerCount: 2
Fore
SplineSet
489 -162 m 1,0,-1
 502 -217 l 1,1,-1
 368 -217 l 1,2,-1
 368 -35 l 2,3,4
 368 -10 368 -10 369 11 c 128,-1,5
 370 32 370 32 370 41 c 1,6,7
 309 -11 309 -11 229 -11 c 0,8,9
 135 -11 135 -11 81 68 c 128,-1,10
 27 147 27 147 27 251.5 c 128,-1,11
 27 356 27 356 90 432.5 c 128,-1,12
 153 509 153 509 261 509 c 0,13,14
 353 509 353 509 409 441 c 1,15,-1
 430 497 l 1,16,-1
 492 497 l 1,17,18
 489 464 489 464 489 433 c 2,19,-1
 489 -162 l 1,0,-1
165.5 326.5 m 128,-1,21
 157 288 157 288 157 247 c 128,-1,22
 157 206 157 206 167 170 c 128,-1,23
 177 134 177 134 204 105 c 128,-1,24
 231 76 231 76 270 76 c 0,25,26
 326 76 326 76 368 125 c 1,27,-1
 368 293 l 2,28,29
 368 350 368 350 343 389 c 128,-1,30
 318 428 318 428 271.5 428 c 128,-1,31
 225 428 225 428 199.5 396.5 c 128,-1,20
 174 365 174 365 165.5 326.5 c 128,-1,21
EndSplineSet
EndChar

StartChar: r
Encoding: 114 114 85
Width: 345
Flags: HMW
HStem: 0 21G<58 178 58 58> 388 114 487 20G<153 153 308.5 342>
VStem: 58 120<0 296 0 363 0 382>
LayerCount: 2
Fore
SplineSet
26 497 m 1,0,-1
 153 507 l 1,1,2
 175 461 175 461 177 402 c 1,3,4
 202 446 202 446 248 476.5 c 128,-1,5
 294 507 294 507 342 507 c 1,6,-1
 322 388 l 1,7,-1
 318 388 l 2,8,9
 274 388 274 388 241.5 363.5 c 128,-1,10
 209 339 209 339 178 296 c 1,11,-1
 178 0 l 1,12,-1
 58 0 l 1,13,-1
 58 363 l 2,14,15
 58 454 58 454 26 497 c 1,0,-1
EndSplineSet
EndChar

StartChar: s
Encoding: 115 115 86
Width: 404
Flags: HMW
HStem: -14 85<158.5 195 154.5 234.5> 429 81<212.5 246.5>
VStem: 31 130<330 395.5 330 407> 250 130<113 185.5>
LayerCount: 2
Fore
SplineSet
19 29 m 1,0,-1
 62 111 l 1,1,2
 132 71 132 71 169.5 71 c 0,3,4
 207 71 207 71 228.5 87.5 c 128,-1,5
 250 104 250 104 250 133 c 0,6,7
 250 162 250 162 227.5 180 c 128,-1,8
 205 198 205 198 172.5 209 c 128,-1,9
 140 220 140 220 108 234.5 c 128,-1,10
 76 249 76 249 53.5 279 c 128,-1,11
 31 309 31 309 31 354 c 0,12,13
 31 428 31 428 88.5 469 c 128,-1,14
 146 510 146 510 226.5 510 c 0,15,16
 307 510 307 510 370 479 c 1,17,-1
 328 395 l 1,18,19
 284 429 284 429 229 429 c 0,20,21
 201 429 201 429 181 416 c 128,-1,22
 161 403 161 403 161 377 c 0,23,24
 161 351 161 351 183.5 334.5 c 128,-1,25
 206 318 206 318 238 307 c 128,-1,26
 270 296 270 296 302.5 281 c 128,-1,27
 335 266 335 266 357.5 234 c 128,-1,28
 380 202 380 202 380 155 c 0,29,30
 380 78 380 78 322 32 c 128,-1,31
 264 -14 264 -14 179 -14 c 0,32,33
 94 -14 94 -14 19 29 c 1,0,-1
EndSplineSet
EndChar

StartChar: t
Encoding: 116 116 87
Width: 345
Flags: HMW
HStem: -10 86<172.5 266.5> 418 66<9 91 9 9> 418 79<213 334 213 310> 418 224<9 233 9 233 213 213 213 233 146 310>
VStem: 91 122<131 143 143 418>
LayerCount: 2
Fore
SplineSet
91 418 m 1,0,-1
 9 418 l 1,1,-1
 9 484 l 1,2,3
 110 488 110 488 146 642 c 1,4,-1
 233 642 l 1,5,6
 213 557 213 557 213 497 c 1,7,-1
 334 497 l 1,8,-1
 310 418 l 1,9,-1
 213 418 l 1,10,-1
 213 143 l 2,11,12
 213 76 213 76 255 76 c 0,13,14
 278 76 278 76 320 86 c 1,15,-1
 334 11 l 1,16,17
 267 -10 267 -10 209 -10 c 0,18,19
 91 -10 91 -10 91 116 c 2,20,-1
 91 418 l 1,0,-1
EndSplineSet
EndChar

StartChar: u
Encoding: 117 117 88
Width: 551
Flags: HMW
HStem: -14 96<209.5 232.5> -8 21G<422.5 462.5> 477 20G<41 174 174 174 333 467 467 467>
VStem: 52 122<161 182 182 443 443 443> 345 122<179 443 443 444>
LayerCount: 2
Fore
SplineSet
560 19 m 1,0,1
 479 -8 479 -8 446 -8 c 128,-1,2
 413 -8 413 -8 392 10.5 c 128,-1,3
 371 29 371 29 365 59 c 1,4,5
 294 -14 294 -14 206.5 -14 c 128,-1,6
 119 -14 119 -14 85.5 31.5 c 128,-1,7
 52 77 52 77 52 161 c 2,8,-1
 52 443 l 1,9,-1
 41 497 l 1,10,-1
 174 497 l 1,11,-1
 174 182 l 2,12,13
 174 108.714285714 174 108.714285714 204 90.5 c 0,14,15
 218 82 218 82 239 82 c 0,16,17
 283 82 283 82 314 109 c 128,-1,18
 345 136 345 136 345 179 c 2,19,-1
 345 443 l 1,20,-1
 333 497 l 1,21,-1
 467 497 l 1,22,-1
 467 132 l 2,23,24
 467 80 467 80 492 80 c 0,25,26
 494 80 494 80 539 92 c 1,27,-1
 560 19 l 1,0,1
EndSplineSet
EndChar

StartChar: v
Encoding: 118 118 89
Width: 461
Flags: HMW
HStem: -4 21G<176 176 176 284> 477 20G<1 130 130 130 352 460 460 460>
LayerCount: 2
Fore
SplineSet
176 -4 m 1,0,-1
 1 497 l 1,1,-1
 130 497 l 1,2,-1
 221 235 l 2,3,4
 223 230 223 230 242 151 c 1,5,6
 255 222 255 222 259 235 c 2,7,-1
 352 497 l 1,8,-1
 460 497 l 1,9,-1
 284 -4 l 1,10,-1
 176 -4 l 1,0,-1
EndSplineSet
EndChar

StartChar: w
Encoding: 119 119 90
Width: 694
Flags: HMW
HStem: -4 21G<155 155 155 250 438 438 438 531> 477 20G<7 133 133 133 305 416 416 416 586 689 689 689>
LayerCount: 2
Fore
SplineSet
155 -4 m 1,0,-1
 7 497 l 1,1,-1
 133 497 l 1,2,-1
 200 272 l 2,3,4
 207 251 207 251 216 173 c 1,5,6
 228 257 228 257 233 272 c 2,7,-1
 305 497 l 1,8,-1
 416 497 l 1,9,-1
 483 272 l 2,10,11
 491.857142857 245.428571429 491.857142857 245.428571429 499 174 c 1,12,13
 508 250 508 250 515 272 c 2,14,-1
 586 497 l 1,15,-1
 689 497 l 1,16,-1
 531 -4 l 1,17,-1
 438 -4 l 1,18,19
 430 22 430 22 406 97.5 c 0,20,21
 362.242744063 235.153034301 362.242744063 235.153034301 346 329 c 1,22,23
 330.670023238 240.42680093 330.670023238 240.42680093 293.835011619 129.213400465 c 128,-1,24
 257 18 257 18 250 -4 c 1,25,-1
 155 -4 l 1,0,-1
EndSplineSet
EndChar

StartChar: x
Encoding: 120 120 91
Width: 464
Flags: HMW
HStem: 0 21G<-5 113 -5 -5 335 335 335 469> 477 20G<17 152 152 152 325 444 444 444>
LayerCount: 2
Fore
SplineSet
113 0 m 1,0,-1
 -5 0 l 1,1,-1
 169 261 l 1,2,-1
 17 497 l 1,3,-1
 152 497 l 1,4,-1
 238 364 l 1,5,-1
 325 497 l 1,6,-1
 444 497 l 1,7,-1
 295 274 l 1,8,-1
 469 0 l 1,9,-1
 335 0 l 1,10,-1
 226 170 l 1,11,-1
 113 0 l 1,0,-1
EndSplineSet
EndChar

StartChar: y
Encoding: 121 121 92
Width: 465
Flags: HMW
HStem: -221 82<52.5 68 31 94.5> 477 20G<2 131 131 131 352 462 462 462>
LayerCount: 2
Fore
SplineSet
182 1 m 1,0,-1
 2 497 l 1,1,-1
 131 497 l 1,2,3
 181 362 181 362 228 221 c 0,4,5
 234.133333333 201.066666667 234.133333333 201.066666667 242 146 c 1,6,7
 253 210 253 210 261 236 c 128,-1,8
 269 262 269 262 285 308 c 128,-1,9
 301 354 301 354 321 410 c 128,-1,10
 341 466 341 466 352 497 c 1,11,-1
 462 497 l 1,12,-1
 285 -3 l 1,13,14
 211 -221 211 -221 68 -221 c 2,15,-1
 31 -221 l 1,16,-1
 31 -136 l 1,17,18
 43 -139 43 -139 63.5 -139 c 128,-1,19
 84 -139 84 -139 105 -126.5 c 128,-1,20
 126 -114 126 -114 141 -90.5 c 0,21,22
 164.345323741 -53.9256594724 164.345323741 -53.9256594724 182 1 c 1,0,-1
EndSplineSet
EndChar

StartChar: z
Encoding: 122 122 93
Width: 445
Flags: HMW
HStem: 0 83<176 413> 414 83<41 250 41 413>
LayerCount: 2
Fore
SplineSet
413 0 m 1,0,-1
 16 0 l 1,1,-1
 16 61 l 1,2,-1
 250 414 l 1,3,-1
 41 414 l 1,4,-1
 41 497 l 1,5,-1
 413 497 l 1,6,-1
 413 435 l 1,7,-1
 176 83 l 1,8,-1
 427 83 l 1,9,-1
 413 0 l 1,0,-1
EndSplineSet
EndChar

StartChar: braceleft
Encoding: 123 123 94
Width: 317
Flags: HMW
HStem: -147 63<191.5 294 257.5 294 257.5 294> 266 61<24 47> 677 62<259.5 294>
VStem: 89 116<24 166> 89 205<-147 183>
LayerCount: 2
Fore
SplineSet
24 266 m 1,0,-1
 24 327 l 1,1,2
 88 327 88 327 88 416 c 2,3,-1
 88 569 l 2,4,5
 88 647 88 647 123.5 693 c 128,-1,6
 159 739 159 739 235 739 c 2,7,-1
 294 739 l 1,8,-1
 294 677 l 1,9,10
 242 677 242 677 224 660.5 c 128,-1,11
 206 644 206 644 206 593 c 2,12,-1
 206 427 l 2,13,14
 206 324 206 324 151 296 c 1,15,16
 205 268 205 268 205 166 c 2,17,-1
 205 0 l 2,18,19
 205 -55 205 -55 221.5 -69.5 c 128,-1,20
 238 -84 238 -84 294 -84 c 1,21,-1
 294 -147 l 1,22,-1
 248 -147 l 2,23,24
 89 -147 89 -147 89 24 c 2,25,-1
 89 183 l 2,26,27
 89 216 89 216 72.5 241 c 128,-1,28
 56 266 56 266 24 266 c 1,0,-1
EndSplineSet
EndChar

StartChar: bar
Encoding: 124 124 95
Width: 228
Flags: HMW
HStem: -116 21G<65 163 65 65> 725 20G<65 163 163 163>
VStem: 65 98<-116 745>
LayerCount: 2
Fore
SplineSet
163 -116 m 1,0,-1
 65 -116 l 1,1,-1
 65 745 l 1,2,-1
 163 745 l 1,3,-1
 163 -116 l 1,0,-1
EndSplineSet
EndChar

StartChar: braceright
Encoding: 125 125 96
Width: 317
Flags: HMW
HStem: -147 62<23 61.5 23 61.5 23 69> 267 61<270 293> 676 63<23 57>
VStem: 23 206<-147 24 -85 24> 112 117
LayerCount: 2
Fore
SplineSet
23 -147 m 1,0,-1
 23 -85 l 1,1,2
 81 -85 81 -85 96 -70.5 c 128,-1,3
 111 -56 111 -56 111 0 c 2,4,-1
 111 166 l 2,5,6
 111 268 111 268 166 296 c 1,7,8
 112 324 112 324 112 427 c 2,9,-1
 112 593 l 2,10,11
 112 643 112 643 93.5 659.5 c 128,-1,12
 75 676 75 676 23 676 c 1,13,-1
 23 739 l 1,14,-1
 82 739 l 2,15,16
 158 739 158 739 193 693 c 128,-1,17
 228 647 228 647 228 569 c 2,18,-1
 228 416 l 2,19,20
 228 380 228 380 244 354 c 128,-1,21
 260 328 260 328 293 328 c 1,22,-1
 293 267 l 1,23,24
 261 267 261 267 245 242 c 128,-1,25
 229 217 229 217 229 183 c 2,26,-1
 229 24 l 2,27,28
 229 -147 229 -147 69 -147 c 2,29,-1
 23 -147 l 1,0,-1
EndSplineSet
EndChar

StartChar: asciitilde
Encoding: 126 126 97
Width: 575
Flags: HMW
HStem: 189 21G<96 96> 194 90<365.5 413 365.5 423> 264 20 264 90<158 214> 337 20G<482 482>
LayerCount: 2
Fore
SplineSet
96 189 m 1,0,-1
 31 244 l 1,1,2
 50 288 50 288 91 321 c 128,-1,3
 132 354 132 354 179 354 c 0,4,5
 226 354 226 354 298 319 c 128,-1,6
 370 284 370 284 393 284 c 0,7,8
 439 284 439 284 482 357 c 1,9,-1
 545 299 l 1,10,11
 518 258 518 258 476 226 c 128,-1,12
 434 194 434 194 393 194 c 128,-1,13
 352 194 352 194 282.5 229 c 128,-1,14
 213 264 213 264 174 264 c 0,15,16
 135 264 135 264 96 189 c 1,0,-1
EndSplineSet
EndChar

StartChar: exclamdown
Encoding: 161 161 98
Width: 250
Flags: HMW
HStem: -124 21G<80 90 90 161> 465 148<104.5 145>
VStem: 50 149<518.5 559> 65 119
LayerCount: 2
Fore
SplineSet
50 539 m 128,-1,1
 50 570 50 570 72 591.5 c 128,-1,2
 94 613 94 613 124.5 613 c 0,3,4
 155 613 155 613 177 591 c 128,-1,5
 199 569 199 569 199 538.5 c 0,6,7
 199 508 199 508 177 486.5 c 128,-1,8
 155 465 155 465 124.5 465 c 0,9,10
 94 465 94 465 72 486.5 c 128,-1,0
 50 508 50 508 50 539 c 128,-1,1
51 -89 m 1,11,-1
 80 382 l 1,12,-1
 169 382 l 1,13,-1
 199 -92 l 1,14,15
 199 -124 199 -124 161 -124 c 2,16,-1
 90 -124 l 2,17,18
 51 -124 51 -124 51 -89 c 1,11,-1
EndSplineSet
EndChar

StartChar: cent
Encoding: 162 162 99
Width: 483
Flags: HMW
HStem: -128 200<247.5 254 182 317.5> -12 84<265 298.5> 425 197<273 302.5>
VStem: 35 132<210 285.5 210 321>
LayerCount: 2
Fore
SplineSet
79.5 83 m 128,-1,1
 35 152 35 152 35 255 c 128,-1,2
 35 358 35 358 96 428.5 c 128,-1,3
 157 499 157 499 264 509 c 1,4,-1
 273 622 l 1,5,-1
 347 622 l 1,6,-1
 319 508 l 1,7,8
 385 502 385 502 443 462 c 1,9,-1
 383 386 l 1,10,11
 331 425 331 425 277 425 c 128,-1,12
 223 425 223 425 195 370 c 128,-1,13
 167 315 167 315 167 260.5 c 128,-1,14
 167 206 167 206 178.5 167.5 c 128,-1,15
 190 129 190 129 220 100.5 c 128,-1,16
 250 72 250 72 297 72 c 128,-1,17
 344 72 344 72 400 121 c 1,18,-1
 451 35 l 1,19,20
 398 7 398 7 357.5 -2.5 c 128,-1,21
 317 -12 317 -12 265 -12 c 1,22,-1
 254 -128 l 1,23,-1
 182 -128 l 1,24,-1
 214 -5 l 1,25,0
 124 14 124 14 79.5 83 c 128,-1,1
EndSplineSet
EndChar

StartChar: sterling
Encoding: 163 163 100
Width: 589
Flags: HMW
HStem: 0 100<33 126 261 554 33 126> 342 99<49 126 49 126 261 391> 648 96<317.5 369.5>
VStem: 126 135<100 342 100 342 441 538 538 552>
LayerCount: 2
Fore
SplineSet
554 0 m 1,0,-1
 33 0 l 1,1,-1
 33 100 l 1,2,-1
 126 100 l 1,3,-1
 126 342 l 1,4,-1
 49 342 l 1,5,-1
 49 441 l 1,6,-1
 126 441 l 1,7,-1
 126 538 l 2,8,9
 126 635 126 635 187 689.5 c 128,-1,10
 248 744 248 744 347 744 c 0,11,12
 471 744 471 744 543 629 c 1,13,-1
 445 575 l 1,14,15
 408 648 408 648 346 648 c 0,16,17
 305 648 305 648 283 621.5 c 128,-1,18
 261 595 261 595 261 552 c 2,19,-1
 261 441 l 1,20,-1
 391 441 l 1,21,-1
 391 342 l 1,22,-1
 261 342 l 1,23,-1
 261 100 l 1,24,-1
 554 100 l 1,25,-1
 554 0 l 1,0,-1
EndSplineSet
EndChar

StartChar: currency
Encoding: 164 164 101
Width: 559
Flags: HMW
HStem: 104 21G<119 119 440 440> 121 84<258.5 299.5> 459 84<259 299 259 312> 542 20G<119 119 440 440>
VStem: 81 95<313.5 350.5> 383 95<312.5 350.5 312.5 368>
LayerCount: 2
Fore
SplineSet
119 104 m 1,0,-1
 50 173 l 1,1,-1
 106 228 l 1,2,3
 81 275 81 275 81 332 c 128,-1,4
 81 389 81 389 106 436 c 1,5,-1
 50 493 l 1,6,-1
 119 562 l 1,7,-1
 171 509 l 1,8,9
 218 543 218 543 279 543 c 128,-1,10
 340 543 340 543 387 509 c 1,11,-1
 440 562 l 1,12,-1
 509 493 l 1,13,-1
 452 436 l 1,14,15
 478 386 478 386 478 332.5 c 128,-1,16
 478 279 478 279 452 229 c 1,17,-1
 509 173 l 1,18,-1
 440 104 l 1,19,-1
 388 155 l 1,20,21
 341 121 341 121 279 121 c 128,-1,22
 217 121 217 121 170 155 c 1,23,-1
 119 104 l 1,0,-1
204.5 423 m 128,-1,25
 176 387 176 387 176 329.5 c 128,-1,26
 176 272 176 272 208 238.5 c 128,-1,27
 240 205 240 205 281 205 c 128,-1,28
 322 205 322 205 352.5 237.5 c 128,-1,29
 383 270 383 270 383 328.5 c 128,-1,30
 383 387 383 387 355 423 c 128,-1,31
 327 459 327 459 280 459 c 128,-1,24
 233 459 233 459 204.5 423 c 128,-1,25
EndSplineSet
EndChar

StartChar: yen
Encoding: 165 165 102
Width: 531
Flags: HMW
HStem: 0 21G<209 330 209 209> 162 49<40 209 40 209 330 491> 271 49<40 146 40 175 40 146 391 491> 271 226<40 175 40 40 370 491 39 362>
VStem: 209 121<0 162 0 162 211 216 0 216>
LayerCount: 2
Fore
SplineSet
146 320 m 1,0,-1
 39 497 l 1,1,-1
 185 497 l 1,2,-1
 279 332 l 1,3,-1
 370 497 l 1,4,-1
 493 497 l 1,5,-1
 391 320 l 1,6,-1
 491 320 l 1,7,-1
 491 271 l 1,8,-1
 362 271 l 1,9,-1
 330 216 l 1,10,-1
 330 211 l 1,11,-1
 491 211 l 1,12,-1
 491 162 l 1,13,-1
 330 162 l 1,14,-1
 330 0 l 1,15,-1
 209 0 l 1,16,-1
 209 162 l 1,17,-1
 40 162 l 1,18,-1
 40 211 l 1,19,-1
 209 211 l 1,20,-1
 209 216 l 1,21,-1
 175 271 l 1,22,-1
 40 271 l 1,23,-1
 40 320 l 1,24,-1
 146 320 l 1,0,-1
EndSplineSet
EndChar

StartChar: brokenbar
Encoding: 166 166 103
Width: 230
Flags: HMW
HStem: -116 21G<66 164 66 66> 725 20G<66 164 164 164>
VStem: 66 98<-116 237 392 745>
LayerCount: 2
Fore
SplineSet
164 -116 m 1,0,-1
 66 -116 l 1,1,-1
 66 237 l 1,2,-1
 164 237 l 1,3,-1
 164 -116 l 1,0,-1
164 392 m 1,4,-1
 66 392 l 1,5,-1
 66 745 l 1,6,-1
 164 745 l 1,7,-1
 164 392 l 1,4,-1
EndSplineSet
EndChar

StartChar: section
Encoding: 167 167 104
Width: 512
Flags: HMW
HStem: -68 96<189.5 238.5 189.5 266> 646 96<274.5 323.5>
VStem: 34 123<336 384.5 336 390.5> 85 124<561.5 608.5 540 640.5> 304 124<65.5 112.5 33.5 134> 356 123<288.5 338>
LayerCount: 2
Fore
SplineSet
34 357 m 0,0,1
 34 439 34 439 113 491 c 1,2,3
 85 529 85 529 85 581 c 0,4,5
 85 664 85 664 147 703 c 128,-1,6
 209 742 209 742 305 742 c 0,7,8
 353 742 353 742 400 727 c 128,-1,9
 447 712 447 712 469 695 c 1,10,-1
 411 608 l 1,11,12
 363 646 363 646 299 646 c 0,13,14
 260 646 260 646 234.5 631.5 c 128,-1,15
 209 617 209 617 209 590 c 128,-1,16
 209 563 209 563 237 543.5 c 128,-1,17
 265 524 265 524 304.5 508 c 128,-1,18
 344 492 344 492 383.5 472 c 128,-1,19
 423 452 423 452 451 412.5 c 128,-1,20
 479 373 479 373 479 317 c 0,21,22
 479 233 479 233 399 183 c 1,23,24
 428 148 428 148 428 93 c 0,25,26
 428 10 428 10 366 -29 c 128,-1,27
 304 -68 304 -68 208 -68 c 0,28,29
 159 -68 159 -68 111 -53 c 128,-1,30
 63 -38 63 -38 44 -21 c 1,31,-1
 102 66 l 1,32,33
 150 28 150 28 214 28 c 0,34,35
 253 28 253 28 278.5 42.5 c 128,-1,36
 304 57 304 57 304 84 c 128,-1,37
 304 111 304 111 276 130.5 c 128,-1,38
 248 150 248 150 208.5 165.5 c 128,-1,39
 169 181 169 181 129.5 201.5 c 128,-1,40
 90 222 90 222 62 261.5 c 128,-1,41
 34 301 34 301 34 357 c 0,0,1
263.54610951 266.095100865 m 128,-1,43
 306 248 306 248 321 241 c 1,44,45
 356 262 356 262 356 298 c 0,46,47
 356 343.210526316 356 343.210526316 319 369.5 c 0,48,49
 290.958009331 389.424572317 290.958009331 389.424572317 248.979004666 407.212286159 c 128,-1,50
 207 425 207 425 191 433 c 1,51,52
 157 411 157 411 157 370.602564103 c 128,-1,53
 157 330.205128205 157 330.205128205 189.04610951 307.197664967 c 128,-1,42
 221.09221902 284.190201729 221.09221902 284.190201729 263.54610951 266.095100865 c 128,-1,43
EndSplineSet
EndChar

StartChar: dieresis
Encoding: 168 168 105
Width: 276
Flags: HMW
HStem: 566 114<43 75 203.5 235>
VStem: 2 114<607 639> 162 115<607.5 638.5>
LayerCount: 2
Fore
SplineSet
2 623 m 128,-1,1
 2 647 2 647 18.5 663.5 c 128,-1,2
 35 680 35 680 59 680 c 128,-1,3
 83 680 83 680 99.5 663.5 c 128,-1,4
 116 647 116 647 116 623 c 128,-1,5
 116 599 116 599 99.5 582.5 c 128,-1,6
 83 566 83 566 59 566 c 128,-1,7
 35 566 35 566 18.5 582.5 c 128,-1,0
 2 599 2 599 2 623 c 128,-1,1
162 623 m 128,-1,9
 162 646 162 646 179 663 c 128,-1,10
 196 680 196 680 219.5 680 c 0,11,12
 243 680 243 680 260 663.5 c 128,-1,13
 277 647 277 647 277 623 c 128,-1,14
 277 599 277 599 260 582.5 c 128,-1,15
 243 566 243 566 219.5 566 c 0,16,17
 196 566 196 566 179 583 c 128,-1,8
 162 600 162 600 162 623 c 128,-1,9
EndSplineSet
EndChar

StartChar: copyright
Encoding: 169 169 106
Width: 616
Flags: HMW
HStem: -27 40<242.5 373.5 242.5 384> 80 63<293 335> 357 64<287.5 326.5> 487 40<242.5 373.5>
VStem: 31 40<184.5 315.5 184.5 326> 153 93<227 271 227 300.5> 545 40<184.5 315.5>
LayerCount: 2
Fore
SplineSet
31 250 m 128,-1,1
 31 364 31 364 112.5 445.5 c 128,-1,2
 194 527 194 527 308 527 c 128,-1,3
 422 527 422 527 503.5 445.5 c 128,-1,4
 585 364 585 364 585 250 c 128,-1,5
 585 136 585 136 503.5 54.5 c 128,-1,6
 422 -27 422 -27 308 -27 c 128,-1,7
 194 -27 194 -27 112.5 54.5 c 128,-1,0
 31 136 31 136 31 250 c 128,-1,1
71 250 m 128,-1,9
 71 152 71 152 140.5 82.5 c 128,-1,10
 210 13 210 13 308 13 c 128,-1,11
 406 13 406 13 475.5 82.5 c 128,-1,12
 545 152 545 152 545 250 c 128,-1,13
 545 348 545 348 475.5 417.5 c 128,-1,14
 406 487 406 487 308 487 c 128,-1,15
 210 487 210 487 140.5 417.5 c 128,-1,8
 71 348 71 348 71 250 c 128,-1,9
194 126.5 m 128,-1,17
 153 173 153 173 153 249.5 c 128,-1,18
 153 326 153 326 199 373.5 c 128,-1,19
 245 421 245 421 320 421 c 0,20,21
 375 421 375 421 422 386 c 1,22,-1
 378 330 l 1,23,24
 344 357 344 357 311.5 357 c 128,-1,25
 279 357 279 357 262.5 323 c 128,-1,26
 246 289 246 289 246 248.5 c 128,-1,27
 246 208 246 208 264 175.5 c 128,-1,28
 282 143 282 143 319 143 c 128,-1,29
 356 143 356 143 389 176 c 1,30,-1
 427 112 l 1,31,32
 365 80 365 80 311 80 c 0,33,16
 235 80 235 80 194 126.5 c 128,-1,17
EndSplineSet
EndChar

StartChar: ordfeminine
Encoding: 170 170 107
Width: 396
Flags: HMW
HStem: 272 58<75 314 75 314> 386 61<149.5 161> 386 205<111.5 230> 674 55<165 193.5>
VStem: 42 82<473.5 508.5 473.5 523.5> 230 77<516 537 537 537 591 622>
LayerCount: 2
Fore
SplineSet
69 410.5 m 128,-1,1
 42 435 42 435 42 472.5 c 128,-1,2
 42 510 42 510 59 534 c 128,-1,3
 76 558 76 558 105 569.5 c 0,4,5
 159.217391304 591 159.217391304 591 230 591 c 1,6,-1
 230 628 l 2,7,8
 230 674 230 674 177 674 c 0,9,10
 135 674 135 674 89 636 c 1,11,-1
 56 688 l 1,12,13
 118 729 118 729 189 729 c 0,14,15
 307 729 307 729 307 622 c 2,16,-1
 307 480 l 2,17,18
 307 446 307 446 328 446 c 0,19,20
 341 446 341 446 357 454 c 1,21,-1
 371 406 l 1,22,23
 332 388 332 388 300 388 c 0,24,25
 255 388 255 388 243 432 c 1,26,27
 197 386 197 386 146.5 386 c 128,-1,0
 96 386 96 386 69 410.5 c 128,-1,1
314 272 m 1,28,-1
 75 272 l 1,29,-1
 75 330 l 1,30,-1
 314 330 l 1,31,-1
 314 272 l 1,28,-1
124 484 m 0,32,33
 124 468 124 468 134 457.5 c 128,-1,34
 144 447 144 447 167 447 c 128,-1,35
 190 447 190 447 210 467 c 128,-1,36
 230 487 230 487 230 516 c 2,37,-1
 230 537 l 1,38,39
 124 537 124 537 124 484 c 0,32,33
EndSplineSet
EndChar

StartChar: guillemotleft
Encoding: 171 171 108
Width: 469
Flags: HMW
HStem: 162 21G<189 189 357 357> 484 20G<185 185 353 353>
LayerCount: 2
Fore
SplineSet
189 162 m 1,0,-1
 33 332 l 1,1,-1
 185 504 l 1,2,-1
 262 490 l 1,3,-1
 143 332 l 1,4,-1
 265 173 l 1,5,-1
 189 162 l 1,0,-1
357 162 m 1,6,-1
 201 332 l 1,7,-1
 353 504 l 1,8,-1
 431 490 l 1,9,-1
 311 332 l 1,10,-1
 434 173 l 1,11,-1
 357 162 l 1,6,-1
EndSplineSet
EndChar

StartChar: logicalnot
Encoding: 172 172 109
Width: 607
Flags: HMW
HStem: 79 21G<466 552 466 466> 267 83<54 466 54 552>
VStem: 466 86<79 267 267 267>
LayerCount: 2
Fore
SplineSet
466 267 m 1,0,-1
 54 267 l 1,1,-1
 54 350 l 1,2,-1
 552 350 l 1,3,-1
 552 79 l 1,4,-1
 466 79 l 1,5,-1
 466 267 l 1,0,-1
EndSplineSet
EndChar

StartChar: uni00AD
Encoding: 173 173 110
Width: 337
Flags: HMW
HStem: 210 95<58 279 58 279>
VStem: 58 221<210 305 210 305>
LayerCount: 2
Fore
SplineSet
279 210 m 1,0,-1
 58 210 l 1,1,-1
 58 305 l 1,2,-1
 279 305 l 1,3,-1
 279 210 l 1,0,-1
EndSplineSet
EndChar

StartChar: registered
Encoding: 174 174 111
Width: 493
Flags: HMW
HStem: 399 36<198 294 198 304> 399 241<221 240 240 252.5 221 304> 497 235<161 221 161 254 161 297 161 368> 785 36<198 294>
VStem: 36 35<561.5 658.5 561.5 668> 161 60<497 593 640 685> 277 60<656.5 671.5> 422 35<561.5 658>
LayerCount: 2
Fore
SplineSet
36 610 m 128,-1,1
 36 697 36 697 97.5 759 c 128,-1,2
 159 821 159 821 246 821 c 128,-1,3
 333 821 333 821 395 759 c 128,-1,4
 457 697 457 697 457 610 c 128,-1,5
 457 523 457 523 395 461 c 128,-1,6
 333 399 333 399 246 399 c 128,-1,7
 159 399 159 399 97.5 461 c 128,-1,0
 36 523 36 523 36 610 c 128,-1,1
71 610 m 128,-1,9
 71 537 71 537 122.5 486 c 128,-1,10
 174 435 174 435 246 435 c 128,-1,11
 318 435 318 435 370 486.5 c 128,-1,12
 422 538 422 538 422 610 c 128,-1,13
 422 682 422 682 370 733.5 c 128,-1,14
 318 785 318 785 246 785 c 128,-1,15
 174 785 174 785 122.5 734 c 128,-1,8
 71 683 71 683 71 610 c 128,-1,9
221 497 m 1,16,-1
 161 497 l 1,17,-1
 161 732 l 1,18,-1
 254 732 l 2,19,20
 337 732 337 732 337 663 c 0,21,22
 337 625 337 625 294 604 c 1,23,-1
 368 497 l 1,24,-1
 297 497 l 1,25,-1
 231 593 l 1,26,-1
 221 593 l 1,27,-1
 221 497 l 1,16,-1
221 685 m 1,28,-1
 221 640 l 1,29,-1
 240 640 l 2,30,31
 277 640 277 640 277 665 c 0,32,33
 277 685 277 685 247 685 c 2,34,-1
 221 685 l 1,28,-1
EndSplineSet
EndChar

StartChar: overscore
Encoding: 175 175 112
Width: 274
Flags: HMW
HStem: 581 74<-11 284 -11 284>
LayerCount: 2
Fore
SplineSet
284 581 m 1,0,-1
 -11 581 l 1,1,-1
 -11 655 l 1,2,-1
 284 655 l 1,3,-1
 284 581 l 1,0,-1
EndSplineSet
EndChar

StartChar: degree
Encoding: 176 176 113
Width: 353
Flags: HMW
HStem: 448 64<153.5 198.5 153.5 216.5> 674 64<154 198>
VStem: 31 67<571 615 571 633> 255 67<571 615>
LayerCount: 2
Fore
SplineSet
31 593 m 128,-1,1
 31 653 31 653 73.5 695.5 c 128,-1,2
 116 738 116 738 176 738 c 128,-1,3
 236 738 236 738 279 695.5 c 128,-1,4
 322 653 322 653 322 593 c 128,-1,5
 322 533 322 533 279.5 490.5 c 128,-1,6
 237 448 237 448 176.5 448 c 0,7,8
 116 448 116 448 73.5 490.5 c 128,-1,0
 31 533 31 533 31 593 c 128,-1,1
98 593 m 128,-1,10
 98 560 98 560 120.5 536 c 128,-1,11
 143 512 143 512 176 512 c 128,-1,12
 209 512 209 512 232 536 c 128,-1,13
 255 560 255 560 255 593 c 128,-1,14
 255 626 255 626 232 650 c 128,-1,15
 209 674 209 674 176 674 c 128,-1,16
 143 674 143 674 120.5 650 c 128,-1,9
 98 626 98 626 98 593 c 128,-1,10
EndSplineSet
EndChar

StartChar: plusminus
Encoding: 177 177 114
Width: 592
Flags: HMW
HStem: 1 87<47 545 47 545> 267 85<340 545 340 545> 477 20G<252 340 340 340>
VStem: 252 88<120 266 266 266 352 497>
LayerCount: 2
Fore
SplineSet
545 1 m 1,0,-1
 47 1 l 1,1,-1
 47 88 l 1,2,-1
 545 88 l 1,3,-1
 545 1 l 1,0,-1
252 266 m 1,4,-1
 47 266 l 1,5,-1
 47 351 l 1,6,-1
 252 351 l 1,7,-1
 252 497 l 1,8,-1
 340 497 l 1,9,-1
 340 352 l 1,10,-1
 545 352 l 1,11,-1
 545 267 l 1,12,-1
 340 267 l 1,13,-1
 340 120 l 1,14,-1
 252 120 l 1,15,-1
 252 266 l 1,4,-1
EndSplineSet
EndChar

StartChar: uni00B2
Encoding: 178 178 115
Width: 435
Flags: HMW
HStem: 438 95<189 378> 856 79<199.5 225.5>
VStem: 270 118<768 813.5>
LayerCount: 2
Fore
SplineSet
378 438 m 1,0,-1
 29 438 l 1,1,-1
 29 489 l 1,2,3
 98 545 98 545 149 598 c 0,4,5
 270 723 270 723 270 794 c 0,6,7
 270 823 270 823 252.5 839.5 c 128,-1,8
 235 856 235 856 200.5 856 c 0,9,10
 166 856 166 856 131.5 833.5 c 0,11,12
 97 811 97 811 83 798 c 1,13,-1
 39 864 l 1,14,15
 56 879 56 879 91 899 c 0,16,17
 154 935 154 935 230.5 935 c 0,18,19
 307 935 307 935 347.5 897.5 c 128,-1,20
 388 860 388 860 388 804 c 0,21,22
 388 708 388 708 288 614 c 1,23,24
 244.5 570.5 244.5 570.5 189 533 c 1,25,-1
 405 533 l 1,26,-1
 378 438 l 1,0,-1
EndSplineSet
EndChar

StartChar: uni00B3
Encoding: 179 179 116
Width: 412
Flags: HMW
HStem: 425 69<27 42> 856 79<189 218.5>
VStem: 254 109<815.5 832.5> 271 92 271 114<589 640.5>
LayerCount: 2
Fore
SplineSet
168 672 m 1,0,-1
 143 671 l 2,1,2
 140 670 140 670 133 670 c 1,3,-1
 122 728 l 1,4,5
 158 735 158 735 182 743 c 128,-1,6
 206 751 206 751 230 771.5 c 128,-1,7
 254 792 254 792 254 815 c 0,8,9
 254 856 254 856 205 856 c 0,10,11
 172 856 172 856 136 841.5 c 128,-1,12
 100 827 100 827 75 806 c 1,13,-1
 32 867 l 1,14,15
 69 896 69 896 121.5 915.5 c 128,-1,16
 174 935 174 935 227 935 c 128,-1,17
 280 935 280 935 321.5 913.5 c 128,-1,18
 363 892 363 892 363 841 c 0,19,20
 363 770 363 770 278 738 c 1,21,22
 385 720 385 720 385 622 c 0,23,24
 385 571.434782609 385 571.434782609 348 528 c 0,25,26
 267.192909761 433.139502762 267.192909761 433.139502762 42 425 c 1,27,-1
 27 494 l 1,28,29
 145 500 145 500 208 531.5 c 128,-1,30
 271 563 271 563 271 613 c 0,31,32
 271 672 271 672 168 672 c 1,0,-1
EndSplineSet
EndChar

StartChar: acute
Encoding: 180 180 117
Width: 281
Flags: HMW
HStem: 590 21G<33 136 33 33> 735 20G<142 287 287 287>
LayerCount: 2
Fore
SplineSet
136 590 m 1,0,-1
 33 590 l 1,1,-1
 142 755 l 1,2,-1
 287 755 l 1,3,-1
 136 590 l 1,0,-1
EndSplineSet
EndChar

StartChar: mu
Encoding: 181 181 118
AltUni2: 0003bc.ffffffff.0
Width: 599
Flags: HMW
HStem: -186 21G<64 188 64 64> -10 94<241.5 271.5 221.5 276.5> -8 21G<433.5 473.5> 478 20G<53 185 185 185 344 477 477 477>
VStem: 64 121<163.5 187 187 445 445 446> 356 121<131 132 132 445 445 446>
LayerCount: 2
Fore
SplineSet
64 445 m 1,0,-1
 53 498 l 1,1,-1
 185 498 l 1,2,-1
 185 187 l 2,3,4
 185 84 185 84 251 84 c 0,5,6
 311 84 311 84 356 131 c 1,7,-1
 356 445 l 1,8,-1
 344 498 l 1,9,-1
 477 498 l 1,10,-1
 477 132 l 2,11,12
 477 80 477 80 502 80 c 0,13,14
 505 80 505 80 550 92 c 1,15,-1
 571 19 l 1,16,17
 490 -8 490 -8 457 -8 c 128,-1,18
 424 -8 424 -8 403.5 10 c 128,-1,19
 383 28 383 28 376 58 c 1,20,21
 318 -10 318 -10 253 -10 c 0,22,23
 220 -10 220 -10 188 5 c 1,24,-1
 188 -186 l 1,25,-1
 64 -186 l 1,26,-1
 64 445 l 1,0,-1
EndSplineSet
EndChar

StartChar: paragraph
Encoding: 182 182 119
Width: 481
Flags: HMW
HStem: -158 54<149.5 180.5 149.5 186.5> 10 54<149.5 165> 664 54<276 276 276 337 391 447 391 391>
VStem: 32 244<466 588> 54 54<-62.5 -31.5 -62.5 -17> 221 55<-47 332 332 332> 337 54<10 664>
LayerCount: 2
Fore
SplineSet
32 520 m 0,0,1
 32 618 32 618 93.5 668 c 128,-1,2
 155 718 155 718 255 718 c 2,3,-1
 447 718 l 1,4,-1
 447 664 l 1,5,-1
 391 664 l 1,6,-1
 391 10 l 2,7,8
 391 -35 391 -35 358 -68 c 128,-1,9
 325 -101 325 -101 280 -101 c 0,10,11
 277 -101 277 -101 263 -99 c 1,12,13
 231 -158 231 -158 165 -158 c 0,14,15
 120 -158 120 -158 87 -125 c 128,-1,16
 54 -92 54 -92 54 -47 c 128,-1,17
 54 -2 54 -2 87 31 c 128,-1,18
 120 64 120 64 165 64 c 1,19,-1
 165 10 l 1,20,21
 142 10 142 10 125 -7 c 128,-1,22
 108 -24 108 -24 108 -47 c 128,-1,23
 108 -70 108 -70 125 -87 c 128,-1,24
 142 -104 142 -104 165 -104 c 128,-1,25
 188 -104 188 -104 204.5 -87 c 128,-1,26
 221 -70 221 -70 221 -47 c 2,27,-1
 221 332 l 1,28,29
 142 332 142 332 87 386 c 128,-1,30
 32 440 32 440 32 520 c 0,0,1
276 664 m 1,31,-1
 276 -47 l 1,32,-1
 280 -47 l 2,33,34
 303 -47 303 -47 320 -30 c 128,-1,35
 337 -13 337 -13 337 10 c 2,36,-1
 337 664 l 1,37,-1
 276 664 l 1,31,-1
EndSplineSet
EndChar

StartChar: middot
Encoding: 183 183 120
Width: 237
Flags: HMW
HStem: 182 151<97.5 139.5>
VStem: 43 151<236.5 278.5>
LayerCount: 2
Fore
SplineSet
65 204 m 128,-1,1
 43 226 43 226 43 257.5 c 128,-1,2
 43 289 43 289 65 311 c 128,-1,3
 87 333 87 333 118.5 333 c 128,-1,4
 150 333 150 333 172 311 c 128,-1,5
 194 289 194 289 194 257.5 c 128,-1,6
 194 226 194 226 172 204 c 128,-1,7
 150 182 150 182 118.5 182 c 128,-1,0
 87 182 87 182 65 204 c 128,-1,1
EndSplineSet
EndChar

StartChar: cedilla
Encoding: 184 184 121
Width: 280
Flags: HMW
HStem: -220 58<111.5 130.5 111.5 146> -100 52<79 142> -11 20G<111 170 170 170>
VStem: 159 93<-138.5 -119.5>
LayerCount: 2
Fore
SplineSet
25 -190 m 1,0,-1
 53 -140 l 1,1,2
 93 -162 93 -162 114.5 -162 c 0,3,4
 136 -162 136 -162 147.5 -152.5 c 128,-1,5
 159 -143 159 -143 159 -129 c 0,6,7
 159 -100 159 -100 126 -100 c 2,8,-1
 79 -100 l 2,9,10
 60 -100 60 -100 60 -83 c 0,11,12
 60 -78 60 -78 63 -73 c 2,13,-1
 111 9 l 1,14,-1
 170 9 l 1,15,-1
 138 -48 l 1,16,-1
 142 -48 l 2,17,18
 188 -48 188 -48 220 -66 c 128,-1,19
 252 -84 252 -84 252 -126 c 0,20,21
 252 -220 252 -220 117 -220 c 0,22,23
 76 -220 76 -220 25 -190 c 1,0,-1
EndSplineSet
EndChar

StartChar: uni00B9
Encoding: 185 185 122
Width: 422
Flags: HMW
HStem: 438 79<34 167 281 388 34 167> 904 20G<196 281 281 281>
VStem: 167 114<517 820 820 820>
LayerCount: 2
Fore
SplineSet
17 855 m 1,0,1
 112.984962406 884.533834586 112.984962406 884.533834586 196 924 c 1,2,-1
 281 924 l 1,3,-1
 281 517 l 1,4,-1
 388 517 l 1,5,-1
 388 438 l 1,6,-1
 34 438 l 1,7,-1
 34 517 l 1,8,-1
 167 517 l 1,9,-1
 167 820 l 1,10,-1
 42 785 l 1,11,-1
 17 855 l 1,0,1
EndSplineSet
EndChar

StartChar: ordmasculine
Encoding: 186 186 123
Width: 407
Flags: HMW
HStem: 272 58<83 322 83 322> 386 55<172.5 235.5 172.5 255> 680 55<171.5 234.5>
VStem: 39 89<534.5 584 534.5 610> 279 89<535.5 584>
LayerCount: 2
Fore
SplineSet
39 560 m 128,-1,1
 39 637 39 637 83.5 686 c 128,-1,2
 128 735 128 735 204 735 c 128,-1,3
 280 735 280 735 324 686 c 128,-1,4
 368 637 368 637 368 560 c 128,-1,5
 368 483 368 483 323.5 434.5 c 128,-1,6
 279 386 279 386 203 386 c 128,-1,7
 127 386 127 386 83 434.5 c 128,-1,0
 39 483 39 483 39 560 c 128,-1,1
322 272 m 1,8,-1
 83 272 l 1,9,-1
 83 330 l 1,10,-1
 322 330 l 1,11,-1
 322 272 l 1,8,-1
128 560 m 0,12,13
 128 441 128 441 203.5 441 c 0,14,15
 279 441 279 441 279 560 c 0,16,17
 279 607 279 607 262 643.5 c 128,-1,18
 245 680 245 680 203 680 c 128,-1,19
 161 680 161 680 144.5 643.5 c 128,-1,20
 128 607 128 607 128 560 c 0,12,13
EndSplineSet
EndChar

StartChar: guillemotright
Encoding: 187 187 124
Width: 469
Flags: HMW
HStem: 162 21G<112 112 280 280> 484 20G<116 116 284 284>
LayerCount: 2
Fore
SplineSet
112 162 m 1,0,-1
 35 173 l 1,1,-1
 158 332 l 1,2,-1
 38 490 l 1,3,-1
 116 504 l 1,4,-1
 268 332 l 1,5,-1
 112 162 l 1,0,-1
280 162 m 1,6,-1
 204 173 l 1,7,-1
 326 332 l 1,8,-1
 207 490 l 1,9,-1
 284 504 l 1,10,-1
 436 332 l 1,11,-1
 280 162 l 1,6,-1
EndSplineSet
EndChar

StartChar: onequarter
Encoding: 188 188 125
Width: 1045
Flags: HMW
HStem: -27 21G<359 442 359 359> 0 21G<830 944 830 830> 101 79<720 830 720 830 944 991> 246 79<57 190 304 411 57 190> 712 20G<219 304 304 304> 733 20G<670 754 754 754>
VStem: 190 114<325 628 628 628> 830 114<0 101 0 101 180 297 297 302.5>
LayerCount: 2
Fore
SplineSet
40 663 m 1,0,1
 135.984962406 692.533834586 135.984962406 692.533834586 219 732 c 1,2,-1
 304 732 l 1,3,-1
 304 325 l 1,4,-1
 411 325 l 1,5,-1
 411 246 l 1,6,-1
 57 246 l 1,7,-1
 57 325 l 1,8,-1
 190 325 l 1,9,-1
 190 628 l 1,10,-1
 65 593 l 1,11,-1
 40 663 l 1,0,1
442 -27 m 1,12,-1
 359 -27 l 1,13,-1
 670 753 l 1,14,-1
 754 753 l 1,15,-1
 442 -27 l 1,12,-1
830 101 m 1,16,-1
 605 101 l 1,17,-1
 605 153 l 1,18,-1
 831 486 l 1,19,-1
 944 486 l 1,20,-1
 944 180 l 1,21,-1
 1016 180 l 1,22,-1
 991 101 l 1,23,-1
 944 101 l 1,24,-1
 944 0 l 1,25,-1
 830 0 l 1,26,-1
 830 101 l 1,16,-1
788 283 m 2,27,-1
 720 180 l 1,28,-1
 830 180 l 1,29,-1
 830 297 l 2,30,31
 830 322 830 322 834 349 c 1,32,-1
 838 386 l 1,33,34
 821 334 821 334 788 283 c 2,27,-1
EndSplineSet
EndChar

StartChar: onehalf
Encoding: 189 189 126
Width: 1082
Flags: HMW
HStem: -27 21G<353 436 353 353> 0 106<858 1022> 246 79<51 184 298 405 51 184> 409 88<840.5 869.5> 712 20G<213 298 298 298> 733 20G<664 748 748 748>
VStem: 184 114<325 628 628 628> 915 126<313 370>
LayerCount: 2
Fore
SplineSet
34 663 m 1,0,1
 129.984962406 692.533834586 129.984962406 692.533834586 213 732 c 1,2,-1
 298 732 l 1,3,-1
 298 325 l 1,4,-1
 405 325 l 1,5,-1
 405 246 l 1,6,-1
 51 246 l 1,7,-1
 51 325 l 1,8,-1
 184 325 l 1,9,-1
 184 628 l 1,10,-1
 59 593 l 1,11,-1
 34 663 l 1,0,1
436 -27 m 1,12,-1
 353 -27 l 1,13,-1
 664 753 l 1,14,-1
 748 753 l 1,15,-1
 436 -27 l 1,12,-1
1022 0 m 1,16,-1
 675 0 l 1,17,-1
 675 52 l 1,18,-1
 684 60 l 1,19,20
 811.206721192 177.988842845 811.206721192 177.988842845 863.103360596 243.808465395 c 128,-1,21
 915 309.628087946 915 309.628087946 915 352 c 0,22,23
 915 378 915 378 897 393.5 c 128,-1,24
 879 409 879 409 852 409 c 0,25,26
 799 409 799 409 729 357 c 1,27,-1
 685 426 l 1,28,29
 777 497 777 497 878 497 c 0,30,31
 948 497 948 497 994.5 464 c 128,-1,32
 1041 431 1041 431 1041 363 c 128,-1,33
 1041 295 1041 295 984.5 224.5 c 128,-1,34
 928 154 928 154 858 106 c 1,35,-1
 1050 106 l 1,36,-1
 1022 0 l 1,16,-1
EndSplineSet
EndChar

StartChar: threequarters
Encoding: 190 190 127
Width: 998
Flags: HMW
HStem: -27 21G<312 395 312 312> 0 21G<783 897 783 783> 101 79<673 783 673 783 897 944> 233 69<41 56> 664 79<203 232.5> 733 20G<623 707 707 707>
VStem: 268 109<623.5 640.5> 285 92 285 114<397 448.5> 783 114<0 101 0 101 180 297 297 302.5>
LayerCount: 2
Fore
SplineSet
182 480 m 1,0,-1
 157 479 l 2,1,2
 154 478 154 478 147 478 c 1,3,-1
 136 536 l 1,4,5
 172 543 172 543 196 551 c 128,-1,6
 220 559 220 559 244 579.5 c 128,-1,7
 268 600 268 600 268 623 c 0,8,9
 268 664 268 664 219 664 c 0,10,11
 186 664 186 664 150 649.5 c 128,-1,12
 114 635 114 635 89 614 c 1,13,-1
 46 675 l 1,14,15
 83 704 83 704 135.5 723.5 c 128,-1,16
 188 743 188 743 241 743 c 128,-1,17
 294 743 294 743 335.5 721.5 c 128,-1,18
 377 700 377 700 377 649 c 0,19,20
 377 578 377 578 292 546 c 1,21,22
 399 528 399 528 399 430 c 0,23,24
 399 379.434782609 399 379.434782609 362 336 c 0,25,26
 281.192909761 241.139502762 281.192909761 241.139502762 56 233 c 1,27,-1
 41 302 l 1,28,29
 159 308 159 308 222 339.5 c 128,-1,30
 285 371 285 371 285 421 c 0,31,32
 285 480 285 480 182 480 c 1,0,-1
395 -27 m 1,33,-1
 312 -27 l 1,34,-1
 623 753 l 1,35,-1
 707 753 l 1,36,-1
 395 -27 l 1,33,-1
783 101 m 1,37,-1
 558 101 l 1,38,-1
 558 153 l 1,39,-1
 784 486 l 1,40,-1
 897 486 l 1,41,-1
 897 180 l 1,42,-1
 969 180 l 1,43,-1
 944 101 l 1,44,-1
 897 101 l 1,45,-1
 897 0 l 1,46,-1
 783 0 l 1,47,-1
 783 101 l 1,37,-1
741 283 m 2,48,-1
 673 180 l 1,49,-1
 783 180 l 1,50,-1
 783 297 l 2,51,52
 783 322 783 322 787 349 c 1,53,-1
 791 386 l 1,54,55
 774 334 774 334 741 283 c 2,48,-1
EndSplineSet
EndChar

StartChar: questiondown
Encoding: 191 191 128
Width: 443
Flags: HMW
HStem: -122 97<239 280.5> 458 154<229.5 272.5>
VStem: 32 129<35.5 99.5 35.5 107> 173 155<513.5 556.5> 197 107<264 383 178 383>
LayerCount: 2
Fore
SplineSet
32 56 m 0,0,1
 32 184 32 184 184 243 c 0,2,3
 197 248 197 248 197 264 c 2,4,-1
 197 383 l 1,5,-1
 304 383 l 1,6,-1
 304 178 l 1,7,8
 251 174 251 174 206 143.5 c 128,-1,9
 161 113 161 113 161 68 c 0,10,11
 161 23 161 23 192 -1 c 128,-1,12
 223 -25 223 -25 270 -25 c 0,13,14
 317 -25 317 -25 369 10 c 1,15,-1
 415 -78 l 1,16,17
 347 -122 347 -122 255 -122 c 0,18,19
 163 -122 163 -122 97.5 -75.5 c 128,-1,20
 32 -29 32 -29 32 56 c 0,0,1
173 535 m 128,-1,22
 173 567 173 567 196 589.5 c 128,-1,23
 219 612 219 612 251 612 c 128,-1,24
 283 612 283 612 305.5 589.5 c 128,-1,25
 328 567 328 567 328 535 c 128,-1,26
 328 503 328 503 305.5 480.5 c 128,-1,27
 283 458 283 458 251 458 c 128,-1,28
 219 458 219 458 196 480.5 c 128,-1,21
 173 503 173 503 173 535 c 128,-1,22
EndSplineSet
EndChar

StartChar: Agrave
Encoding: 192 192 129
Width: 629
Flags: HMW
HStem: 0 21G<1 117 1 1 484 484 484 628> 190 98<226 375 226 413 189 375> 862 20G<127 273 273 273>
LayerCount: 2
Fore
SplineSet
117 0 m 1,0,-1
 1 0 l 1,1,-1
 258 680 l 1,2,-1
 369 680 l 1,3,-1
 628 0 l 1,4,-1
 484 0 l 1,5,-1
 413 190 l 1,6,-1
 189 190 l 1,7,-1
 117 0 l 1,0,-1
278 717 m 1,8,-1
 127 882 l 1,9,-1
 273 882 l 1,10,-1
 382 717 l 1,11,-1
 278 717 l 1,8,-1
226 288 m 1,12,-1
 375 288 l 1,13,14
 345 377 345 377 301 539 c 1,15,16
 271 427 271 427 226 288 c 1,12,-1
EndSplineSet
EndChar

StartChar: Aacute
Encoding: 193 193 130
Width: 629
Flags: HMW
HStem: 0 21G<1 117 1 1 484 484 484 628> 190 98<226 375 226 413 189 375> 861 20G<352 498 498 498>
LayerCount: 2
Fore
SplineSet
117 0 m 1,0,-1
 1 0 l 1,1,-1
 258 680 l 1,2,-1
 369 680 l 1,3,-1
 628 0 l 1,4,-1
 484 0 l 1,5,-1
 413 190 l 1,6,-1
 189 190 l 1,7,-1
 117 0 l 1,0,-1
226 288 m 1,8,-1
 375 288 l 1,9,10
 345 377 345 377 301 539 c 1,11,12
 271 427 271 427 226 288 c 1,8,-1
347 717 m 1,13,-1
 243 717 l 1,14,-1
 352 881 l 1,15,-1
 498 881 l 1,16,-1
 347 717 l 1,13,-1
EndSplineSet
EndChar

StartChar: Acircumflex
Encoding: 194 194 131
Width: 629
Flags: HMW
HStem: 0 21G<1 117 1 1 484 484 484 628> 190 98<226 375 226 413 189 375> 838 20G<262 360 360 360>
LayerCount: 2
Fore
SplineSet
117 0 m 1,0,-1
 1 0 l 1,1,-1
 258 680 l 1,2,-1
 369 680 l 1,3,-1
 628 0 l 1,4,-1
 484 0 l 1,5,-1
 413 190 l 1,6,-1
 189 190 l 1,7,-1
 117 0 l 1,0,-1
242 714 m 1,8,-1
 166 714 l 1,9,-1
 262 858 l 1,10,-1
 360 858 l 1,11,-1
 459 713 l 1,12,-1
 381 713 l 1,13,-1
 311 787 l 1,14,-1
 242 714 l 1,8,-1
226 288 m 1,15,-1
 375 288 l 1,16,17
 345 377 345 377 301 539 c 1,18,19
 271 427 271 427 226 288 c 1,15,-1
EndSplineSet
EndChar

StartChar: Atilde
Encoding: 195 195 132
Width: 629
Flags: HMW
HStem: 0 21G<1 117 1 1 484 484 484 628> 190 98<226 375 226 413 189 375> 713 87<363.5 391.5 363.5 415> 753 47 753 87<242.5 270>
LayerCount: 2
Fore
SplineSet
117 0 m 1,0,-1
 1 0 l 1,1,-1
 258 680 l 1,2,-1
 369 680 l 1,3,-1
 628 0 l 1,4,-1
 484 0 l 1,5,-1
 413 190 l 1,6,-1
 189 190 l 1,7,-1
 117 0 l 1,0,-1
211 723 m 1,8,-1
 146 723 l 1,9,10
 146 773 146 773 174.5 806.5 c 128,-1,11
 203 840 203 840 252 840 c 0,12,13
 282 840 282 840 324 820 c 128,-1,14
 366 800 366 800 382 800 c 128,-1,15
 398 800 398 800 410.5 808 c 128,-1,16
 423 816 423 816 423 830 c 1,17,-1
 488 830 l 1,18,19
 488 780 488 780 459 746.5 c 128,-1,20
 430 713 430 713 381 713 c 0,21,22
 351 713 351 713 309.5 733 c 128,-1,23
 268 753 268 753 252 753 c 0,24,25
 236 753 236 753 223.5 745 c 128,-1,26
 211 737 211 737 211 723 c 1,8,-1
226 288 m 1,27,-1
 375 288 l 1,28,29
 345 377 345 377 301 539 c 1,30,31
 271 427 271 427 226 288 c 1,27,-1
EndSplineSet
EndChar

StartChar: Adieresis
Encoding: 196 196 133
Width: 629
Flags: HMW
HStem: 0 21G<1 117 1 1 484 484 484 628> 190 98<226 375 226 413 189 375> 735 114<219 251 379.5 411>
VStem: 178 114<776 807.5> 338 115<776 807.5>
LayerCount: 2
Fore
SplineSet
117 0 m 1,0,-1
 1 0 l 1,1,-1
 258 680 l 1,2,-1
 369 680 l 1,3,-1
 628 0 l 1,4,-1
 484 0 l 1,5,-1
 413 190 l 1,6,-1
 189 190 l 1,7,-1
 117 0 l 1,0,-1
194.5 751.5 m 128,-1,9
 178 768 178 768 178 791.5 c 128,-1,10
 178 815 178 815 194.5 832 c 128,-1,11
 211 849 211 849 235 849 c 128,-1,12
 259 849 259 849 275.5 832 c 128,-1,13
 292 815 292 815 292 791.5 c 128,-1,14
 292 768 292 768 275.5 751.5 c 128,-1,15
 259 735 259 735 235 735 c 128,-1,8
 211 735 211 735 194.5 751.5 c 128,-1,9
226 288 m 1,16,-1
 375 288 l 1,17,18
 345 377 345 377 301 539 c 1,19,20
 271 427 271 427 226 288 c 1,16,-1
355 751.5 m 128,-1,22
 338 768 338 768 338 791.5 c 128,-1,23
 338 815 338 815 355 832 c 128,-1,24
 372 849 372 849 395.5 849 c 128,-1,25
 419 849 419 849 436 832.5 c 128,-1,26
 453 816 453 816 453 792 c 128,-1,27
 453 768 453 768 436 751.5 c 128,-1,28
 419 735 419 735 395.5 735 c 128,-1,21
 372 735 372 735 355 751.5 c 128,-1,22
EndSplineSet
EndChar

StartChar: Aring
Encoding: 197 197 134
Width: 627
Flags: HMW
HStem: 0 21G<0 116 0 0 483 483 483 627> 190 98<225 374 225 412 188 374> 792 63<299.5 322.5>
VStem: 205 66<740.5 762.5 740.5 781> 352 67<740.5 762.5>
LayerCount: 2
Fore
SplineSet
116 0 m 1,0,-1
 0 0 l 1,1,-1
 251 664 l 1,2,3
 205 696 205 696 205 745.5 c 128,-1,4
 205 795 205 795 236 825 c 128,-1,5
 267 855 267 855 311.5 855 c 128,-1,6
 356 855 356 855 387.5 825.5 c 128,-1,7
 419 796 419 796 419 746.5 c 128,-1,8
 419 697 419 697 374 665 c 1,9,-1
 627 0 l 1,10,-1
 483 0 l 1,11,-1
 412 190 l 1,12,-1
 188 190 l 1,13,-1
 116 0 l 1,0,-1
225 288 m 1,14,-1
 374 288 l 1,15,16
 344 377 344 377 300 539 c 1,17,18
 270 427 270 427 225 288 c 1,14,-1
282.5 780 m 128,-1,20
 271 768 271 768 271 751.5 c 128,-1,21
 271 735 271 735 282.5 723 c 128,-1,22
 294 711 294 711 311 711 c 128,-1,23
 328 711 328 711 340 723 c 128,-1,24
 352 735 352 735 352 751.5 c 128,-1,25
 352 768 352 768 340 780 c 128,-1,26
 328 792 328 792 311 792 c 128,-1,19
 294 792 294 792 282.5 780 c 128,-1,20
EndSplineSet
EndChar

StartChar: AE
Encoding: 198 198 135
Width: 904
Flags: HMW
HStem: 0 99<568 875 568 875> 210 98<266 430 266 430 215 430> 327 99<568 803 568 803> 633 99<430 430 568 875 568 568>
VStem: 430 138<99 210 210 210 308 327 426 633>
LayerCount: 2
Fore
SplineSet
108 0 m 1,0,-1
 -14 0 l 1,1,-1
 325 670 l 1,2,-1
 311 732 l 1,3,-1
 875 732 l 1,4,-1
 875 633 l 1,5,-1
 568 633 l 1,6,-1
 568 426 l 1,7,-1
 803 426 l 1,8,-1
 803 327 l 1,9,-1
 568 327 l 1,10,-1
 568 99 l 1,11,-1
 875 99 l 1,12,-1
 875 0 l 1,13,-1
 430 0 l 1,14,-1
 430 210 l 1,15,-1
 215 210 l 1,16,-1
 108 0 l 1,0,-1
430 633 m 1,17,-1
 266 308 l 1,18,-1
 430 308 l 1,19,-1
 430 633 l 1,17,-1
EndSplineSet
EndChar

StartChar: Ccedilla
Encoding: 199 199 136
Width: 635
Flags: HMW
HStem: -220 58<333.5 352.5 333.5 368> -100 52<301 364> -12 94<380 425.5 316.5 430> 649 97<310 416>
VStem: 32 149<313 441.5 313 477> 381 93<-138.5 -119.5>
LayerCount: 2
Fore
SplineSet
107.5 113 m 128,-1,1
 32 217 32 217 32 375.5 c 128,-1,2
 32 534 32 534 127 640 c 128,-1,3
 222 746 222 746 383 746 c 0,4,5
 445 746 445 746 513 728 c 128,-1,6
 581 710 581 710 620 675 c 1,7,-1
 548 583 l 1,8,9
 521 614 521 614 476.5 631.5 c 128,-1,10
 432 649 432 649 388 649 c 0,11,12
 314 649 314 649 265.5 607 c 128,-1,13
 217 565 217 565 199 506 c 128,-1,14
 181 447 181 447 181 386.5 c 128,-1,15
 181 326 181 326 193.5 276.5 c 128,-1,16
 206 227 206 227 230 182.5 c 128,-1,17
 254 138 254 138 296 110 c 128,-1,18
 338 82 338 82 390 82 c 0,19,20
 483 82 483 82 561 157 c 1,21,-1
 624 62 l 1,22,23
 562 22 562 22 507.5 5 c 128,-1,24
 453 -12 453 -12 380 -12 c 1,25,-1
 360 -48 l 1,26,-1
 364 -48 l 2,27,28
 408 -48 408 -48 441 -66.5 c 128,-1,29
 474 -85 474 -85 474 -126 c 0,30,31
 474 -220 474 -220 339 -220 c 0,32,33
 298 -220 298 -220 247 -190 c 1,34,-1
 275 -140 l 1,35,36
 315 -162 315 -162 336.5 -162 c 128,-1,37
 358 -162 358 -162 369.5 -152.5 c 128,-1,38
 381 -143 381 -143 381 -129 c 0,39,40
 381 -100 381 -100 348 -100 c 2,41,-1
 301 -100 l 2,42,43
 282 -100 282 -100 282 -83 c 0,44,45
 282 -78 282 -78 285 -73 c 2,46,-1
 323 -8 l 1,47,0
 183 9 183 9 107.5 113 c 128,-1,1
EndSplineSet
EndChar

StartChar: Egrave
Encoding: 200 200 137
Width: 546
Flags: HMW
HStem: 0 99<204 511 204 511> 292 99<204 439 204 439> 575 99<204 511 204 204> 861 20G<110 255 255 255>
VStem: 66 138<99 292 391 575>
LayerCount: 2
Fore
SplineSet
66 613 m 1,0,-1
 52 674 l 1,1,-1
 511 674 l 1,2,-1
 511 575 l 1,3,-1
 204 575 l 1,4,-1
 204 391 l 1,5,-1
 439 391 l 1,6,-1
 439 292 l 1,7,-1
 204 292 l 1,8,-1
 204 99 l 1,9,-1
 511 99 l 1,10,-1
 511 0 l 1,11,-1
 66 0 l 1,12,-1
 66 613 l 1,0,-1
261 717 m 1,13,-1
 110 881 l 1,14,-1
 255 881 l 1,15,-1
 364 717 l 1,16,-1
 261 717 l 1,13,-1
EndSplineSet
EndChar

StartChar: Eacute
Encoding: 201 201 138
Width: 546
Flags: HMW
HStem: 0 99<204 511 204 511> 292 99<204 439 204 439> 575 99<204 511 204 204> 861 20G<324 470 470 470>
VStem: 66 138<99 292 391 575>
LayerCount: 2
Fore
SplineSet
66 613 m 1,0,-1
 52 674 l 1,1,-1
 511 674 l 1,2,-1
 511 575 l 1,3,-1
 204 575 l 1,4,-1
 204 391 l 1,5,-1
 439 391 l 1,6,-1
 439 292 l 1,7,-1
 204 292 l 1,8,-1
 204 99 l 1,9,-1
 511 99 l 1,10,-1
 511 0 l 1,11,-1
 66 0 l 1,12,-1
 66 613 l 1,0,-1
319 717 m 1,13,-1
 215 717 l 1,14,-1
 324 881 l 1,15,-1
 470 881 l 1,16,-1
 319 717 l 1,13,-1
EndSplineSet
EndChar

StartChar: Ecircumflex
Encoding: 202 202 139
Width: 546
Flags: HMW
HStem: 0 99<204 511 204 511> 292 99<204 439 204 439> 575 99<204 511 204 204> 842 20G<243 341 341 341>
VStem: 66 138<99 292 391 575>
LayerCount: 2
Fore
SplineSet
66 613 m 1,0,-1
 52 674 l 1,1,-1
 511 674 l 1,2,-1
 511 575 l 1,3,-1
 204 575 l 1,4,-1
 204 391 l 1,5,-1
 439 391 l 1,6,-1
 439 292 l 1,7,-1
 204 292 l 1,8,-1
 204 99 l 1,9,-1
 511 99 l 1,10,-1
 511 0 l 1,11,-1
 66 0 l 1,12,-1
 66 613 l 1,0,-1
223 717 m 1,13,-1
 147 717 l 1,14,-1
 243 862 l 1,15,-1
 341 862 l 1,16,-1
 440 717 l 1,17,-1
 362 717 l 1,18,-1
 292 791 l 1,19,-1
 223 717 l 1,13,-1
EndSplineSet
EndChar

StartChar: Edieresis
Encoding: 203 203 140
Width: 546
Flags: HMW
HStem: 0 99<204 511 204 511> 292 99<204 439 204 439> 575 99<204 511 204 204> 735 114<200 232 360 392>
VStem: 66 138<99 292 391 575> 159 114<776 807.5> 319 120
LayerCount: 2
Fore
SplineSet
66 613 m 1,0,-1
 52 674 l 1,1,-1
 511 674 l 1,2,-1
 511 575 l 1,3,-1
 204 575 l 1,4,-1
 204 391 l 1,5,-1
 439 391 l 1,6,-1
 439 292 l 1,7,-1
 204 292 l 1,8,-1
 204 99 l 1,9,-1
 511 99 l 1,10,-1
 511 0 l 1,11,-1
 66 0 l 1,12,-1
 66 613 l 1,0,-1
175.5 751.5 m 128,-1,14
 159 768 159 768 159 791.5 c 128,-1,15
 159 815 159 815 175.5 832 c 128,-1,16
 192 849 192 849 216 849 c 128,-1,17
 240 849 240 849 256.5 832 c 128,-1,18
 273 815 273 815 273 791.5 c 128,-1,19
 273 768 273 768 256.5 751.5 c 128,-1,20
 240 735 240 735 216 735 c 128,-1,13
 192 735 192 735 175.5 751.5 c 128,-1,14
335.5 751.5 m 128,-1,22
 319 768 319 768 319 791.5 c 128,-1,23
 319 815 319 815 335.5 832 c 128,-1,24
 352 849 352 849 376 849 c 128,-1,25
 400 849 400 849 417 832.5 c 128,-1,26
 434 816 434 816 434 792 c 128,-1,27
 434 768 434 768 417 751.5 c 128,-1,28
 400 735 400 735 376 735 c 128,-1,21
 352 735 352 735 335.5 751.5 c 128,-1,22
EndSplineSet
EndChar

StartChar: Igrave
Encoding: 204 204 141
Width: 270
Flags: HMW
HStem: 0 21G<66 204 66 66> 861 20G<-51 94 94 94>
VStem: 66 138<0 613 613 614.5>
LayerCount: 2
Fore
SplineSet
100 717 m 1,0,-1
 -51 881 l 1,1,-1
 94 881 l 1,2,-1
 203 717 l 1,3,-1
 100 717 l 1,0,-1
66 613 m 1,4,-1
 52 674 l 1,5,-1
 204 674 l 1,6,-1
 204 0 l 1,7,-1
 66 0 l 1,8,-1
 66 613 l 1,4,-1
EndSplineSet
EndChar

StartChar: Iacute
Encoding: 205 205 142
Width: 269
Flags: HMW
HStem: 0 21G<65 203 65 65> 861 20G<154 299 299 299>
VStem: 65 138<0 613 613 614.5>
LayerCount: 2
Fore
SplineSet
148 716 m 1,0,-1
 45 716 l 1,1,-1
 154 881 l 1,2,-1
 299 881 l 1,3,-1
 148 716 l 1,0,-1
65 613 m 1,4,-1
 51 674 l 1,5,-1
 203 674 l 1,6,-1
 203 0 l 1,7,-1
 65 0 l 1,8,-1
 65 613 l 1,4,-1
EndSplineSet
EndChar

StartChar: Icircumflex
Encoding: 206 206 143
Width: 278
Flags: HMW
HStem: 0 21G<65 203 65 65> 838 20G<83 181 181 181>
VStem: 65 138<0 613 613 614.5>
LayerCount: 2
Fore
SplineSet
63 714 m 1,0,-1
 -13 714 l 1,1,-1
 83 858 l 1,2,-1
 181 858 l 1,3,-1
 280 713 l 1,4,-1
 202 713 l 1,5,-1
 132 787 l 1,6,-1
 63 714 l 1,0,-1
65 613 m 1,7,-1
 51 674 l 1,8,-1
 203 674 l 1,9,-1
 203 0 l 1,10,-1
 65 0 l 1,11,-1
 65 613 l 1,7,-1
EndSplineSet
EndChar

StartChar: Idieresis
Encoding: 207 207 144
Width: 270
Flags: HMW
HStem: 0 21G<66 204 66 66> 735 114<37 69 197.5 229>
VStem: -4 114<776 807.5> 66 138<0 613 613 614.5> 156 115<776 807.5>
LayerCount: 2
Fore
SplineSet
12.5 751.5 m 128,-1,1
 -4 768 -4 768 -4 791.5 c 128,-1,2
 -4 815 -4 815 12.5 832 c 128,-1,3
 29 849 29 849 53 849 c 128,-1,4
 77 849 77 849 93.5 832 c 128,-1,5
 110 815 110 815 110 791.5 c 128,-1,6
 110 768 110 768 93.5 751.5 c 128,-1,7
 77 735 77 735 53 735 c 128,-1,0
 29 735 29 735 12.5 751.5 c 128,-1,1
66 613 m 1,8,-1
 52 674 l 1,9,-1
 204 674 l 1,10,-1
 204 0 l 1,11,-1
 66 0 l 1,12,-1
 66 613 l 1,8,-1
173 751.5 m 128,-1,14
 156 768 156 768 156 791.5 c 128,-1,15
 156 815 156 815 173 832 c 128,-1,16
 190 849 190 849 213.5 849 c 128,-1,17
 237 849 237 849 254 832.5 c 128,-1,18
 271 816 271 816 271 792 c 128,-1,19
 271 768 271 768 254 751.5 c 128,-1,20
 237 735 237 735 213.5 735 c 128,-1,13
 190 735 190 735 173 751.5 c 128,-1,14
EndSplineSet
EndChar

StartChar: Eth
Encoding: 208 208 145
Width: 729
Flags: HMW
HStem: 0 99<221 337 337 343> 324 88<0 83 0 83 221 371> 633 99<221 335 221 221>
VStem: 83 138<99 324 99 324 99 324 412 633> 548 148<315.5 428.5>
LayerCount: 2
Fore
SplineSet
83 324 m 1,0,-1
 0 324 l 1,1,-1
 0 412 l 1,2,-1
 83 412 l 1,3,-1
 83 672 l 1,4,5
 81 675 81 675 74.5 702.5 c 128,-1,6
 68 730 68 730 67 732 c 1,7,-1
 344 732 l 2,8,9
 510 732 510 732 603 632 c 128,-1,10
 696 532 696 532 696 364.5 c 128,-1,11
 696 197 696 197 597 98.5 c 128,-1,12
 498 0 498 0 343 0 c 2,13,-1
 83 0 l 1,14,-1
 83 324 l 1,0,-1
221 324 m 1,15,-1
 221 99 l 1,16,-1
 337 99 l 2,17,18
 392 99 392 99 434 120.5 c 128,-1,19
 476 142 476 142 500 179.5 c 0,20,21
 548 254.5 548 254.5 548 361 c 0,22,23
 548 517.868686869 548 517.868686869 458.5 592 c 0,24,25
 409 633 409 633 335 633 c 2,26,-1
 221 633 l 1,27,-1
 221 412 l 1,28,-1
 371 412 l 1,29,-1
 371 324 l 1,30,-1
 221 324 l 1,15,-1
EndSplineSet
EndChar

StartChar: Ntilde
Encoding: 209 209 146
Width: 716
Flags: HMW
HStem: -5 21G<550 650 550 550> 0 21G<66 177 66 66> 713 87<416 443.5 416 468> 753 47 753 87<295.5 323>
VStem: 66 111<0 439 0 613> 539 111<281 674 -5 674>
LayerCount: 2
Fore
SplineSet
66 613 m 1,0,-1
 52 674 l 1,1,-1
 199 674 l 1,2,-1
 504 270 l 2,3,4
 505 269 505 269 545 204 c 1,5,6
 539 254 539 254 539 281 c 2,7,-1
 539 674 l 1,8,-1
 650 674 l 1,9,-1
 650 -5 l 1,10,-1
 550 -5 l 1,11,-1
 213 439 l 2,12,13
 204 450 204 450 190 474 c 128,-1,14
 176 498 176 498 171 506 c 1,15,16
 177 460 177 460 177 439 c 2,17,-1
 177 0 l 1,18,-1
 66 0 l 1,19,-1
 66 613 l 1,0,-1
264 723 m 1,20,-1
 199 723 l 1,21,22
 199 773 199 773 227.5 806.5 c 128,-1,23
 256 840 256 840 305 840 c 0,24,25
 335 840 335 840 376.5 820 c 128,-1,26
 418 800 418 800 434 800 c 128,-1,27
 450 800 450 800 462.5 808 c 128,-1,28
 475 816 475 816 475 830 c 1,29,-1
 540 830 l 1,30,31
 540 780 540 780 511.5 746.5 c 128,-1,32
 483 713 483 713 434 713 c 0,33,34
 404 713 404 713 362.5 733 c 128,-1,35
 321 753 321 753 305 753 c 128,-1,36
 289 753 289 753 276.5 745 c 128,-1,37
 264 737 264 737 264 723 c 1,20,-1
EndSplineSet
EndChar

StartChar: Ograve
Encoding: 210 210 147
Width: 763
Flags: HMW
HStem: -12 96<307.5 453 307.5 487> 589 95<309 454> 861 20G<176 321 321 321>
VStem: 32 146<272.5 401 272.5 440.5> 584 147<272 401.5>
LayerCount: 2
Fore
SplineSet
32 336 m 128,-1,1
 32 493 32 493 127.5 588.5 c 128,-1,2
 223 684 223 684 381 684 c 128,-1,3
 539 684 539 684 635 588.5 c 128,-1,4
 731 493 731 493 731 336 c 128,-1,5
 731 179 731 179 635 83.5 c 128,-1,6
 539 -12 539 -12 381.5 -12 c 128,-1,7
 224 -12 224 -12 128 83.5 c 128,-1,0
 32 179 32 179 32 336 c 128,-1,1
327 717 m 1,8,-1
 176 881 l 1,9,-1
 321 881 l 1,10,-1
 430 717 l 1,11,-1
 327 717 l 1,8,-1
224.5 162.5 m 0,12,13
 248 126 248 126 288 105 c 128,-1,14
 328 84 328 84 380 84 c 0,15,16
 482 84 482 84 533 157 c 128,-1,17
 584 230 584 230 584 337 c 128,-1,18
 584 444 584 444 533.5 516.5 c 128,-1,19
 483 589 483 589 381.5 589 c 128,-1,20
 280 589 280 589 229 516 c 128,-1,21
 178 443 178 443 178 338.861702128 c 128,-1,22
 178 234.723404255 178 234.723404255 224.5 162.5 c 0,12,13
EndSplineSet
EndChar

StartChar: Oacute
Encoding: 211 211 148
Width: 763
Flags: HMW
HStem: -12 96<307.5 453 307.5 487> 589 95<309 454> 859 20G<438 583 583 583>
VStem: 32 146<272.5 401 272.5 440.5> 584 147<272 401.5>
LayerCount: 2
Fore
SplineSet
32 336 m 128,-1,1
 32 493 32 493 127.5 588.5 c 128,-1,2
 223 684 223 684 381 684 c 128,-1,3
 539 684 539 684 635 588.5 c 128,-1,4
 731 493 731 493 731 336 c 128,-1,5
 731 179 731 179 635 83.5 c 128,-1,6
 539 -12 539 -12 381.5 -12 c 128,-1,7
 224 -12 224 -12 128 83.5 c 128,-1,0
 32 179 32 179 32 336 c 128,-1,1
224.5 162.5 m 0,8,9
 248 126 248 126 288 105 c 128,-1,10
 328 84 328 84 380 84 c 0,11,12
 482 84 482 84 533 157 c 128,-1,13
 584 230 584 230 584 337 c 128,-1,14
 584 444 584 444 533.5 516.5 c 128,-1,15
 483 589 483 589 381.5 589 c 128,-1,16
 280 589 280 589 229 516 c 128,-1,17
 178 443 178 443 178 338.861702128 c 128,-1,18
 178 234.723404255 178 234.723404255 224.5 162.5 c 0,8,9
432 715 m 1,19,-1
 329 715 l 1,20,-1
 438 879 l 1,21,-1
 583 879 l 1,22,-1
 432 715 l 1,19,-1
EndSplineSet
EndChar

StartChar: Ocircumflex
Encoding: 212 212 149
Width: 763
Flags: HMW
HStem: -12 96<307.5 453 307.5 487> 589 95<309 454> 842 20G<329 427 427 427>
VStem: 32 146<272.5 401 272.5 440.5> 584 147<272 401.5>
LayerCount: 2
Fore
SplineSet
32 336 m 128,-1,1
 32 493 32 493 127.5 588.5 c 128,-1,2
 223 684 223 684 381 684 c 128,-1,3
 539 684 539 684 635 588.5 c 128,-1,4
 731 493 731 493 731 336 c 128,-1,5
 731 179 731 179 635 83.5 c 128,-1,6
 539 -12 539 -12 381.5 -12 c 128,-1,7
 224 -12 224 -12 128 83.5 c 128,-1,0
 32 179 32 179 32 336 c 128,-1,1
224.5 162.5 m 0,8,9
 248 126 248 126 288 105 c 128,-1,10
 328 84 328 84 380 84 c 0,11,12
 482 84 482 84 533 157 c 128,-1,13
 584 230 584 230 584 337 c 128,-1,14
 584 444 584 444 533.5 516.5 c 128,-1,15
 483 589 483 589 381.5 589 c 128,-1,16
 280 589 280 589 229 516 c 128,-1,17
 178 443 178 443 178 338.861702128 c 128,-1,18
 178 234.723404255 178 234.723404255 224.5 162.5 c 0,8,9
309 717 m 1,19,-1
 233 717 l 1,20,-1
 329 862 l 1,21,-1
 427 862 l 1,22,-1
 526 717 l 1,23,-1
 448 717 l 1,24,-1
 378 791 l 1,25,-1
 309 717 l 1,19,-1
EndSplineSet
EndChar

StartChar: Otilde
Encoding: 213 213 150
Width: 763
Flags: HMW
HStem: -12 96<307.5 453 307.5 487> 589 95<309 454> 713 87<436 463.5 436 488> 753 47 753 87<314.5 342.5>
VStem: 32 146<272.5 401 272.5 440.5> 584 147<272 401.5>
LayerCount: 2
Fore
SplineSet
32 336 m 128,-1,1
 32 493 32 493 127.5 588.5 c 128,-1,2
 223 684 223 684 381 684 c 128,-1,3
 539 684 539 684 635 588.5 c 128,-1,4
 731 493 731 493 731 336 c 128,-1,5
 731 179 731 179 635 83.5 c 128,-1,6
 539 -12 539 -12 381.5 -12 c 128,-1,7
 224 -12 224 -12 128 83.5 c 128,-1,0
 32 179 32 179 32 336 c 128,-1,1
224.5 162.5 m 0,8,9
 248 126 248 126 288 105 c 128,-1,10
 328 84 328 84 380 84 c 0,11,12
 482 84 482 84 533 157 c 128,-1,13
 584 230 584 230 584 337 c 128,-1,14
 584 444 584 444 533.5 516.5 c 128,-1,15
 483 589 483 589 381.5 589 c 128,-1,16
 280 589 280 589 229 516 c 128,-1,17
 178 443 178 443 178 338.861702128 c 128,-1,18
 178 234.723404255 178 234.723404255 224.5 162.5 c 0,8,9
283 723 m 1,19,-1
 218 723 l 1,20,21
 218 773 218 773 247 806.5 c 128,-1,22
 276 840 276 840 325 840 c 0,23,24
 355 840 355 840 396.5 820 c 128,-1,25
 438 800 438 800 454 800 c 128,-1,26
 470 800 470 800 482.5 808 c 128,-1,27
 495 816 495 816 495 830 c 1,28,-1
 560 830 l 1,29,30
 560 780 560 780 531.5 746.5 c 128,-1,31
 503 713 503 713 454 713 c 0,32,33
 424 713 424 713 382 733 c 128,-1,34
 340 753 340 753 324 753 c 128,-1,35
 308 753 308 753 295.5 745.5 c 128,-1,36
 283 738 283 738 283 723 c 1,19,-1
EndSplineSet
EndChar

StartChar: Odieresis
Encoding: 214 214 151
Width: 763
Flags: HMW
HStem: -12 96<307.5 453 307.5 487> 589 95<309 454> 735 114<281.5 313 441.5 473>
VStem: 32 146<272.5 401 272.5 440.5> 240 114<776 807.5> 400 115<776 807.5> 584 147<272 401.5>
LayerCount: 2
Fore
SplineSet
32 336 m 128,-1,1
 32 493 32 493 127.5 588.5 c 128,-1,2
 223 684 223 684 381 684 c 128,-1,3
 539 684 539 684 635 588.5 c 128,-1,4
 731 493 731 493 731 336 c 128,-1,5
 731 179 731 179 635 83.5 c 128,-1,6
 539 -12 539 -12 381.5 -12 c 128,-1,7
 224 -12 224 -12 128 83.5 c 128,-1,0
 32 179 32 179 32 336 c 128,-1,1
224.5 162.5 m 0,8,9
 248 126 248 126 288 105 c 128,-1,10
 328 84 328 84 380 84 c 0,11,12
 482 84 482 84 533 157 c 128,-1,13
 584 230 584 230 584 337 c 128,-1,14
 584 444 584 444 533.5 516.5 c 128,-1,15
 483 589 483 589 381.5 589 c 128,-1,16
 280 589 280 589 229 516 c 128,-1,17
 178 443 178 443 178 338.861702128 c 128,-1,18
 178 234.723404255 178 234.723404255 224.5 162.5 c 0,8,9
257 751.5 m 128,-1,20
 240 768 240 768 240 791.5 c 128,-1,21
 240 815 240 815 257 832 c 128,-1,22
 274 849 274 849 297.5 849 c 128,-1,23
 321 849 321 849 337.5 832 c 128,-1,24
 354 815 354 815 354 791.5 c 128,-1,25
 354 768 354 768 337.5 751.5 c 128,-1,26
 321 735 321 735 297.5 735 c 128,-1,19
 274 735 274 735 257 751.5 c 128,-1,20
417 751.5 m 128,-1,28
 400 768 400 768 400 791.5 c 128,-1,29
 400 815 400 815 417 832 c 128,-1,30
 434 849 434 849 457.5 849 c 128,-1,31
 481 849 481 849 498 832.5 c 128,-1,32
 515 816 515 816 515 792 c 128,-1,33
 515 768 515 768 498 751.5 c 128,-1,34
 481 735 481 735 457.5 735 c 128,-1,27
 434 735 434 735 417 751.5 c 128,-1,28
EndSplineSet
EndChar

StartChar: multiply
Encoding: 215 215 152
Width: 488
Flags: HMW
HStem: 42 21G<99 99 389 389> 435 20G<99 99 389 389>
LayerCount: 2
Fore
SplineSet
99 42 m 1,0,-1
 37 104 l 1,1,-1
 182 248 l 1,2,-1
 37 393 l 1,3,-1
 99 455 l 1,4,-1
 244 311 l 1,5,-1
 389 455 l 1,6,-1
 451 393 l 1,7,-1
 306 248 l 1,8,-1
 451 104 l 1,9,-1
 389 42 l 1,10,-1
 244 186 l 1,11,-1
 99 42 l 1,0,-1
EndSplineSet
EndChar

StartChar: Oslash
Encoding: 216 216 153
Width: 762
Flags: HMW
HStem: -56 21G<137 137> -11 95<358.5 458 358.5 487.5> 648 95<302.5 401.5> 757 20G<606 606>
VStem: 32 147<339 435.5 339 474> 582 148<295.5 395>
LayerCount: 2
Fore
SplineSet
32 367 m 0,0,1
 32 533 32 533 123.5 638 c 128,-1,2
 215 743 215 743 378 743 c 0,3,4
 478 743 478 743 557 702 c 1,5,-1
 606 777 l 1,6,-1
 659 744 l 1,7,-1
 608 667 l 1,8,9
 730 564 730 564 730 365 c 0,10,11
 730 200 730 200 634.5 94.5 c 128,-1,12
 539 -11 539 -11 377 -11 c 0,13,14
 276 -11 276 -11 196 35 c 1,15,-1
 137 -56 l 1,16,-1
 84 -25 l 1,17,-1
 147 72 l 1,18,19
 32 172 32 172 32 367 c 0,0,1
219 183 m 1,20,-1
 495 608 l 1,21,22
 448 648 448 648 386.5 648 c 128,-1,23
 325 648 325 648 284 623.5 c 128,-1,24
 243 599 243 599 221 557.5 c 0,25,26
 179 478.272727273 179 478.272727273 179 366.636363636 c 128,-1,27
 179 255 179 255 219 183 c 1,20,-1
537 558 m 1,28,-1
 258 131 l 1,29,30
 309 84 309 84 372.5 84 c 128,-1,31
 436 84 436 84 477 108.5 c 128,-1,32
 518 133 518 133 540 174 c 0,33,34
 582 252.272727273 582 252.272727273 582 367.136363636 c 128,-1,35
 582 482 582 482 537 558 c 1,28,-1
EndSplineSet
EndChar

StartChar: Ugrave
Encoding: 217 217 154
Width: 694
Flags: HMW
HStem: -11 95<312.5 411 312.5 430> 861 20G<168 313 313 313>
VStem: 59 141<278 614 614 614> 522 113<245 269 269 674>
LayerCount: 2
Fore
SplineSet
59 614 m 1,0,-1
 43 674 l 1,1,-1
 200 674 l 1,2,-1
 200 245 l 2,3,4
 200 171 200 171 244 127.5 c 128,-1,5
 288 84 288 84 362 84 c 0,6,7
 436 84 436 84 479 127 c 128,-1,8
 522 170 522 170 522 245 c 2,9,-1
 522 674 l 1,10,-1
 635 674 l 1,11,-1
 635 269 l 2,12,13
 635 125 635 125 557 57 c 128,-1,14
 479 -11 479 -11 343 -11 c 0,15,16
 207 -11 207 -11 133 63.5 c 128,-1,17
 59 138 59 138 59 278 c 2,18,-1
 59 614 l 1,0,-1
319 716 m 1,19,-1
 168 881 l 1,20,-1
 313 881 l 1,21,-1
 422 716 l 1,22,-1
 319 716 l 1,19,-1
EndSplineSet
EndChar

StartChar: Uacute
Encoding: 218 218 155
Width: 694
Flags: HMW
HStem: -11 95<312.5 411 312.5 430> 861 20G<421 567 567 567>
VStem: 59 141<278 614 614 614> 522 113<245 269 269 674>
LayerCount: 2
Fore
SplineSet
59 614 m 1,0,-1
 43 674 l 1,1,-1
 200 674 l 1,2,-1
 200 245 l 2,3,4
 200 171 200 171 244 127.5 c 128,-1,5
 288 84 288 84 362 84 c 0,6,7
 436 84 436 84 479 127 c 128,-1,8
 522 170 522 170 522 245 c 2,9,-1
 522 674 l 1,10,-1
 635 674 l 1,11,-1
 635 269 l 2,12,13
 635 125 635 125 557 57 c 128,-1,14
 479 -11 479 -11 343 -11 c 0,15,16
 207 -11 207 -11 133 63.5 c 128,-1,17
 59 138 59 138 59 278 c 2,18,-1
 59 614 l 1,0,-1
416 716 m 1,19,-1
 312 716 l 1,20,-1
 421 881 l 1,21,-1
 567 881 l 1,22,-1
 416 716 l 1,19,-1
EndSplineSet
EndChar

StartChar: Ucircumflex
Encoding: 219 219 156
Width: 694
Flags: HMW
HStem: -11 95<312.5 411 312.5 430> 843 20G<311 409 409 409>
VStem: 59 141<278 614 614 614> 522 113<245 269 269 674>
LayerCount: 2
Fore
SplineSet
59 614 m 1,0,-1
 43 674 l 1,1,-1
 200 674 l 1,2,-1
 200 245 l 2,3,4
 200 171 200 171 244 127.5 c 128,-1,5
 288 84 288 84 362 84 c 0,6,7
 436 84 436 84 479 127 c 128,-1,8
 522 170 522 170 522 245 c 2,9,-1
 522 674 l 1,10,-1
 635 674 l 1,11,-1
 635 269 l 2,12,13
 635 125 635 125 557 57 c 128,-1,14
 479 -11 479 -11 343 -11 c 0,15,16
 207 -11 207 -11 133 63.5 c 128,-1,17
 59 138 59 138 59 278 c 2,18,-1
 59 614 l 1,0,-1
291 718 m 1,19,-1
 215 718 l 1,20,-1
 311 863 l 1,21,-1
 409 863 l 1,22,-1
 508 718 l 1,23,-1
 430 718 l 1,24,-1
 360 792 l 1,25,-1
 291 718 l 1,19,-1
EndSplineSet
EndChar

StartChar: Udieresis
Encoding: 220 220 157
Width: 694
Flags: HMW
HStem: -11 95<312.5 411 312.5 430> 735 114<265 297 425.5 457>
VStem: 59 141<278 614 614 614> 224 114<776 807.5> 384 115<776 807.5> 522 113<245 269 269 674>
LayerCount: 2
Fore
SplineSet
59 614 m 1,0,-1
 43 674 l 1,1,-1
 200 674 l 1,2,-1
 200 245 l 2,3,4
 200 171 200 171 244 127.5 c 128,-1,5
 288 84 288 84 362 84 c 128,-1,6
 436 84 436 84 479 127 c 128,-1,7
 522 170 522 170 522 245 c 2,8,-1
 522 674 l 1,9,-1
 635 674 l 1,10,-1
 635 269 l 2,11,12
 635 125 635 125 557 57 c 128,-1,13
 479 -11 479 -11 343 -11 c 128,-1,14
 207 -11 207 -11 133 63.5 c 128,-1,15
 59 138 59 138 59 278 c 2,16,-1
 59 614 l 1,0,-1
240.5 751.5 m 128,-1,18
 224 768 224 768 224 791.5 c 128,-1,19
 224 815 224 815 240.5 832 c 128,-1,20
 257 849 257 849 281 849 c 128,-1,21
 305 849 305 849 321.5 832 c 128,-1,22
 338 815 338 815 338 791.5 c 128,-1,23
 338 768 338 768 321.5 751.5 c 128,-1,24
 305 735 305 735 281 735 c 128,-1,17
 257 735 257 735 240.5 751.5 c 128,-1,18
401 751.5 m 128,-1,26
 384 768 384 768 384 791.5 c 128,-1,27
 384 815 384 815 401 832 c 128,-1,28
 418 849 418 849 441.5 849 c 128,-1,29
 465 849 465 849 482 832.5 c 128,-1,30
 499 816 499 816 499 792 c 128,-1,31
 499 768 499 768 482 751.5 c 128,-1,32
 465 735 465 735 441.5 735 c 128,-1,25
 418 735 418 735 401 751.5 c 128,-1,26
EndSplineSet
EndChar

StartChar: Yacute
Encoding: 221 221 158
Width: 563
Flags: HMW
HStem: 0 21G<214 347 214 214> 861 20G<357 502 502 502>
VStem: 214 133<0 274 0 274>
LayerCount: 2
Fore
SplineSet
214 274 m 1,0,-1
 0 674 l 1,1,-1
 148 674 l 1,2,-1
 294 401 l 1,3,-1
 444 674 l 1,4,-1
 564 674 l 1,5,-1
 347 274 l 1,6,-1
 347 0 l 1,7,-1
 214 0 l 1,8,-1
 214 274 l 1,0,-1
351 716 m 1,9,-1
 248 716 l 1,10,-1
 357 881 l 1,11,-1
 502 881 l 1,12,-1
 351 716 l 1,9,-1
EndSplineSet
EndChar

StartChar: Thorn
Encoding: 222 222 159
Width: 565
Flags: HMW
HStem: 0 21G<65 202 65 65> 179 97<203 284 202 287> 518 99<203 282 204 282 282 288> 712 20G<52 204 204 204>
VStem: 65 137<0 179 0 671> 402 146<362 434.5>
LayerCount: 2
Fore
SplineSet
65 671 m 1,0,-1
 52 732 l 1,1,-1
 204 732 l 1,2,-1
 204 617 l 1,3,-1
 282 617 l 2,4,5
 402 617 402 617 475 565.5 c 128,-1,6
 548 514 548 514 548 402 c 128,-1,7
 548 290 548 290 471.5 234.5 c 128,-1,8
 395 179 395 179 284 179 c 2,9,-1
 202 179 l 1,10,-1
 202 0 l 1,11,-1
 65 0 l 1,12,-1
 65 671 l 1,0,-1
203 518 m 1,13,-1
 203 276 l 1,14,-1
 287 276 l 2,15,16
 342 276 342 276 372 309.5 c 128,-1,17
 402 343 402 343 402 398.5 c 128,-1,18
 402 454 402 454 373 486 c 128,-1,19
 344 518 344 518 288 518 c 2,20,-1
 203 518 l 1,13,-1
EndSplineSet
EndChar

StartChar: germandbls
Encoding: 223 223 160
Width: 608
Flags: HMW
HStem: -11 90<344.5 379 341.5 427> 0 21G<87 210 87 87> 482 20G<12 25.5> 648 97<271 337>
VStem: 12 198<416 465 0 502 0 502> 87 123<0 416 416 416> 249 138<384 428.5 384 435> 389 134<524 598.5> 450 134<146 193.5>
LayerCount: 2
Fore
SplineSet
87 416 m 1,0,-1
 12 416 l 1,1,-1
 12 502 l 1,2,3
 86 502 86 502 94 539 c 0,4,5
 140 745 140 745 318 745 c 0,6,7
 405 745 405 745 464 702 c 128,-1,8
 523 659 523 659 523 575 c 0,9,10
 523 530 523 530 501.5 499.5 c 128,-1,11
 480 469 480 469 455 457.5 c 128,-1,12
 430 446 430 446 408.5 433 c 128,-1,13
 387 420 387 420 387 408 c 128,-1,14
 387 396 387 396 401.5 387 c 128,-1,15
 416 378 416 378 438 370.5 c 128,-1,16
 460 363 460 363 485.5 348.5 c 128,-1,17
 511 334 511 334 533 315.5 c 128,-1,18
 555 297 555 297 569.5 264 c 128,-1,19
 584 231 584 231 584 189 c 0,20,21
 584 98 584 98 522 43.5 c 128,-1,22
 460 -11 460 -11 367 -11 c 0,23,24
 302 -11 302 -11 237 19 c 1,25,-1
 276 96 l 1,26,27
 323 79 323 79 357 79 c 128,-1,28
 391 79 391 79 420.5 106.5 c 128,-1,29
 450 134 450 134 450 170.5 c 128,-1,30
 450 207 450 207 439 230 c 128,-1,31
 428 253 428 253 397 270 c 0,32,33
 389 274 389 274 356.5 289 c 128,-1,34
 324 304 324 304 304.5 314 c 128,-1,35
 285 324 285 324 267 343.5 c 128,-1,36
 249 363 249 363 249 387.5 c 128,-1,37
 249 412 249 412 263.5 432.5 c 128,-1,38
 278 453 278 453 298.5 465.5 c 128,-1,39
 319 478 319 478 339.5 491.5 c 0,40,41
 389 524.097560976 389 524.097560976 389 580 c 0,42,43
 389 607 389 607 367.5 627.5 c 128,-1,44
 346 648 346 648 319 648 c 0,45,46
 210 648 210 648 210 465 c 2,47,-1
 210 0 l 1,48,-1
 87 0 l 1,49,-1
 87 416 l 1,0,-1
EndSplineSet
EndChar

StartChar: agrave
Encoding: 224 224 161
Width: 487
Flags: HMW
HStem: -11 92<189 192.5> -8 21G<369.5 409.5> 209 82<263 291> 426 83<208 244.5> 735 20G<46 191 191 191>
VStem: 20 125<113.5 166.5 113.5 189> 291 120<186 209 209 209 291 347>
LayerCount: 2
Fore
SplineSet
60 23 m 128,-1,1
 20 57 20 57 20 112.5 c 128,-1,2
 20 168 20 168 45 204.5 c 128,-1,3
 70 241 70 241 113 258.5 c 0,4,5
 192.857142857 291 192.857142857 291 291 291 c 1,6,-1
 291 356 l 2,7,8
 291 395 291 395 274.5 410.5 c 128,-1,9
 258 426 258 426 219 426 c 0,10,11
 166 426 166 426 91 368 c 1,12,-1
 42 447 l 1,13,14
 133 509 133 509 244 509 c 0,15,16
 325 509 325 509 368 468 c 128,-1,17
 411 427 411 427 411 347 c 2,18,-1
 411 130 l 2,19,20
 411 80 411 80 435 80 c 0,21,22
 440 80 440 80 485 92 c 1,23,-1
 506 19 l 1,24,25
 418 -8 418 -8 389 -8 c 128,-1,26
 360 -8 360 -8 339 10.5 c 128,-1,27
 318 29 318 29 311 59 c 1,28,29
 261 -11 261 -11 161 -11 c 0,30,0
 100 -11 100 -11 60 23 c 128,-1,1
197 590 m 1,31,-1
 46 755 l 1,32,-1
 191 755 l 1,33,-1
 300 590 l 1,34,-1
 197 590 l 1,31,-1
145 129 m 0,35,36
 145 107 145 107 162.5 94 c 128,-1,37
 180 81 180 81 203 81 c 0,38,39
 242 81 242 81 266.5 113.5 c 128,-1,40
 291 146 291 146 291 186 c 2,41,-1
 291 209 l 1,42,43
 145 209 145 209 145 129 c 0,35,36
EndSplineSet
EndChar

StartChar: aacute
Encoding: 225 225 162
Width: 487
Flags: HMW
HStem: -11 92<189 192.5> -8 21G<369.5 409.5> 209 82<263 291> 426 83<208 244.5> 735 20G<301 446 446 446>
VStem: 20 125<113.5 166.5 113.5 189> 291 120<186 209 209 209 291 347>
LayerCount: 2
Fore
SplineSet
60 23 m 128,-1,1
 20 57 20 57 20 112.5 c 128,-1,2
 20 168 20 168 45 204.5 c 128,-1,3
 70 241 70 241 113 258.5 c 0,4,5
 192.857142857 291 192.857142857 291 291 291 c 1,6,-1
 291 356 l 2,7,8
 291 395 291 395 274.5 410.5 c 128,-1,9
 258 426 258 426 219 426 c 0,10,11
 166 426 166 426 91 368 c 1,12,-1
 42 447 l 1,13,14
 133 509 133 509 244 509 c 0,15,16
 325 509 325 509 368 468 c 128,-1,17
 411 427 411 427 411 347 c 2,18,-1
 411 130 l 2,19,20
 411 80 411 80 435 80 c 0,21,22
 440 80 440 80 485 92 c 1,23,-1
 506 19 l 1,24,25
 418 -8 418 -8 389 -8 c 128,-1,26
 360 -8 360 -8 339 10.5 c 128,-1,27
 318 29 318 29 311 59 c 1,28,29
 261 -11 261 -11 161 -11 c 0,30,0
 100 -11 100 -11 60 23 c 128,-1,1
145 129 m 0,31,32
 145 107 145 107 162.5 94 c 128,-1,33
 180 81 180 81 203 81 c 0,34,35
 242 81 242 81 266.5 113.5 c 128,-1,36
 291 146 291 146 291 186 c 2,37,-1
 291 209 l 1,38,39
 145 209 145 209 145 129 c 0,31,32
295 590 m 1,40,-1
 192 590 l 1,41,-1
 301 755 l 1,42,-1
 446 755 l 1,43,-1
 295 590 l 1,40,-1
EndSplineSet
EndChar

StartChar: acircumflex
Encoding: 226 226 163
Width: 487
Flags: HMW
HStem: -11 92<189 192.5> -8 21G<369.5 409.5> 209 82<263 291> 426 83<208 244.5> 713 20G<193 291 291 291>
VStem: 20 125<113.5 166.5 113.5 189> 291 120<186 209 209 209 291 347>
LayerCount: 2
Fore
SplineSet
60 23 m 128,-1,1
 20 57 20 57 20 112.5 c 128,-1,2
 20 168 20 168 45 204.5 c 128,-1,3
 70 241 70 241 113 258.5 c 0,4,5
 192.857142857 291 192.857142857 291 291 291 c 1,6,-1
 291 356 l 2,7,8
 291 395 291 395 274.5 410.5 c 128,-1,9
 258 426 258 426 219 426 c 0,10,11
 166 426 166 426 91 368 c 1,12,-1
 42 447 l 1,13,14
 133 509 133 509 244 509 c 0,15,16
 325 509 325 509 368 468 c 128,-1,17
 411 427 411 427 411 347 c 2,18,-1
 411 130 l 2,19,20
 411 80 411 80 435 80 c 0,21,22
 440 80 440 80 485 92 c 1,23,-1
 506 19 l 1,24,25
 418 -8 418 -8 389 -8 c 128,-1,26
 360 -8 360 -8 339 10.5 c 128,-1,27
 318 29 318 29 311 59 c 1,28,29
 261 -11 261 -11 161 -11 c 0,30,0
 100 -11 100 -11 60 23 c 128,-1,1
173 588 m 1,31,-1
 97 588 l 1,32,-1
 193 733 l 1,33,-1
 291 733 l 1,34,-1
 390 588 l 1,35,-1
 312 588 l 1,36,-1
 242 662 l 1,37,-1
 173 588 l 1,31,-1
145 129 m 0,38,39
 145 107 145 107 162.5 94 c 128,-1,40
 180 81 180 81 203 81 c 0,41,42
 242 81 242 81 266.5 113.5 c 128,-1,43
 291 146 291 146 291 186 c 2,44,-1
 291 209 l 1,45,46
 145 209 145 209 145 129 c 0,38,39
EndSplineSet
EndChar

StartChar: atilde
Encoding: 227 227 164
Width: 487
Flags: HMW
HStem: -11 92<189 192.5> -8 21G<369.5 409.5> 209 82<263 291> 426 83<208 244.5> 565 87<290 317.5 290 342> 605 47 605 87<169.5 197>
VStem: 20 125<113.5 166.5 113.5 189> 73 72 291 120<186 209 209 209 291 347>
LayerCount: 2
Fore
SplineSet
60 23 m 128,-1,1
 20 57 20 57 20 112.5 c 128,-1,2
 20 168 20 168 45 204.5 c 128,-1,3
 70 241 70 241 113 258.5 c 0,4,5
 192.857142857 291 192.857142857 291 291 291 c 1,6,-1
 291 356 l 2,7,8
 291 395 291 395 274.5 410.5 c 128,-1,9
 258 426 258 426 219 426 c 0,10,11
 166 426 166 426 91 368 c 1,12,-1
 42 447 l 1,13,14
 133 509 133 509 244 509 c 0,15,16
 325 509 325 509 368 468 c 128,-1,17
 411 427 411 427 411 347 c 2,18,-1
 411 130 l 2,19,20
 411 80 411 80 435 80 c 0,21,22
 440 80 440 80 485 92 c 1,23,-1
 506 19 l 1,24,25
 418 -8 418 -8 389 -8 c 128,-1,26
 360 -8 360 -8 339 10.5 c 128,-1,27
 318 29 318 29 311 59 c 1,28,29
 261 -11 261 -11 161 -11 c 0,30,0
 100 -11 100 -11 60 23 c 128,-1,1
138 575 m 1,31,-1
 73 575 l 1,32,33
 73 625 73 625 101.5 658.5 c 128,-1,34
 130 692 130 692 179 692 c 0,35,36
 209 692 209 692 250.5 672 c 128,-1,37
 292 652 292 652 308 652 c 128,-1,38
 324 652 324 652 336.5 660 c 128,-1,39
 349 668 349 668 350 682 c 1,40,-1
 414 682 l 1,41,42
 414 632 414 632 385.5 598.5 c 128,-1,43
 357 565 357 565 308 565 c 0,44,45
 278 565 278 565 236.5 585 c 128,-1,46
 195 605 195 605 179 605 c 128,-1,47
 163 605 163 605 150.5 597 c 128,-1,48
 138 589 138 589 138 575 c 1,31,-1
145 129 m 0,49,50
 145 107 145 107 162.5 94 c 128,-1,51
 180 81 180 81 203 81 c 0,52,53
 242 81 242 81 266.5 113.5 c 128,-1,54
 291 146 291 146 291 186 c 2,55,-1
 291 209 l 1,56,57
 145 209 145 209 145 129 c 0,49,50
EndSplineSet
EndChar

StartChar: adieresis
Encoding: 228 228 165
Width: 487
Flags: HMW
HStem: -11 92<189 192.5> -8 21G<369.5 409.5> 209 82<263 291> 426 83<208 244.5> 573 114<142 174 302.5 334>
VStem: 20 125<113.5 166.5 113.5 189> 101 114<614 646> 261 115<614.5 645.5> 291 120<186 209 209 209 291 347>
LayerCount: 2
Fore
SplineSet
60 23 m 128,-1,1
 20 57 20 57 20 112.5 c 128,-1,2
 20 168 20 168 45 204.5 c 128,-1,3
 70 241 70 241 113 258.5 c 0,4,5
 192.857142857 291 192.857142857 291 291 291 c 1,6,-1
 291 356 l 2,7,8
 291 395 291 395 274.5 410.5 c 128,-1,9
 258 426 258 426 219 426 c 0,10,11
 166 426 166 426 91 368 c 1,12,-1
 42 447 l 1,13,14
 133 509 133 509 244 509 c 0,15,16
 325 509 325 509 368 468 c 128,-1,17
 411 427 411 427 411 347 c 2,18,-1
 411 130 l 2,19,20
 411 80 411 80 435 80 c 0,21,22
 440 80 440 80 485 92 c 1,23,-1
 506 19 l 1,24,25
 418 -8 418 -8 389 -8 c 128,-1,26
 360 -8 360 -8 339 10.5 c 128,-1,27
 318 29 318 29 311 59 c 1,28,29
 261 -11 261 -11 161 -11 c 0,30,0
 100 -11 100 -11 60 23 c 128,-1,1
101 630 m 128,-1,32
 101 654 101 654 117.5 670.5 c 128,-1,33
 134 687 134 687 158 687 c 128,-1,34
 182 687 182 687 198.5 670.5 c 128,-1,35
 215 654 215 654 215 630 c 128,-1,36
 215 606 215 606 198.5 589.5 c 128,-1,37
 182 573 182 573 158 573 c 128,-1,38
 134 573 134 573 117.5 589.5 c 128,-1,31
 101 606 101 606 101 630 c 128,-1,32
145 129 m 0,39,40
 145 107 145 107 162.5 94 c 128,-1,41
 180 81 180 81 203 81 c 0,42,43
 242 81 242 81 266.5 113.5 c 128,-1,44
 291 146 291 146 291 186 c 2,45,-1
 291 209 l 1,46,47
 145 209 145 209 145 129 c 0,39,40
261 630 m 128,-1,49
 261 653 261 653 278 670 c 128,-1,50
 295 687 295 687 318.5 687 c 128,-1,51
 342 687 342 687 359 670.5 c 128,-1,52
 376 654 376 654 376 630 c 128,-1,53
 376 606 376 606 359 589.5 c 128,-1,54
 342 573 342 573 318.5 573 c 128,-1,55
 295 573 295 573 278 590 c 128,-1,48
 261 607 261 607 261 630 c 128,-1,49
EndSplineSet
EndChar

StartChar: aring
Encoding: 229 229 166
Width: 487
Flags: HMW
HStem: -11 92<189 192.5> -8 21G<369.5 409.5> 209 82<263 291> 426 83<208 244.5> 551 66<227.5 250.5 227.5 269.5> 698 67<227.5 250.5>
VStem: 20 125<113.5 166.5 113.5 189> 133 66<645.5 668.5 645.5 687.5> 291 57 291 120<186 209 209 209 291 347>
LayerCount: 2
Fore
SplineSet
60 23 m 128,-1,1
 20 57 20 57 20 112.5 c 128,-1,2
 20 168 20 168 45 204.5 c 128,-1,3
 70 241 70 241 113 258.5 c 0,4,5
 192.857142857 291 192.857142857 291 291 291 c 1,6,-1
 291 356 l 2,7,8
 291 395 291 395 274.5 410.5 c 128,-1,9
 258 426 258 426 219 426 c 0,10,11
 166 426 166 426 91 368 c 1,12,-1
 42 447 l 1,13,14
 133 509 133 509 244 509 c 0,15,16
 325 509 325 509 368 468 c 128,-1,17
 411 427 411 427 411 347 c 2,18,-1
 411 130 l 2,19,20
 411 80 411 80 435 80 c 0,21,22
 440 80 440 80 485 92 c 1,23,-1
 506 19 l 1,24,25
 418 -8 418 -8 389 -8 c 128,-1,26
 360 -8 360 -8 339 10.5 c 128,-1,27
 318 29 318 29 311 59 c 1,28,29
 261 -11 261 -11 161 -11 c 0,30,0
 100 -11 100 -11 60 23 c 128,-1,1
133 658 m 128,-1,32
 133 702 133 702 164.5 733.5 c 128,-1,33
 196 765 196 765 240 765 c 128,-1,34
 284 765 284 765 316 733.5 c 128,-1,35
 348 702 348 702 348 658 c 128,-1,36
 348 614 348 614 316 582.5 c 128,-1,37
 284 551 284 551 240 551 c 128,-1,38
 196 551 196 551 164.5 582.5 c 128,-1,31
 133 614 133 614 133 658 c 128,-1,32
145 129 m 0,39,40
 145 107 145 107 162.5 94 c 128,-1,41
 180 81 180 81 203 81 c 0,42,43
 242 81 242 81 266.5 113.5 c 128,-1,44
 291 146 291 146 291 186 c 2,45,-1
 291 209 l 1,46,47
 145 209 145 209 145 129 c 0,39,40
199 657 m 128,-1,49
 199 640 199 640 210.5 628.5 c 128,-1,50
 222 617 222 617 239 617 c 128,-1,51
 256 617 256 617 268 628.5 c 128,-1,52
 280 640 280 640 280 657 c 128,-1,53
 280 674 280 674 268 686 c 128,-1,54
 256 698 256 698 239 698 c 128,-1,55
 222 698 222 698 210.5 686 c 128,-1,48
 199 674 199 674 199 657 c 128,-1,49
EndSplineSet
EndChar

StartChar: ae
Encoding: 230 230 167
Width: 751
Flags: HMW
HStem: -11 80<501.5 564.5 501.5 564.5> -11 92<186.5 198.5> 223 79<263 291 417 585 585 592.5> 426 85 489 20G<208 269.5>
VStem: 20 125<116 171 116 197> 291 123<193.5 223 185.5 356> 601 126<317.5 349 265 351>
LayerCount: 2
Fore
SplineSet
61 27 m 128,-1,1
 20 65 20 65 20 120.5 c 128,-1,2
 20 176 20 176 45 213 c 128,-1,3
 70 250 70 250 112.5 268.5 c 0,4,5
 189.459459459 302 189.459459459 302 291 302 c 1,6,-1
 291 356 l 2,7,8
 291 395 291 395 274.5 410.5 c 128,-1,9
 258 426 258 426 219 426 c 0,10,11
 166 426 166 426 91 368 c 1,12,-1
 42 447 l 1,13,14
 133 509 133 509 235.5 509 c 128,-1,15
 338 509 338 509 377 456 c 1,16,17
 402 482 402 482 441.5 496.5 c 128,-1,18
 481 511 481 511 520 511 c 0,19,20
 621 511 621 511 674 448.5 c 128,-1,21
 727 386 727 386 727 283 c 0,22,23
 727 223 727 223 676 223 c 2,24,-1
 414 223 l 1,25,26
 414 162 414 162 449 115.5 c 128,-1,27
 484 69 484 69 547.5 69 c 128,-1,28
 611 69 611 69 664 122 c 1,29,-1
 715 42 l 1,30,31
 684 16 684 16 633.5 2.5 c 128,-1,32
 583 -11 583 -11 537 -11 c 0,33,34
 405 -11 405 -11 342 73 c 1,35,36
 284 -11 284 -11 161 -11 c 0,37,0
 102 -11 102 -11 61 27 c 128,-1,1
204 81 m 0,38,39
 291 81 291 81 291 223 c 1,40,41
 243.117647059 223 243.117647059 223 208.558823529 210.5 c 0,42,43
 145 187.510638298 145 187.510638298 145 134.255319149 c 128,-1,44
 145 81 145 81 204 81 c 0,38,39
417 302 m 1,45,-1
 585 302 l 2,46,47
 601 302 601 302 601 324 c 0,48,49
 601 428 601 428 522 428 c 0,50,51
 477 428 477 428 447 388 c 128,-1,52
 417 348 417 348 417 302 c 1,45,-1
EndSplineSet
EndChar

StartChar: ccedilla
Encoding: 231 231 168
Width: 452
Flags: HMW
HStem: -220 58<222.5 241.5 222.5 257> -100 52<190 253> -12 84<269 304> 425 85<230 294.5>
VStem: 27 132<210 285.5 210 326.5> 270 93<-138.5 -119.5>
LayerCount: 2
Fore
SplineSet
75 79 m 128,-1,1
 27 147 27 147 27 256.5 c 128,-1,2
 27 366 27 366 97.5 438 c 128,-1,3
 168 510 168 510 284 510 c 0,4,5
 321 510 321 510 363 497 c 128,-1,6
 405 484 405 484 435 462 c 1,7,-1
 375 386 l 1,8,9
 323 425 323 425 269 425 c 128,-1,10
 215 425 215 425 187 370 c 128,-1,11
 159 315 159 315 159 260.5 c 128,-1,12
 159 206 159 206 170.5 167.5 c 128,-1,13
 182 129 182 129 212 100.5 c 128,-1,14
 242 72 242 72 289 72 c 128,-1,15
 336 72 336 72 392 121 c 1,16,-1
 443 35 l 1,17,18
 355 -12 355 -12 269 -12 c 1,19,-1
 249 -48 l 1,20,-1
 253 -48 l 2,21,22
 297 -48 297 -48 330 -66.5 c 128,-1,23
 363 -85 363 -85 363 -126 c 0,24,25
 363 -220 363 -220 228 -220 c 0,26,27
 187 -220 187 -220 136 -190 c 1,28,-1
 164 -140 l 1,29,30
 204 -162 204 -162 225.5 -162 c 128,-1,31
 247 -162 247 -162 258.5 -152.5 c 128,-1,32
 270 -143 270 -143 270 -129 c 0,33,34
 270 -100 270 -100 237 -100 c 2,35,-1
 190 -100 l 2,36,37
 171 -100 171 -100 171 -83 c 0,38,39
 171 -78 171 -78 174 -73 c 2,40,-1
 213 -7 l 1,41,0
 123 11 123 11 75 79 c 128,-1,1
EndSplineSet
EndChar

StartChar: egrave
Encoding: 232 232 169
Width: 491
Flags: HMW
HStem: -11 80<239 304.5 239 305> 234 79<157 325 325 332.5 157 416 154 325> 429 82<233 289> 735 20G<66 212 212 212>
VStem: 27 127<196 234 196 315> 342 125<328.5 359.5 276.5 360.5>
LayerCount: 2
Fore
SplineSet
94 58.5 m 128,-1,1
 27 128 27 128 27 242 c 128,-1,2
 27 356 27 356 90 433.5 c 128,-1,3
 153 511 153 511 255.5 511 c 128,-1,4
 358 511 358 511 412.5 452.5 c 128,-1,5
 467 394 467 394 467 294 c 0,6,7
 467 234 467 234 416 234 c 2,8,-1
 154 234 l 1,9,10
 154 170 154 170 188 119.5 c 128,-1,11
 222 69 222 69 286.5 69 c 128,-1,12
 351 69 351 69 404 122 c 1,13,-1
 455 42 l 1,14,15
 423 16 423 16 373 2.5 c 128,-1,16
 323 -11 323 -11 277 -11 c 0,17,0
 161 -11 161 -11 94 58.5 c 128,-1,1
217 590 m 1,18,-1
 66 755 l 1,19,-1
 212 755 l 1,20,-1
 321 590 l 1,21,-1
 217 590 l 1,18,-1
157 313 m 1,22,-1
 325 313 l 2,23,24
 342 313 342 313 342 335 c 0,25,26
 342 376 342 376 321.5 402.5 c 128,-1,27
 301 429 301 429 261 429 c 128,-1,28
 221 429 221 429 190 392 c 128,-1,29
 159 355 159 355 157 313 c 1,22,-1
EndSplineSet
EndChar

StartChar: eacute
Encoding: 233 233 170
Width: 491
Flags: HMW
HStem: -11 80<239 304.5 239 305> 234 79<157 325 325 332.5 157 416 154 325> 429 82<233 289> 735 20G<329 474 474 474>
VStem: 27 127<196 234 196 315> 342 125<328.5 359.5 276.5 360.5>
LayerCount: 2
Fore
SplineSet
94 58.5 m 128,-1,1
 27 128 27 128 27 242 c 128,-1,2
 27 356 27 356 90 433.5 c 128,-1,3
 153 511 153 511 255.5 511 c 128,-1,4
 358 511 358 511 412.5 452.5 c 128,-1,5
 467 394 467 394 467 294 c 0,6,7
 467 234 467 234 416 234 c 2,8,-1
 154 234 l 1,9,10
 154 170 154 170 188 119.5 c 128,-1,11
 222 69 222 69 286.5 69 c 128,-1,12
 351 69 351 69 404 122 c 1,13,-1
 455 42 l 1,14,15
 423 16 423 16 373 2.5 c 128,-1,16
 323 -11 323 -11 277 -11 c 0,17,0
 161 -11 161 -11 94 58.5 c 128,-1,1
157 313 m 1,18,-1
 325 313 l 2,19,20
 342 313 342 313 342 335 c 0,21,22
 342 376 342 376 321.5 402.5 c 128,-1,23
 301 429 301 429 261 429 c 128,-1,24
 221 429 221 429 190 392 c 128,-1,25
 159 355 159 355 157 313 c 1,18,-1
323 590 m 1,26,-1
 220 590 l 1,27,-1
 329 755 l 1,28,-1
 474 755 l 1,29,-1
 323 590 l 1,26,-1
EndSplineSet
EndChar

StartChar: ecircumflex
Encoding: 234 234 171
Width: 491
Flags: HMW
HStem: -11 80<239 304.5 239 305> 234 79<157 325 325 332.5 157 416 154 325> 429 82<233 289> 713 20G<223 321 321 321>
VStem: 27 127<196 234 196 315> 342 125<328.5 359.5 276.5 360.5>
LayerCount: 2
Fore
SplineSet
94 58.5 m 128,-1,1
 27 128 27 128 27 242 c 128,-1,2
 27 356 27 356 90 433.5 c 128,-1,3
 153 511 153 511 255.5 511 c 128,-1,4
 358 511 358 511 412.5 452.5 c 128,-1,5
 467 394 467 394 467 294 c 0,6,7
 467 234 467 234 416 234 c 2,8,-1
 154 234 l 1,9,10
 154 170 154 170 188 119.5 c 128,-1,11
 222 69 222 69 286.5 69 c 128,-1,12
 351 69 351 69 404 122 c 1,13,-1
 455 42 l 1,14,15
 423 16 423 16 373 2.5 c 128,-1,16
 323 -11 323 -11 277 -11 c 0,17,0
 161 -11 161 -11 94 58.5 c 128,-1,1
203 589 m 1,18,-1
 127 589 l 1,19,-1
 223 733 l 1,20,-1
 321 733 l 1,21,-1
 420 588 l 1,22,-1
 342 588 l 1,23,-1
 272 662 l 1,24,-1
 203 589 l 1,18,-1
157 313 m 1,25,-1
 325 313 l 2,26,27
 342 313 342 313 342 335 c 0,28,29
 342 376 342 376 321.5 402.5 c 128,-1,30
 301 429 301 429 261 429 c 128,-1,31
 221 429 221 429 190 392 c 128,-1,32
 159 355 159 355 157 313 c 1,25,-1
EndSplineSet
EndChar

StartChar: edieresis
Encoding: 235 235 172
Width: 491
Flags: HMW
HStem: -11 80<239 304.5 239 305> 234 79<157 325 325 332.5 157 416 154 325> 429 82<233 289> 572 114<170.5 202 330.5 362>
VStem: 27 127<196 234 196 315> 129 114<613 645> 289 115<613.5 644.5> 342 125<328.5 359.5 276.5 360.5>
LayerCount: 2
Fore
SplineSet
94 58.5 m 128,-1,1
 27 128 27 128 27 242 c 128,-1,2
 27 356 27 356 90 433.5 c 128,-1,3
 153 511 153 511 255.5 511 c 128,-1,4
 358 511 358 511 412.5 452.5 c 128,-1,5
 467 394 467 394 467 294 c 0,6,7
 467 234 467 234 416 234 c 2,8,-1
 154 234 l 1,9,10
 154 170 154 170 188 119.5 c 128,-1,11
 222 69 222 69 286.5 69 c 128,-1,12
 351 69 351 69 404 122 c 1,13,-1
 455 42 l 1,14,15
 423 16 423 16 373 2.5 c 128,-1,16
 323 -11 323 -11 277 -11 c 0,17,0
 161 -11 161 -11 94 58.5 c 128,-1,1
129 629 m 128,-1,19
 129 653 129 653 146 669.5 c 128,-1,20
 163 686 163 686 186.5 686 c 128,-1,21
 210 686 210 686 226.5 669.5 c 128,-1,22
 243 653 243 653 243 629 c 128,-1,23
 243 605 243 605 226.5 588.5 c 128,-1,24
 210 572 210 572 186.5 572 c 128,-1,25
 163 572 163 572 146 588.5 c 128,-1,18
 129 605 129 605 129 629 c 128,-1,19
157 313 m 1,26,-1
 325 313 l 2,27,28
 342 313 342 313 342 335 c 0,29,30
 342 376 342 376 321.5 402.5 c 128,-1,31
 301 429 301 429 261 429 c 128,-1,32
 221 429 221 429 190 392 c 128,-1,33
 159 355 159 355 157 313 c 1,26,-1
289 629 m 128,-1,35
 289 652 289 652 306 669 c 128,-1,36
 323 686 323 686 346.5 686 c 128,-1,37
 370 686 370 686 387 669.5 c 128,-1,38
 404 653 404 653 404 629 c 128,-1,39
 404 605 404 605 387 588.5 c 128,-1,40
 370 572 370 572 346.5 572 c 128,-1,41
 323 572 323 572 306 589 c 128,-1,34
 289 606 289 606 289 629 c 128,-1,35
EndSplineSet
EndChar

StartChar: igrave
Encoding: 236 236 173
Width: 229
Flags: HMW
HStem: 0 21G<55 175 55 55> 477 20G<44 175 175 175> 735 20G<-79 66 66 66>
VStem: 55 120<0 443 443 444>
LayerCount: 2
Fore
SplineSet
72 590 m 1,0,-1
 -79 755 l 1,1,-1
 66 755 l 1,2,-1
 175 590 l 1,3,-1
 72 590 l 1,0,-1
55 443 m 1,4,-1
 44 497 l 1,5,-1
 175 497 l 1,6,-1
 175 0 l 1,7,-1
 55 0 l 1,8,-1
 55 443 l 1,4,-1
EndSplineSet
EndChar

StartChar: iacute
Encoding: 237 237 174
Width: 229
Flags: HMW
HStem: 0 21G<55 175 55 55> 477 20G<44 175 175 175> 735 20G<154 299 299 299>
VStem: 55 120<0 443 443 444>
LayerCount: 2
Fore
SplineSet
55 443 m 1,0,-1
 44 497 l 1,1,-1
 175 497 l 1,2,-1
 175 0 l 1,3,-1
 55 0 l 1,4,-1
 55 443 l 1,0,-1
148 590 m 1,5,-1
 45 590 l 1,6,-1
 154 755 l 1,7,-1
 299 755 l 1,8,-1
 148 590 l 1,5,-1
EndSplineSet
EndChar

StartChar: icircumflex
Encoding: 238 238 175
Width: 229
Flags: HMW
HStem: 0 21G<55 175 55 55> 477 20G<44 175 175 175> 713 20G<64 162 162 162>
VStem: 55 120<0 443 443 444>
LayerCount: 2
Fore
SplineSet
44 588 m 1,0,-1
 -32 588 l 1,1,-1
 64 733 l 1,2,-1
 162 733 l 1,3,-1
 261 588 l 1,4,-1
 183 588 l 1,5,-1
 113 662 l 1,6,-1
 44 588 l 1,0,-1
55 443 m 1,7,-1
 44 497 l 1,8,-1
 175 497 l 1,9,-1
 175 0 l 1,10,-1
 55 0 l 1,11,-1
 55 443 l 1,7,-1
EndSplineSet
EndChar

StartChar: idieresis
Encoding: 239 239 176
Width: 229
Flags: HMW
HStem: 0 21G<55 175 55 55> 477 20G<44 175 175 175> 573 114<19 51 179.5 211>
VStem: -22 114<614 646> 55 120<0 443 443 444> 138 115<614.5 645.5>
LayerCount: 2
Fore
SplineSet
-22 630 m 128,-1,1
 -22 654 -22 654 -5.5 670.5 c 128,-1,2
 11 687 11 687 35 687 c 128,-1,3
 59 687 59 687 75.5 670.5 c 128,-1,4
 92 654 92 654 92 630 c 128,-1,5
 92 606 92 606 75.5 589.5 c 128,-1,6
 59 573 59 573 35 573 c 128,-1,7
 11 573 11 573 -5.5 589.5 c 128,-1,0
 -22 606 -22 606 -22 630 c 128,-1,1
55 443 m 1,8,-1
 44 497 l 1,9,-1
 175 497 l 1,10,-1
 175 0 l 1,11,-1
 55 0 l 1,12,-1
 55 443 l 1,8,-1
138 630 m 128,-1,14
 138 653 138 653 155 670 c 128,-1,15
 172 687 172 687 195.5 687 c 128,-1,16
 219 687 219 687 236 670.5 c 128,-1,17
 253 654 253 654 253 630 c 128,-1,18
 253 606 253 606 236 589.5 c 128,-1,19
 219 573 219 573 195.5 573 c 128,-1,20
 172 573 172 573 155 590 c 128,-1,13
 138 607 138 607 138 630 c 128,-1,14
EndSplineSet
EndChar

StartChar: eth
Encoding: 240 240 177
Width: 540
Flags: HMW
HStem: -11 83<223.5 315.5 223.5 344.5> 428 82<223.5 274.5 195 315.5> 763 20G<219 219 375 375>
VStem: 27 132<213 282.5 213 321> 379 132<211.5 284>
LayerCount: 2
Fore
SplineSet
27 249 m 128,-1,1
 27 360 27 360 93.5 435 c 128,-1,2
 160 510 160 510 269 510 c 0,3,4
 279 510 279 510 301 508 c 1,5,6
 257 583 257 583 229 619 c 1,7,-1
 136 568 l 1,8,-1
 91 626 l 1,9,-1
 183 677 l 1,10,-1
 131 731 l 1,11,-1
 219 783 l 1,12,13
 245 758 245 758 275 728 c 1,14,-1
 375 783 l 1,15,-1
 415 723 l 1,16,-1
 324 672 l 1,17,18
 511 447 511 447 511 249 c 0,19,20
 511 138 511 138 445 63.5 c 128,-1,21
 379 -11 379 -11 269 -11 c 128,-1,22
 159 -11 159 -11 93 63.5 c 128,-1,0
 27 138 27 138 27 249 c 128,-1,1
163.5 306 m 128,-1,24
 159 278 159 278 159 242 c 128,-1,25
 159 206 159 206 166.5 170 c 128,-1,26
 174 134 174 134 200.5 103 c 128,-1,27
 227 72 227 72 264.5 72 c 128,-1,28
 302 72 302 72 325 88.5 c 128,-1,29
 348 105 348 105 359 133 c 128,-1,30
 370 161 370 161 374.5 189 c 128,-1,31
 379 217 379 217 379 248 c 128,-1,32
 379 279 379 279 374.5 307 c 128,-1,33
 370 335 370 335 359 364 c 128,-1,34
 348 393 348 393 325 410.5 c 128,-1,35
 302 428 302 428 269.5 428 c 128,-1,36
 237 428 237 428 214 410 c 128,-1,37
 191 392 191 392 179.5 363 c 128,-1,23
 168 334 168 334 163.5 306 c 128,-1,24
EndSplineSet
EndChar

StartChar: ntilde
Encoding: 241 241 178
Width: 521
Flags: HMW
HStem: 0 21G<58 178 58 58 349 470 349 349> 416 95<294 315.5> 571 87<323 350.5 323 375> 611 47 611 87<202.5 230>
VStem: 58 120<0 356 356 361 0 373.5> 106 72 349 121<0 324 324 336 0 346.5>
LayerCount: 2
Fore
SplineSet
27 493 m 1,0,-1
 153 508 l 1,1,2
 165 482 165 482 170 444 c 1,3,4
 244 511 244 511 323.5 511 c 0,5,6
 403 511 403 511 436.5 466 c 128,-1,7
 470 421 470 421 470 336 c 2,8,-1
 470 0 l 1,9,-1
 349 0 l 1,10,-1
 349 324 l 2,11,12
 349 352 349 352 346 369 c 128,-1,13
 343 386 343 386 328.5 401 c 128,-1,14
 314 416 314 416 289 416 c 0,15,16
 264 416 264 416 229.5 397.5 c 128,-1,17
 195 379 195 379 178 361 c 1,18,-1
 178 0 l 1,19,-1
 58 0 l 1,20,-1
 58 356 l 2,21,22
 58 456 58 456 27 493 c 1,0,-1
171 581 m 1,23,-1
 106 581 l 1,24,25
 106 631 106 631 134.5 664.5 c 128,-1,26
 163 698 163 698 212 698 c 0,27,28
 242 698 242 698 283.5 678 c 128,-1,29
 325 658 325 658 340.5 658 c 0,30,31
 356 658 356 658 369 666 c 128,-1,32
 382 674 382 674 383 688 c 1,33,-1
 447 688 l 1,34,35
 447 638 447 638 418.5 604.5 c 128,-1,36
 390 571 390 571 341 571 c 0,37,38
 311 571 311 571 269.5 591 c 128,-1,39
 228 611 228 611 212 611 c 0,40,41
 196 611 196 611 183.5 603 c 128,-1,42
 171 595 171 595 171 581 c 1,23,-1
EndSplineSet
EndChar

StartChar: ograve
Encoding: 242 242 179
Width: 538
Flags: HMW
HStem: -12 80<223.5 315.5 223.5 344.5> 428 82<223.5 315.5> 735 20G<72 217 217 217>
VStem: 27 132<213.5 282.5 213.5 321> 379 132<212 284>
LayerCount: 2
Fore
SplineSet
27 249 m 128,-1,1
 27 360 27 360 93.5 435 c 128,-1,2
 160 510 160 510 269.5 510 c 0,3,4
 379 510 379 510 445 435 c 128,-1,5
 511 360 511 360 511 249 c 128,-1,6
 511 138 511 138 445 63 c 128,-1,7
 379 -12 379 -12 269 -12 c 128,-1,8
 159 -12 159 -12 93 63 c 128,-1,0
 27 138 27 138 27 249 c 128,-1,1
223 590 m 1,9,-1
 72 755 l 1,10,-1
 217 755 l 1,11,-1
 326 590 l 1,12,-1
 223 590 l 1,9,-1
159 248 m 128,-1,14
 159 218 159 218 163.5 190 c 128,-1,15
 168 162 168 162 179.5 133 c 128,-1,16
 191 104 191 104 214 86 c 128,-1,17
 237 68 237 68 269.5 68 c 0,18,19
 302 68 302 68 325 85.5 c 128,-1,20
 348 103 348 103 359 132 c 128,-1,21
 370 161 370 161 374.5 189 c 128,-1,22
 379 217 379 217 379 248 c 128,-1,23
 379 279 379 279 374.5 307 c 128,-1,24
 370 335 370 335 359 364 c 128,-1,25
 348 393 348 393 325 410.5 c 128,-1,26
 302 428 302 428 269.5 428 c 0,27,28
 237 428 237 428 214 410 c 128,-1,29
 191 392 191 392 179.5 363 c 128,-1,30
 168 334 168 334 163.5 306 c 128,-1,13
 159 278 159 278 159 248 c 128,-1,14
EndSplineSet
EndChar

StartChar: oacute
Encoding: 243 243 180
Width: 538
Flags: HMW
HStem: -12 80<223.5 315.5 223.5 344.5> 428 82<223.5 315.5> 735 20G<330 475 475 475>
VStem: 27 132<213.5 282.5 213.5 321> 379 132<212 284>
LayerCount: 2
Fore
SplineSet
27 249 m 128,-1,1
 27 360 27 360 93.5 435 c 128,-1,2
 160 510 160 510 269.5 510 c 0,3,4
 379 510 379 510 445 435 c 128,-1,5
 511 360 511 360 511 249 c 128,-1,6
 511 138 511 138 445 63 c 128,-1,7
 379 -12 379 -12 269 -12 c 128,-1,8
 159 -12 159 -12 93 63 c 128,-1,0
 27 138 27 138 27 249 c 128,-1,1
159 248 m 128,-1,10
 159 218 159 218 163.5 190 c 128,-1,11
 168 162 168 162 179.5 133 c 128,-1,12
 191 104 191 104 214 86 c 128,-1,13
 237 68 237 68 269.5 68 c 0,14,15
 302 68 302 68 325 85.5 c 128,-1,16
 348 103 348 103 359 132 c 128,-1,17
 370 161 370 161 374.5 189 c 128,-1,18
 379 217 379 217 379 248 c 128,-1,19
 379 279 379 279 374.5 307 c 128,-1,20
 370 335 370 335 359 364 c 128,-1,21
 348 393 348 393 325 410.5 c 128,-1,22
 302 428 302 428 269.5 428 c 0,23,24
 237 428 237 428 214 410 c 128,-1,25
 191 392 191 392 179.5 363 c 128,-1,26
 168 334 168 334 163.5 306 c 128,-1,9
 159 278 159 278 159 248 c 128,-1,10
324 590 m 1,27,-1
 221 590 l 1,28,-1
 330 755 l 1,29,-1
 475 755 l 1,30,-1
 324 590 l 1,27,-1
EndSplineSet
EndChar

StartChar: ocircumflex
Encoding: 244 244 181
Width: 538
Flags: HMW
HStem: -12 80<223.5 315.5 223.5 344.5> 428 82<223.5 315.5> 713 20G<217 315 315 315>
VStem: 27 132<213.5 282.5 213.5 321> 379 132<212 284>
LayerCount: 2
Fore
SplineSet
27 249 m 128,-1,1
 27 360 27 360 93.5 435 c 128,-1,2
 160 510 160 510 269.5 510 c 0,3,4
 379 510 379 510 445 435 c 128,-1,5
 511 360 511 360 511 249 c 128,-1,6
 511 138 511 138 445 63 c 128,-1,7
 379 -12 379 -12 269 -12 c 128,-1,8
 159 -12 159 -12 93 63 c 128,-1,0
 27 138 27 138 27 249 c 128,-1,1
197 589 m 1,9,-1
 121 589 l 1,10,-1
 217 733 l 1,11,-1
 315 733 l 1,12,-1
 414 588 l 1,13,-1
 336 588 l 1,14,-1
 266 662 l 1,15,-1
 197 589 l 1,9,-1
159 248 m 128,-1,17
 159 218 159 218 163.5 190 c 128,-1,18
 168 162 168 162 179.5 133 c 128,-1,19
 191 104 191 104 214 86 c 128,-1,20
 237 68 237 68 269.5 68 c 0,21,22
 302 68 302 68 325 85.5 c 128,-1,23
 348 103 348 103 359 132 c 128,-1,24
 370 161 370 161 374.5 189 c 128,-1,25
 379 217 379 217 379 248 c 128,-1,26
 379 279 379 279 374.5 307 c 128,-1,27
 370 335 370 335 359 364 c 128,-1,28
 348 393 348 393 325 410.5 c 128,-1,29
 302 428 302 428 269.5 428 c 0,30,31
 237 428 237 428 214 410 c 128,-1,32
 191 392 191 392 179.5 363 c 128,-1,33
 168 334 168 334 163.5 306 c 128,-1,16
 159 278 159 278 159 248 c 128,-1,17
EndSplineSet
EndChar

StartChar: otilde
Encoding: 245 245 182
Width: 538
Flags: HMW
HStem: -12 80<223.5 315.5 223.5 344.5> 428 82<223.5 315.5> 565 87<324 351.5 324 376> 605 47 605 87<203.5 231>
VStem: 27 132<213.5 282.5 213.5 321> 379 69 379 132<212 284>
LayerCount: 2
Fore
SplineSet
27 249 m 128,-1,1
 27 360 27 360 93.5 435 c 128,-1,2
 160 510 160 510 269.5 510 c 0,3,4
 379 510 379 510 445 435 c 128,-1,5
 511 360 511 360 511 249 c 128,-1,6
 511 138 511 138 445 63 c 128,-1,7
 379 -12 379 -12 269 -12 c 128,-1,8
 159 -12 159 -12 93 63 c 128,-1,0
 27 138 27 138 27 249 c 128,-1,1
172 575 m 1,9,-1
 107 575 l 1,10,11
 107 625 107 625 135.5 658.5 c 128,-1,12
 164 692 164 692 213 692 c 0,13,14
 243 692 243 692 284.5 672 c 128,-1,15
 326 652 326 652 342 652 c 0,16,17
 358 652 358 652 370.5 660 c 128,-1,18
 383 668 383 668 384 682 c 1,19,-1
 448 682 l 1,20,21
 448 632 448 632 419.5 598.5 c 128,-1,22
 391 565 391 565 342 565 c 0,23,24
 312 565 312 565 270.5 585 c 128,-1,25
 229 605 229 605 213 605 c 0,26,27
 197 605 197 605 184.5 597 c 128,-1,28
 172 589 172 589 172 575 c 1,9,-1
159 248 m 128,-1,30
 159 218 159 218 163.5 190 c 128,-1,31
 168 162 168 162 179.5 133 c 128,-1,32
 191 104 191 104 214 86 c 128,-1,33
 237 68 237 68 269.5 68 c 0,34,35
 302 68 302 68 325 85.5 c 128,-1,36
 348 103 348 103 359 132 c 128,-1,37
 370 161 370 161 374.5 189 c 128,-1,38
 379 217 379 217 379 248 c 128,-1,39
 379 279 379 279 374.5 307 c 128,-1,40
 370 335 370 335 359 364 c 128,-1,41
 348 393 348 393 325 410.5 c 128,-1,42
 302 428 302 428 269.5 428 c 0,43,44
 237 428 237 428 214 410 c 128,-1,45
 191 392 191 392 179.5 363 c 128,-1,46
 168 334 168 334 163.5 306 c 128,-1,29
 159 278 159 278 159 248 c 128,-1,30
EndSplineSet
EndChar

StartChar: odieresis
Encoding: 246 246 183
Width: 538
Flags: HMW
HStem: -12 80<223.5 315.5 223.5 344.5> 428 82<223.5 315.5> 572 114<171 203 331.5 363>
VStem: 27 132<213.5 282.5 213.5 321> 130 114<613 645> 290 115<613.5 644.5> 379 132<212 284>
LayerCount: 2
Fore
SplineSet
27 249 m 128,-1,1
 27 360 27 360 93.5 435 c 128,-1,2
 160 510 160 510 269.5 510 c 0,3,4
 379 510 379 510 445 435 c 128,-1,5
 511 360 511 360 511 249 c 128,-1,6
 511 138 511 138 445 63 c 128,-1,7
 379 -12 379 -12 269 -12 c 128,-1,8
 159 -12 159 -12 93 63 c 128,-1,0
 27 138 27 138 27 249 c 128,-1,1
130 629 m 128,-1,10
 130 653 130 653 146.5 669.5 c 128,-1,11
 163 686 163 686 187 686 c 128,-1,12
 211 686 211 686 227.5 669.5 c 128,-1,13
 244 653 244 653 244 629 c 128,-1,14
 244 605 244 605 227.5 588.5 c 128,-1,15
 211 572 211 572 187 572 c 128,-1,16
 163 572 163 572 146.5 588.5 c 128,-1,9
 130 605 130 605 130 629 c 128,-1,10
159 248 m 128,-1,18
 159 218 159 218 163.5 190 c 128,-1,19
 168 162 168 162 179.5 133 c 128,-1,20
 191 104 191 104 214 86 c 128,-1,21
 237 68 237 68 269.5 68 c 0,22,23
 302 68 302 68 325 85.5 c 128,-1,24
 348 103 348 103 359 132 c 128,-1,25
 370 161 370 161 374.5 189 c 128,-1,26
 379 217 379 217 379 248 c 128,-1,27
 379 279 379 279 374.5 307 c 128,-1,28
 370 335 370 335 359 364 c 128,-1,29
 348 393 348 393 325 410.5 c 128,-1,30
 302 428 302 428 269.5 428 c 0,31,32
 237 428 237 428 214 410 c 128,-1,33
 191 392 191 392 179.5 363 c 128,-1,34
 168 334 168 334 163.5 306 c 128,-1,17
 159 278 159 278 159 248 c 128,-1,18
290 629 m 128,-1,36
 290 652 290 652 307 669 c 128,-1,37
 324 686 324 686 347.5 686 c 0,38,39
 371 686 371 686 388 669.5 c 128,-1,40
 405 653 405 653 405 629 c 128,-1,41
 405 605 405 605 388 588.5 c 128,-1,42
 371 572 371 572 347.5 572 c 0,43,44
 324 572 324 572 307 589 c 128,-1,35
 290 606 290 606 290 629 c 128,-1,36
EndSplineSet
EndChar

StartChar: divide
Encoding: 247 247 184
Width: 570
Flags: HMW
HStem: -12 155<264.5 307.5> 204 88<36 534 36 534> 354 155<263.5 306.5>
VStem: 208 155<44.5 87.5>
LayerCount: 2
Fore
SplineSet
534 204 m 1,0,-1
 36 204 l 1,1,-1
 36 292 l 1,2,-1
 534 292 l 1,3,-1
 534 204 l 1,0,-1
208 66 m 128,-1,5
 208 98 208 98 230.5 120.5 c 128,-1,6
 253 143 253 143 285.5 143 c 0,7,8
 318 143 318 143 340.5 120.5 c 128,-1,9
 363 98 363 98 363 65.5 c 0,10,11
 363 33 363 33 340.5 10.5 c 128,-1,12
 318 -12 318 -12 286 -12 c 128,-1,13
 254 -12 254 -12 231 11 c 128,-1,4
 208 34 208 34 208 66 c 128,-1,5
208 431 m 128,-1,15
 208 463 208 463 230.5 486 c 128,-1,16
 253 509 253 509 285 509 c 128,-1,17
 317 509 317 509 339.5 486 c 128,-1,18
 362 463 362 463 362 431 c 128,-1,19
 362 399 362 399 339.5 376.5 c 128,-1,20
 317 354 317 354 285 354 c 128,-1,21
 253 354 253 354 230.5 376.5 c 128,-1,14
 208 399 208 399 208 431 c 128,-1,15
EndSplineSet
EndChar

StartChar: oslash
Encoding: 248 248 185
Width: 538
Flags: HMW
HStem: -91 21G<90 90> -12 80<257.5 316.5 257.5 345> 428 82<224.5 281.5> 551 20G<435 435>
VStem: 27 133<231.5 282.5 231.5 321> 379 133<212 265.5>
LayerCount: 2
Fore
SplineSet
109 47 m 1,0,1
 27 122 27 122 27 241 c 128,-1,2
 27 360 27 360 94 435 c 128,-1,3
 161 510 161 510 270 510 c 0,4,5
 330 510 330 510 381 485 c 1,6,-1
 435 571 l 1,7,-1
 484 545 l 1,8,-1
 427 454 l 1,9,10
 512 381 512 381 512 249 c 0,11,12
 512 137 512 137 446 62.5 c 128,-1,13
 380 -12 380 -12 270 -12 c 0,14,15
 205 -12 205 -12 155 15 c 1,16,-1
 90 -91 l 1,17,-1
 45 -57 l 1,18,-1
 109 47 l 1,0,1
164.5 306 m 128,-1,20
 160 278 160 278 160 233 c 128,-1,21
 160 188 160 188 173 150 c 1,22,-1
 332 405 l 1,23,24
 308 428 308 428 273 428 c 128,-1,25
 238 428 238 428 215 410 c 128,-1,26
 192 392 192 392 180.5 363 c 128,-1,19
 169 334 169 334 164.5 306 c 128,-1,20
365 353 m 1,27,-1
 205 95 l 1,28,29
 232 68 232 68 267.5 68 c 128,-1,30
 303 68 303 68 326 85.5 c 128,-1,31
 349 103 349 103 359.5 132 c 0,32,33
 379 185.857142857 379 185.857142857 379 248.428571429 c 128,-1,34
 379 311 379 311 365 353 c 1,27,-1
EndSplineSet
EndChar

StartChar: ugrave
Encoding: 249 249 186
Width: 551
Flags: HMW
HStem: -14 96<209.5 232.5> -8 21G<422.5 462.5> 477 20G<41 174 174 174 333 467 467 467> 735 20G<53 198 198 198>
VStem: 52 122<161 182 182 443 443 443> 345 122<179 443 443 444>
LayerCount: 2
Fore
SplineSet
560 19 m 1,0,1
 479 -8 479 -8 446 -8 c 128,-1,2
 413 -8 413 -8 392 10.5 c 128,-1,3
 371 29 371 29 365 59 c 1,4,5
 294 -14 294 -14 206.5 -14 c 128,-1,6
 119 -14 119 -14 85.5 31.5 c 128,-1,7
 52 77 52 77 52 161 c 2,8,-1
 52 443 l 1,9,-1
 41 497 l 1,10,-1
 174 497 l 1,11,-1
 174 182 l 2,12,13
 174 108.714285714 174 108.714285714 204 90.5 c 0,14,15
 218 82 218 82 239 82 c 0,16,17
 283 82 283 82 314 109 c 128,-1,18
 345 136 345 136 345 179 c 2,19,-1
 345 443 l 1,20,-1
 333 497 l 1,21,-1
 467 497 l 1,22,-1
 467 132 l 2,23,24
 467 80 467 80 492 80 c 0,25,26
 494 80 494 80 539 92 c 1,27,-1
 560 19 l 1,0,1
204 590 m 1,28,-1
 53 755 l 1,29,-1
 198 755 l 1,30,-1
 307 590 l 1,31,-1
 204 590 l 1,28,-1
EndSplineSet
EndChar

StartChar: uacute
Encoding: 250 250 187
Width: 551
Flags: HMW
HStem: -14 96<209.5 232.5> -8 21G<422.5 462.5> 477 20G<41 174 174 174 333 467 467 467> 735 20G<312 457 457 457>
VStem: 52 122<161 182 182 443 443 443> 345 122<179 443 443 444>
LayerCount: 2
Fore
SplineSet
560 19 m 1,0,1
 479 -8 479 -8 446 -8 c 128,-1,2
 413 -8 413 -8 392 10.5 c 128,-1,3
 371 29 371 29 365 59 c 1,4,5
 294 -14 294 -14 206.5 -14 c 128,-1,6
 119 -14 119 -14 85.5 31.5 c 128,-1,7
 52 77 52 77 52 161 c 2,8,-1
 52 443 l 1,9,-1
 41 497 l 1,10,-1
 174 497 l 1,11,-1
 174 182 l 2,12,13
 174 108.714285714 174 108.714285714 204 90.5 c 0,14,15
 218 82 218 82 239 82 c 0,16,17
 283 82 283 82 314 109 c 128,-1,18
 345 136 345 136 345 179 c 2,19,-1
 345 443 l 1,20,-1
 333 497 l 1,21,-1
 467 497 l 1,22,-1
 467 132 l 2,23,24
 467 80 467 80 492 80 c 0,25,26
 494 80 494 80 539 92 c 1,27,-1
 560 19 l 1,0,1
306 590 m 1,28,-1
 203 590 l 1,29,-1
 312 755 l 1,30,-1
 457 755 l 1,31,-1
 306 590 l 1,28,-1
EndSplineSet
EndChar

StartChar: ucircumflex
Encoding: 251 251 188
Width: 551
Flags: HMW
HStem: -14 96<209.5 232.5> -8 21G<422.5 462.5> 477 20G<41 174 174 174 333 467 467 467> 714 20G<206 304 304 304>
VStem: 52 122<161 182 182 443 443 443> 345 122<179 443 443 444>
LayerCount: 2
Fore
SplineSet
560 19 m 1,0,1
 479 -8 479 -8 446 -8 c 128,-1,2
 413 -8 413 -8 392 10.5 c 128,-1,3
 371 29 371 29 365 59 c 1,4,5
 294 -14 294 -14 206.5 -14 c 128,-1,6
 119 -14 119 -14 85.5 31.5 c 128,-1,7
 52 77 52 77 52 161 c 2,8,-1
 52 443 l 1,9,-1
 41 497 l 1,10,-1
 174 497 l 1,11,-1
 174 182 l 2,12,13
 174 108.714285714 174 108.714285714 204 90.5 c 0,14,15
 218 82 218 82 239 82 c 0,16,17
 283 82 283 82 314 109 c 128,-1,18
 345 136 345 136 345 179 c 2,19,-1
 345 443 l 1,20,-1
 333 497 l 1,21,-1
 467 497 l 1,22,-1
 467 132 l 2,23,24
 467 80 467 80 492 80 c 0,25,26
 494 80 494 80 539 92 c 1,27,-1
 560 19 l 1,0,1
186 589 m 1,28,-1
 110 589 l 1,29,-1
 206 734 l 1,30,-1
 304 734 l 1,31,-1
 403 589 l 1,32,-1
 325 589 l 1,33,-1
 255 663 l 1,34,-1
 186 589 l 1,28,-1
EndSplineSet
EndChar

StartChar: udieresis
Encoding: 252 252 189
Width: 551
Flags: HMW
HStem: -14 96<209.5 232.5> -8 21G<422.5 462.5> 477 20G<41 174 174 174 333 467 467 467> 576 114<166 198 326.5 358>
VStem: 52 122<161 182 182 443 443 443> 125 114<617 649> 285 115<617.5 648.5> 345 122<179 443 443 444>
LayerCount: 2
Fore
SplineSet
560 19 m 1,0,1
 479 -8 479 -8 446 -8 c 128,-1,2
 413 -8 413 -8 392 10.5 c 128,-1,3
 371 29 371 29 365 59 c 1,4,5
 294 -14 294 -14 206.5 -14 c 128,-1,6
 119 -14 119 -14 85.5 31.5 c 128,-1,7
 52 77 52 77 52 161 c 2,8,-1
 52 443 l 1,9,-1
 41 497 l 1,10,-1
 174 497 l 1,11,-1
 174 182 l 2,12,13
 174 108.714285714 174 108.714285714 204 90.5 c 0,14,15
 218 82 218 82 239 82 c 0,16,17
 283 82 283 82 314 109 c 128,-1,18
 345 136 345 136 345 179 c 2,19,-1
 345 443 l 1,20,-1
 333 497 l 1,21,-1
 467 497 l 1,22,-1
 467 132 l 2,23,24
 467 80 467 80 492 80 c 0,25,26
 494 80 494 80 539 92 c 1,27,-1
 560 19 l 1,0,1
125 633 m 128,-1,29
 125 657 125 657 141.5 673.5 c 128,-1,30
 158 690 158 690 182 690 c 128,-1,31
 206 690 206 690 222.5 673.5 c 128,-1,32
 239 657 239 657 239 633 c 128,-1,33
 239 609 239 609 222.5 592.5 c 128,-1,34
 206 576 206 576 182 576 c 128,-1,35
 158 576 158 576 141.5 592.5 c 128,-1,28
 125 609 125 609 125 633 c 128,-1,29
285 633 m 128,-1,37
 285 656 285 656 302 673 c 128,-1,38
 319 690 319 690 342.5 690 c 128,-1,39
 366 690 366 690 383 673.5 c 128,-1,40
 400 657 400 657 400 633 c 128,-1,41
 400 609 400 609 383 592.5 c 128,-1,42
 366 576 366 576 342.5 576 c 128,-1,43
 319 576 319 576 302 593 c 128,-1,36
 285 610 285 610 285 633 c 128,-1,37
EndSplineSet
EndChar

StartChar: yacute
Encoding: 253 253 190
Width: 465
Flags: HMW
HStem: -221 82<52.5 68 31 94.5> 477 20G<2 131 131 131 352 462 462 462> 735 20G<302 447 447 447>
LayerCount: 2
Fore
SplineSet
182 1 m 1,0,-1
 2 497 l 1,1,-1
 131 497 l 1,2,3
 181 362 181 362 228 221 c 0,4,5
 234.133333333 201.066666667 234.133333333 201.066666667 242 146 c 1,6,7
 253 210 253 210 261 236 c 128,-1,8
 269 262 269 262 285 308 c 128,-1,9
 301 354 301 354 321 410 c 128,-1,10
 341 466 341 466 352 497 c 1,11,-1
 462 497 l 1,12,-1
 285 -3 l 1,13,14
 211 -221 211 -221 68 -221 c 2,15,-1
 31 -221 l 1,16,-1
 31 -136 l 1,17,18
 43 -139 43 -139 63.5 -139 c 128,-1,19
 84 -139 84 -139 105 -126.5 c 128,-1,20
 126 -114 126 -114 141 -90.5 c 0,21,22
 164.345323741 -53.9256594724 164.345323741 -53.9256594724 182 1 c 1,0,-1
296 590 m 1,23,-1
 193 590 l 1,24,-1
 302 755 l 1,25,-1
 447 755 l 1,26,-1
 296 590 l 1,23,-1
EndSplineSet
EndChar

StartChar: thorn
Encoding: 254 254 191
Width: 543
Flags: HMW
HStem: -217 21G<54 174 54 54> -12 82<260.5 321 239.5 356> 416 92<285 314> 748 20G<43 174 174 174>
VStem: 54 120<-217 18 171 205 205 368 457 715 715 718> 385 131<211.5 278.5>
LayerCount: 2
Fore
SplineSet
54 715 m 1,0,-1
 43 768 l 1,1,-1
 174 768 l 1,2,-1
 174 457 l 1,3,4
 235 508 235 508 313 508 c 0,5,6
 408 508 408 508 462 429 c 128,-1,7
 516 350 516 350 516 245.5 c 128,-1,8
 516 141 516 141 452.5 64.5 c 128,-1,9
 389 -12 389 -12 281 -12 c 0,10,11
 219 -12 219 -12 174 18 c 1,12,-1
 174 -217 l 1,13,-1
 54 -217 l 1,14,-1
 54 715 l 1,0,-1
174 368 m 1,15,-1
 174 205 l 2,16,17
 174 148 174 148 199 109 c 128,-1,18
 224 70 224 70 278 70 c 0,19,20
 308 70 308 70 330.5 87.5 c 128,-1,21
 353 105 353 105 364 133 c 0,22,23
 385 186.454545455 385 186.454545455 385 234.727272727 c 128,-1,24
 385 283 385 283 375 319.5 c 128,-1,25
 365 356 365 356 338 386 c 128,-1,26
 311 416 311 416 272 416 c 0,27,28
 217 416 217 416 174 368 c 1,15,-1
EndSplineSet
EndChar

StartChar: ydieresis
Encoding: 255 255 192
Width: 465
Flags: HMW
HStem: -221 82<52.5 68 31 94.5> 477 20G<2 131 131 131 352 462 462 462> 578 114<153 185 313.5 345>
VStem: 112 114<619 651> 272 115<619.5 650.5>
LayerCount: 2
Fore
SplineSet
182 1 m 1,0,-1
 2 497 l 1,1,-1
 131 497 l 1,2,3
 181 362 181 362 228 221 c 0,4,5
 234.133333333 201.066666667 234.133333333 201.066666667 242 146 c 1,6,7
 253 210 253 210 261 236 c 128,-1,8
 269 262 269 262 285 308 c 128,-1,9
 301 354 301 354 321 410 c 128,-1,10
 341 466 341 466 352 497 c 1,11,-1
 462 497 l 1,12,-1
 285 -3 l 1,13,14
 211 -221 211 -221 68 -221 c 2,15,-1
 31 -221 l 1,16,-1
 31 -136 l 1,17,18
 43 -139 43 -139 63.5 -139 c 128,-1,19
 84 -139 84 -139 105 -126.5 c 128,-1,20
 126 -114 126 -114 141 -90.5 c 0,21,22
 164.345323741 -53.9256594724 164.345323741 -53.9256594724 182 1 c 1,0,-1
112 635 m 128,-1,24
 112 659 112 659 128.5 675.5 c 128,-1,25
 145 692 145 692 169 692 c 128,-1,26
 193 692 193 692 209.5 675.5 c 128,-1,27
 226 659 226 659 226 635 c 128,-1,28
 226 611 226 611 209.5 594.5 c 128,-1,29
 193 578 193 578 169 578 c 128,-1,30
 145 578 145 578 128.5 594.5 c 128,-1,23
 112 611 112 611 112 635 c 128,-1,24
272 635 m 128,-1,32
 272 658 272 658 289 675 c 128,-1,33
 306 692 306 692 329.5 692 c 128,-1,34
 353 692 353 692 370 675.5 c 128,-1,35
 387 659 387 659 387 635 c 128,-1,36
 387 611 387 611 370 594.5 c 128,-1,37
 353 578 353 578 329.5 578 c 128,-1,38
 306 578 306 578 289 595 c 128,-1,31
 272 612 272 612 272 635 c 128,-1,32
EndSplineSet
EndChar

StartChar: dotlessi
Encoding: 305 305 193
Width: 229
Flags: HMW
HStem: 0 21G<55 175 55 55> 477 20G<44 175 175 175>
VStem: 55 120<0 443 443 444>
LayerCount: 2
Fore
SplineSet
55 443 m 1,0,-1
 44 497 l 1,1,-1
 175 497 l 1,2,-1
 175 0 l 1,3,-1
 55 0 l 1,4,-1
 55 443 l 1,0,-1
EndSplineSet
EndChar

StartChar: Lslash
Encoding: 321 321 194
Width: 505
Flags: HMW
HStem: 0 99<213 500 213 500> 712 20G<61 213 213 213>
VStem: 9 204<215 309 99 312 99 312> 74 139<99 245 245 245 406 672 672 676>
LayerCount: 2
Fore
SplineSet
74 672 m 1,0,-1
 61 732 l 1,1,-1
 213 732 l 1,2,-1
 213 406 l 1,3,-1
 410 498 l 1,4,-1
 410 400 l 1,5,-1
 213 309 l 1,6,-1
 213 99 l 1,7,-1
 500 99 l 1,8,-1
 500 0 l 1,9,-1
 74 0 l 1,10,-1
 74 245 l 1,11,-1
 9 215 l 1,12,-1
 9 312 l 1,13,-1
 74 342 l 1,14,-1
 74 672 l 1,0,-1
EndSplineSet
EndChar

StartChar: lslash
Encoding: 322 322 195
Width: 263
Flags: HMW
HStem: 0 21G<73 195 73 73> 748 20G<62 195 195 195>
VStem: 13 182<246 330 0 343 0 343> 73 122<0 274 274 274 428 715 715 718> 73 186<0 458 274 458 371 458 360 715>
LayerCount: 2
Fore
SplineSet
73 715 m 1,0,-1
 62 768 l 1,1,-1
 195 768 l 1,2,-1
 195 428 l 1,3,-1
 259 458 l 1,4,-1
 259 360 l 1,5,-1
 195 330 l 1,6,-1
 195 0 l 1,7,-1
 73 0 l 1,8,-1
 73 274 l 1,9,-1
 13 246 l 1,10,-1
 13 343 l 1,11,-1
 73 371 l 1,12,-1
 73 715 l 1,0,-1
EndSplineSet
EndChar

StartChar: OE
Encoding: 338 338 196
Width: 1067
Flags: HMW
HStem: -11 99<302.5 423.5> 0 21G<593 1038 593 593> 327 99<730 966 730 966> 644 88 723 20G<269 424.5>
VStem: 32 147<300.5 430 300.5 472.5> 583 147<300.5 327 426 431.5>
LayerCount: 2
Fore
SplineSet
32 366 m 128,-1,1
 32 531 32 531 125 637 c 128,-1,2
 218 743 218 743 381 743 c 0,3,4
 505 743 505 743 593 680 c 1,5,-1
 593 732 l 1,6,-1
 1038 732 l 1,7,-1
 1038 633 l 1,8,-1
 730 633 l 1,9,-1
 730 426 l 1,10,-1
 966 426 l 1,11,-1
 966 327 l 1,12,-1
 730 327 l 1,13,-1
 730 99 l 1,14,-1
 1038 99 l 1,15,-1
 1038 0 l 1,16,-1
 593 0 l 1,17,-1
 593 54 l 1,18,19
 504 -11 504 -11 381 -11 c 0,20,21
 218 -11 218 -11 125 95 c 128,-1,0
 32 201 32 201 32 366 c 128,-1,1
189.5 464 m 128,-1,23
 179 417 179 417 179 365 c 128,-1,24
 179 313 179 313 189 266.5 c 128,-1,25
 199 220 199 220 221 178.5 c 128,-1,26
 243 137 243 137 284 112.5 c 128,-1,27
 325 88 325 88 380.5 88 c 128,-1,28
 436 88 436 88 477 112.5 c 128,-1,29
 518 137 518 137 540 178.5 c 128,-1,30
 562 220 562 220 572.5 266.5 c 128,-1,31
 583 313 583 313 583 366 c 128,-1,32
 583 419 583 419 573 465.5 c 128,-1,33
 563 512 563 512 541 553.5 c 128,-1,34
 519 595 519 595 478 619.5 c 128,-1,35
 437 644 437 644 381.5 644 c 128,-1,36
 326 644 326 644 285 619 c 128,-1,37
 244 594 244 594 222 552.5 c 128,-1,22
 200 511 200 511 189.5 464 c 128,-1,23
EndSplineSet
EndChar

StartChar: oe
Encoding: 339 339 197
Width: 843
Flags: HMW
HStem: -11 83<223.5 306.5 591 656.5> 234 79<509 677 677 684.5 509 768 506 677> 428 83 490 20G<195 306.5>
VStem: 27 132<213 282.5 213 321> 379 127<211.5 234 196 284> 694 125<328.5 359.5 276.5 360.5>
LayerCount: 2
Fore
SplineSet
27 249 m 128,-1,1
 27 360 27 360 93.5 435 c 128,-1,2
 160 510 160 510 269.5 510 c 128,-1,3
 379 510 379 510 444 436 c 1,4,5
 506 511 506 511 608 511 c 128,-1,6
 710 511 710 511 764.5 452.5 c 128,-1,7
 819 394 819 394 819 294 c 0,8,9
 819 234 819 234 768 234 c 2,10,-1
 506 234 l 1,11,12
 506 170 506 170 539.5 121 c 128,-1,13
 573 72 573 72 638 72 c 128,-1,14
 703 72 703 72 756 125 c 1,15,-1
 807 42 l 1,16,17
 775 16 775 16 725 2.5 c 128,-1,18
 675 -11 675 -11 629 -11 c 0,19,20
 510 -11 510 -11 443 62 c 1,21,22
 379 -11 379 -11 269 -11 c 128,-1,23
 159 -11 159 -11 93 63.5 c 128,-1,0
 27 138 27 138 27 249 c 128,-1,1
163.5 306 m 128,-1,25
 159 278 159 278 159 242 c 128,-1,26
 159 206 159 206 166.5 170 c 128,-1,27
 174 134 174 134 200.5 103 c 128,-1,28
 227 72 227 72 264.5 72 c 128,-1,29
 302 72 302 72 325 88.5 c 128,-1,30
 348 105 348 105 359 133 c 128,-1,31
 370 161 370 161 374.5 189 c 128,-1,32
 379 217 379 217 379 248 c 128,-1,33
 379 279 379 279 374.5 307 c 128,-1,34
 370 335 370 335 359 364 c 128,-1,35
 348 393 348 393 325 410.5 c 128,-1,36
 302 428 302 428 269.5 428 c 128,-1,37
 237 428 237 428 214 410 c 128,-1,38
 191 392 191 392 179.5 363 c 128,-1,24
 168 334 168 334 163.5 306 c 128,-1,25
509 313 m 1,39,-1
 677 313 l 2,40,41
 694 313 694 313 694 335 c 0,42,43
 694 376 694 376 673.5 402.5 c 128,-1,44
 653 429 653 429 613 429 c 128,-1,45
 573 429 573 429 542 392 c 128,-1,46
 511 355 511 355 509 313 c 1,39,-1
EndSplineSet
EndChar

StartChar: Scaron
Encoding: 352 352 198
Width: 537
Flags: HMW
HStem: -12 96<209.5 270 206 319.5> 587 96<264 313.5> 841 20G<123 201 201 201 340 416 416 416>
VStem: 40 146<451 539.5 451 556.5> 363 146<145 242.5>
LayerCount: 2
Fore
SplineSet
16 41 m 1,0,-1
 63 151 l 1,1,2
 144 84 144 84 238 84 c 0,3,4
 289 84 289 84 326 108.5 c 128,-1,5
 363 133 363 133 363 172 c 0,6,7
 363 211 363 211 329.5 238.5 c 128,-1,8
 296 266 296 266 249 285.5 c 128,-1,9
 202 305 202 305 154.5 327.5 c 128,-1,10
 107 350 107 350 73.5 391.5 c 128,-1,11
 40 433 40 433 40 491 c 0,12,13
 40 586 40 586 111.5 634.5 c 128,-1,14
 183 683 183 683 303 683 c 0,15,16
 349 683 349 683 406 667 c 128,-1,17
 463 651 463 651 497 628 c 1,18,-1
 428 541 l 1,19,20
 371 587 371 587 290 587 c 0,21,22
 248 587 248 587 217 568 c 128,-1,23
 186 549 186 549 186 515 c 0,24,25
 186 481 186 481 219.5 455 c 128,-1,26
 253 429 253 429 300 409.5 c 128,-1,27
 347 390 347 390 394.5 366.5 c 128,-1,28
 442 343 442 343 475.5 300 c 128,-1,29
 509 257 509 257 509 197 c 0,30,31
 509 99 509 99 434 43.5 c 128,-1,32
 359 -12 359 -12 251 -12 c 0,33,34
 114 -12 114 -12 16 41 c 1,0,-1
222 716 m 1,35,-1
 123 861 l 1,36,-1
 201 861 l 1,37,-1
 271 787 l 1,38,-1
 340 861 l 1,39,-1
 416 861 l 1,40,-1
 320 716 l 1,41,-1
 222 716 l 1,35,-1
EndSplineSet
EndChar

StartChar: scaron
Encoding: 353 353 199
Width: 404
Flags: HMW
HStem: -14 85<158.5 195 154.5 234.5> 429 81<212.5 246.5> 716 20G<55 133 133 133 272 348 348 348>
VStem: 31 130<330 395.5 330 407> 250 130<113 185.5>
LayerCount: 2
Fore
SplineSet
19 29 m 1,0,-1
 62 111 l 1,1,2
 132 71 132 71 169.5 71 c 0,3,4
 207 71 207 71 228.5 87.5 c 128,-1,5
 250 104 250 104 250 133 c 0,6,7
 250 162 250 162 227.5 180 c 128,-1,8
 205 198 205 198 172.5 209 c 128,-1,9
 140 220 140 220 108 234.5 c 128,-1,10
 76 249 76 249 53.5 279 c 128,-1,11
 31 309 31 309 31 354 c 0,12,13
 31 428 31 428 88.5 469 c 128,-1,14
 146 510 146 510 226.5 510 c 0,15,16
 307 510 307 510 370 479 c 1,17,-1
 328 395 l 1,18,19
 284 429 284 429 229 429 c 0,20,21
 201 429 201 429 181 416 c 128,-1,22
 161 403 161 403 161 377 c 0,23,24
 161 351 161 351 183.5 334.5 c 128,-1,25
 206 318 206 318 238 307 c 128,-1,26
 270 296 270 296 302.5 281 c 128,-1,27
 335 266 335 266 357.5 234 c 128,-1,28
 380 202 380 202 380 155 c 0,29,30
 380 78 380 78 322 32 c 128,-1,31
 264 -14 264 -14 179 -14 c 0,32,33
 94 -14 94 -14 19 29 c 1,0,-1
154 591 m 1,34,-1
 55 736 l 1,35,-1
 133 736 l 1,36,-1
 203 662 l 1,37,-1
 272 736 l 1,38,-1
 348 736 l 1,39,-1
 252 591 l 1,40,-1
 154 591 l 1,34,-1
EndSplineSet
EndChar

StartChar: Ydieresis
Encoding: 376 376 200
Width: 563
Flags: HMW
HStem: 0 21G<214 347 214 214> 735 114<200 232 360 391.5>
VStem: 159 114<776 807.5> 214 133<0 274 0 274> 319 115<776 807.5>
LayerCount: 2
Fore
SplineSet
214 274 m 1,0,-1
 0 674 l 1,1,-1
 148 674 l 1,2,-1
 294 401 l 1,3,-1
 444 674 l 1,4,-1
 564 674 l 1,5,-1
 347 274 l 1,6,-1
 347 0 l 1,7,-1
 214 0 l 1,8,-1
 214 274 l 1,0,-1
175.5 751.5 m 128,-1,10
 159 768 159 768 159 791.5 c 128,-1,11
 159 815 159 815 175.5 832 c 128,-1,12
 192 849 192 849 216 849 c 128,-1,13
 240 849 240 849 256.5 832 c 128,-1,14
 273 815 273 815 273 791.5 c 128,-1,15
 273 768 273 768 256.5 751.5 c 128,-1,16
 240 735 240 735 216 735 c 128,-1,9
 192 735 192 735 175.5 751.5 c 128,-1,10
335.5 751.5 m 128,-1,18
 319 768 319 768 319 791.5 c 128,-1,19
 319 815 319 815 335.5 832 c 128,-1,20
 352 849 352 849 376 849 c 128,-1,21
 400 849 400 849 417 832.5 c 128,-1,22
 434 816 434 816 434 792 c 128,-1,23
 434 768 434 768 417 751.5 c 128,-1,24
 400 735 400 735 376 735 c 128,-1,17
 352 735 352 735 335.5 751.5 c 128,-1,18
EndSplineSet
EndChar

StartChar: Zcaron
Encoding: 381 381 201
Width: 578
Flags: HMW
HStem: 0 99<185 549> 576 98<40 367 40 543> 841 20G<157 235 235 235 374 450 450 450>
LayerCount: 2
Fore
SplineSet
549 0 m 1,0,-1
 16 0 l 1,1,-1
 16 82 l 1,2,-1
 367 576 l 1,3,-1
 40 576 l 1,4,-1
 40 674 l 1,5,-1
 543 674 l 1,6,-1
 543 601 l 1,7,-1
 185 99 l 1,8,-1
 561 99 l 1,9,-1
 549 0 l 1,0,-1
256 716 m 1,10,-1
 157 861 l 1,11,-1
 235 861 l 1,12,-1
 305 787 l 1,13,-1
 374 861 l 1,14,-1
 450 861 l 1,15,-1
 354 716 l 1,16,-1
 256 716 l 1,10,-1
EndSplineSet
EndChar

StartChar: zcaron
Encoding: 382 382 202
Width: 445
Flags: HMW
HStem: 0 83<176 413> 414 83<41 250 41 413> 716 20G<92 170 170 170 309 385 385 385>
LayerCount: 2
Fore
SplineSet
413 0 m 1,0,-1
 16 0 l 1,1,-1
 16 61 l 1,2,-1
 250 414 l 1,3,-1
 41 414 l 1,4,-1
 41 497 l 1,5,-1
 413 497 l 1,6,-1
 413 435 l 1,7,-1
 176 83 l 1,8,-1
 427 83 l 1,9,-1
 413 0 l 1,0,-1
191 591 m 1,10,-1
 92 736 l 1,11,-1
 170 736 l 1,12,-1
 240 662 l 1,13,-1
 309 736 l 1,14,-1
 385 736 l 1,15,-1
 289 591 l 1,16,-1
 191 591 l 1,10,-1
EndSplineSet
EndChar

StartChar: florin
Encoding: 402 402 203
Width: 381
Flags: HMW
HStem: -194 83<-48.5 -37 -66 18.5> 417 80<228 384 240 359> 661 82<311 358.5>
LayerCount: 2
Fore
SplineSet
-89 -189 m 1,0,-1
 -66 -111 l 1,1,-1
 -57 -111 l 2,2,3
 -26 -111 -26 -111 -4 -92 c 128,-1,4
 18 -73 18 -73 24 -39 c 2,5,-1
 106 417 l 1,6,-1
 31 417 l 1,7,-1
 31 487 l 1,8,9
 110 487 110 487 129 532 c 0,10,11
 135 547 135 547 142.5 574 c 0,12,13
 158.333333333 631 158.333333333 631 179 662 c 0,14,15
 233 743 233 743 345 743 c 0,16,17
 401 743 401 743 451 706 c 1,18,-1
 417 636 l 1,19,20
 394 650 394 650 379.5 655.5 c 128,-1,21
 365 661 365 661 341 661 c 0,22,23
 265 661 265 661 240 497 c 1,24,-1
 384 497 l 1,25,-1
 359 417 l 1,26,-1
 228 417 l 1,27,28
 194 188 194 188 156 1 c 0,29,30
 139 -87 139 -87 91 -140.5 c 128,-1,31
 43 -194 43 -194 -40 -194 c 0,32,33
 -62 -194 -62 -194 -89 -189 c 1,0,-1
EndSplineSet
EndChar

StartChar: circumflex
Encoding: 710 710 204
Width: 275
Flags: HMW
HStem: 588 21G<-8 68 -8 -8 207 207 207 285> 713 20G<88 186 186 186>
LayerCount: 2
Fore
SplineSet
68 588 m 1,0,-1
 -8 588 l 1,1,-1
 88 733 l 1,2,-1
 186 733 l 1,3,-1
 285 588 l 1,4,-1
 207 588 l 1,5,-1
 137 662 l 1,6,-1
 68 588 l 1,0,-1
EndSplineSet
EndChar

StartChar: caron
Encoding: 711 711 205
Width: 275
Flags: HMW
HStem: 588 21G<91 91 91 189> 713 20G<-8 70 70 70 209 285 285 285>
LayerCount: 2
Fore
SplineSet
91 588 m 1,0,-1
 -8 733 l 1,1,-1
 70 733 l 1,2,-1
 140 659 l 1,3,-1
 209 733 l 1,4,-1
 285 733 l 1,5,-1
 189 588 l 1,6,-1
 91 588 l 1,0,-1
EndSplineSet
EndChar

StartChar: breve
Encoding: 728 728 206
Width: 276
Flags: HMW
HStem: 572 90<113.5 162 113.5 190.5> 572 160<-12 190.5>
LayerCount: 2
Fore
SplineSet
-12 732 m 1,0,-1
 55 732 l 1,1,2
 71 662 71 662 137 662 c 0,3,4
 203 662 203 662 220 732 c 1,5,-1
 289 732 l 1,6,7
 278 654 278 654 244.5 613 c 128,-1,8
 211 572 211 572 138 572 c 0,9,10
 2 572 2 572 -12 732 c 1,0,-1
EndSplineSet
EndChar

StartChar: dotaccent
Encoding: 729 729 207
Width: 285
Flags: HMW
HStem: 564 122<126.5 161.5>
VStem: 83 122<607.5 642.5>
LayerCount: 2
Fore
SplineSet
83 625 m 128,-1,1
 83 651 83 651 100.5 668.5 c 128,-1,2
 118 686 118 686 144 686 c 128,-1,3
 170 686 170 686 187.5 668.5 c 128,-1,4
 205 651 205 651 205 625 c 128,-1,5
 205 599 205 599 187.5 581.5 c 128,-1,6
 170 564 170 564 144 564 c 128,-1,7
 118 564 118 564 100.5 581.5 c 128,-1,0
 83 599 83 599 83 625 c 128,-1,1
EndSplineSet
EndChar

StartChar: ring
Encoding: 730 730 208
Width: 281
Flags: HMW
HStem: 531 66<128.5 151.5 128.5 170.5> 678 67<128.5 151.5>
VStem: 34 66<625.5 648.5 625.5 667.5> 181 68<625.5 648.5>
LayerCount: 2
Fore
SplineSet
34 638 m 128,-1,1
 34 682 34 682 65.5 713.5 c 128,-1,2
 97 745 97 745 141 745 c 128,-1,3
 185 745 185 745 217 713.5 c 128,-1,4
 249 682 249 682 249 638 c 128,-1,5
 249 594 249 594 217 562.5 c 128,-1,6
 185 531 185 531 141 531 c 128,-1,7
 97 531 97 531 65.5 562.5 c 128,-1,0
 34 594 34 594 34 638 c 128,-1,1
100 637 m 128,-1,9
 100 620 100 620 111.5 608.5 c 128,-1,10
 123 597 123 597 140 597 c 128,-1,11
 157 597 157 597 169 608.5 c 128,-1,12
 181 620 181 620 181 637 c 128,-1,13
 181 654 181 654 169 666 c 128,-1,14
 157 678 157 678 140 678 c 128,-1,15
 123 678 123 678 111.5 666 c 128,-1,8
 100 654 100 654 100 637 c 128,-1,9
EndSplineSet
EndChar

StartChar: ogonek
Encoding: 731 731 209
Width: 279
Flags: HMW
HStem: -211 71<155.5 158.5> 13 20G<223 223>
VStem: 28 98<-115.5 -78>
LayerCount: 2
Fore
SplineSet
57 -187 m 128,-1,1
 28 -163 28 -163 28 -113.5 c 128,-1,2
 28 -64 28 -64 94 -20.5 c 128,-1,3
 160 23 160 23 223 33 c 1,4,-1
 258 14 l 1,5,6
 251 10 251 10 229.5 -1.5 c 128,-1,7
 208 -13 208 -13 193.5 -22 c 128,-1,8
 179 -31 179 -31 161.5 -44 c 0,9,10
 126 -70.3714285714 126 -70.3714285714 126 -102 c 0,11,12
 126 -140 126 -140 168 -140 c 0,13,14
 193 -140 193 -140 251 -104 c 1,15,-1
 274 -154 l 1,16,17
 203 -211 203 -211 132 -211 c 0,18,0
 86 -211 86 -211 57 -187 c 128,-1,1
EndSplineSet
EndChar

StartChar: tilde
Encoding: 732 732 210
Width: 353
Flags: HMW
HStem: 565 87<225 252.5 225 277> 605 47 605 87<104.5 132>
LayerCount: 2
Fore
SplineSet
73 575 m 1,0,-1
 8 575 l 1,1,2
 8 625 8 625 36.5 658.5 c 128,-1,3
 65 692 65 692 114 692 c 0,4,5
 144 692 144 692 185.5 672 c 128,-1,6
 227 652 227 652 242.5 652 c 0,7,8
 258 652 258 652 271 660 c 128,-1,9
 284 668 284 668 285 682 c 1,10,-1
 349 682 l 1,11,12
 349 632 349 632 320.5 598.5 c 128,-1,13
 292 565 292 565 243 565 c 0,14,15
 213 565 213 565 171.5 585 c 128,-1,16
 130 605 130 605 114 605 c 0,17,18
 98 605 98 605 85.5 597 c 128,-1,19
 73 589 73 589 73 575 c 1,0,-1
EndSplineSet
EndChar

StartChar: hungarumlaut
Encoding: 733 733 211
Width: 405
Flags: HMW
HStem: 590 142<79 103 10 214 167 167 167 214 236 260>
LayerCount: 2
Fore
SplineSet
103 590 m 1,0,-1
 10 590 l 1,1,-1
 79 732 l 1,2,-1
 214 732 l 1,3,-1
 103 590 l 1,0,-1
260 590 m 1,4,-1
 167 590 l 1,5,-1
 236 732 l 1,6,-1
 371 732 l 1,7,-1
 260 590 l 1,4,-1
EndSplineSet
EndChar

StartChar: pi
Encoding: 960 960 212
Width: 648
Flags: HMW
HStem: -30 21G<111 111> -10 100<516.5 519.5> 407 90<137.5 511 159 511 287 418 287 287> 500 20G<614 614>
VStem: 164 123<299.5 371 371 373.5> 365 116<152.5 209.5 152.5 209.5>
LayerCount: 2
Fore
SplineSet
76 326 m 1,0,-1
 9 344 l 1,1,2
 16 417 16 417 62 457 c 128,-1,3
 108 497 108 497 183 497 c 2,4,-1
 511 497 l 2,5,6
 566 497 566 497 614 520 c 1,7,-1
 648 462 l 1,8,9
 627 433 627 433 596.5 422.5 c 128,-1,10
 566 412 566 412 520 407 c 1,11,12
 481 271 481 271 481 171 c 0,13,14
 481 138 481 138 494.5 114 c 128,-1,15
 508 90 508 90 539 90 c 0,16,17
 556 90 556 90 577 98 c 1,18,-1
 609 31 l 1,19,20
 568 -10 568 -10 500 -10 c 128,-1,21
 432 -10 432 -10 398.5 43 c 128,-1,22
 365 96 365 96 365 170 c 0,23,24
 365 337 365 337 418 407 c 1,25,-1
 287 407 l 1,26,-1
 287 380 l 2,27,28
 287 246.666666667 287 246.666666667 280 209.333333333 c 128,-1,29
 273 172 273 172 265 140 c 128,-1,30
 257 108 257 108 243.5 85.5 c 128,-1,31
 230 63 230 63 212 39.5 c 0,32,33
 178.014925373 -4.86940298507 178.014925373 -4.86940298507 111 -30 c 1,34,-1
 74 25 l 1,35,36
 115 52 115 52 139.5 93 c 128,-1,37
 164 134 164 134 164 181 c 2,38,-1
 164 371 l 2,39,40
 164 375 164 375 166 389 c 1,41,-1
 171 407 l 1,42,-1
 159 407 l 2,43,44
 128 407 128 407 105 383 c 128,-1,45
 82 359 82 359 76 326 c 1,0,-1
EndSplineSet
EndChar

StartChar: endash
Encoding: 8211 8211 213
Width: 592
Flags: HMW
HStem: 211 94<58 534 58 534>
LayerCount: 2
Fore
SplineSet
534 211 m 1,0,-1
 58 211 l 1,1,-1
 58 305 l 1,2,-1
 534 305 l 1,3,-1
 534 211 l 1,0,-1
EndSplineSet
EndChar

StartChar: emdash
Encoding: 8212 8212 214
Width: 942
Flags: HMW
HStem: 211 94<58 884 58 884>
LayerCount: 2
Fore
SplineSet
884 211 m 1,0,-1
 58 211 l 1,1,-1
 58 305 l 1,2,-1
 884 305 l 1,3,-1
 884 211 l 1,0,-1
EndSplineSet
EndChar

StartChar: quoteleft
Encoding: 8216 8216 215
Width: 222
Flags: HMW
HStem: 466 21G<88 133.5> 719 20G
VStem: 33 150<535 550 516.5 596.5>
LayerCount: 2
Fore
SplineSet
33 559 m 0,0,1
 33 660 33 660 142 739 c 1,2,3
 162 719 162 719 181 698 c 1,4,5
 135 652 135 652 135 625 c 0,6,7
 135 615 135 615 142 608 c 2,8,-1
 159 592 l 1,9,10
 183 568 183 568 183 537.5 c 0,11,12
 183 507 183 507 163 486.5 c 128,-1,13
 143 466 143 466 110 466 c 0,14,15
 77 466 77 466 55 493.5 c 128,-1,16
 33 521 33 521 33 559 c 0,0,1
EndSplineSet
EndChar

StartChar: quoteright
Encoding: 8217 8217 216
Width: 221
Flags: HMW
HStem: 472 21G<82 82> 725 20G<90 136>
VStem: 41 150<661 676 614 694.5> 89 102<576 676>
LayerCount: 2
Fore
SplineSet
65 620 m 1,0,1
 41 644 41 644 41 674.5 c 128,-1,2
 41 705 41 705 60.5 725 c 128,-1,3
 80 745 80 745 113.5 745 c 128,-1,4
 147 745 147 745 169 717.5 c 128,-1,5
 191 690 191 690 191 652 c 0,6,7
 191 554 191 554 82 472 c 1,8,9
 62 492 62 492 43 513 c 1,10,11
 89 559 89 559 89 586 c 0,12,13
 89 597 89 597 82 604 c 2,14,-1
 65 620 l 1,0,1
EndSplineSet
EndChar

StartChar: quotesinglbase
Encoding: 8218 8218 217
Width: 231
Flags: HMW
HStem: -134 21G<81 81> 119 20G<89.5 135>
VStem: 40 150<55 70 8.5 88.5> 88 102<-30.5 70>
LayerCount: 2
Fore
SplineSet
64 13 m 1,0,1
 40 37 40 37 40 67.5 c 128,-1,2
 40 98 40 98 60 118.5 c 128,-1,3
 80 139 80 139 113 139 c 128,-1,4
 146 139 146 139 168 111.5 c 128,-1,5
 190 84 190 84 190 46 c 0,6,7
 190 -55 190 -55 81 -134 c 1,8,9
 61 -114 61 -114 42 -93 c 1,10,11
 88 -47 88 -47 88 -20 c 0,12,13
 88 -12 88 -12 80 -4 c 2,14,-1
 64 13 l 1,0,1
EndSplineSet
EndChar

StartChar: quotedblleft
Encoding: 8220 8220 218
Width: 424
Flags: HMW
HStem: 466 21G<88 133.5 290 335.5> 719 20G
VStem: 33 102<535 635.5> 33 150<535 550 516.5 596.5> 235 102<535 635.5> 235 150<535 550 516.5 596.5>
LayerCount: 2
Fore
SplineSet
33 559 m 0,0,1
 33 660 33 660 142 739 c 1,2,3
 162 719 162 719 181 698 c 1,4,5
 135 652 135 652 135 625 c 0,6,7
 135 615 135 615 142 608 c 2,8,-1
 159 592 l 1,9,10
 183 568 183 568 183 537.5 c 0,11,12
 183 507 183 507 163 486.5 c 128,-1,13
 143 466 143 466 110 466 c 0,14,15
 77 466 77 466 55 493.5 c 128,-1,16
 33 521 33 521 33 559 c 0,0,1
235 559 m 0,17,18
 235 660 235 660 344 739 c 1,19,20
 364 719 364 719 383 698 c 1,21,22
 337 652 337 652 337 625 c 0,23,24
 337 615 337 615 344 608 c 2,25,-1
 361 592 l 1,26,27
 385 568 385 568 385 537.5 c 0,28,29
 385 507 385 507 365 486.5 c 128,-1,30
 345 466 345 466 312 466 c 0,31,32
 279 466 279 466 257 493.5 c 128,-1,33
 235 521 235 521 235 559 c 0,17,18
EndSplineSet
EndChar

StartChar: quotedblright
Encoding: 8221 8221 219
Width: 423
Flags: HMW
HStem: 472 21G<82 82 284 284> 725 20G<90.5 136 292.5 338>
VStem: 41 150<661 676 614 694.5> 89 102<576 676> 243 150<661 676 614 694.5> 291 102<576 676>
LayerCount: 2
Fore
SplineSet
65 620 m 1,0,1
 41 644 41 644 41 674 c 128,-1,2
 41 704 41 704 61 724.5 c 128,-1,3
 81 745 81 745 114 745 c 128,-1,4
 147 745 147 745 169 717.5 c 128,-1,5
 191 690 191 690 191 652 c 0,6,7
 191 554 191 554 82 472 c 1,8,9
 62 492 62 492 43 513 c 1,10,11
 89 559 89 559 89 586 c 0,12,13
 89 597 89 597 82 604 c 2,14,-1
 65 620 l 1,0,1
267 620 m 1,15,16
 243 644 243 644 243 674 c 128,-1,17
 243 704 243 704 263 724.5 c 128,-1,18
 283 745 283 745 316 745 c 128,-1,19
 349 745 349 745 371 717.5 c 128,-1,20
 393 690 393 690 393 652 c 0,21,22
 393 554 393 554 284 472 c 1,23,24
 264 492 264 492 245 513 c 1,25,26
 291 559 291 559 291 586 c 0,27,28
 291 597 291 597 284 604 c 2,29,-1
 267 620 l 1,15,16
EndSplineSet
EndChar

StartChar: quotedblbase
Encoding: 8222 8222 220
Width: 433
Flags: HMW
HStem: -134 21G<81 81 283 283> 119 20G<89.5 135 291.5 337>
VStem: 40 150<55 70 8.5 88.5> 88 102<-30.5 70> 242 150<55 70 8.5 88.5> 290 102<-30.5 70>
LayerCount: 2
Fore
SplineSet
64 13 m 1,0,1
 40 37 40 37 40 67.5 c 128,-1,2
 40 98 40 98 60 118.5 c 128,-1,3
 80 139 80 139 113 139 c 128,-1,4
 146 139 146 139 168 111.5 c 128,-1,5
 190 84 190 84 190 46 c 0,6,7
 190 -55 190 -55 81 -134 c 1,8,9
 61 -114 61 -114 42 -93 c 1,10,11
 88 -47 88 -47 88 -20 c 0,12,13
 88 -12 88 -12 80 -4 c 2,14,-1
 64 13 l 1,0,1
266 13 m 1,15,16
 242 37 242 37 242 67.5 c 128,-1,17
 242 98 242 98 262 118.5 c 128,-1,18
 282 139 282 139 315 139 c 128,-1,19
 348 139 348 139 370 111.5 c 128,-1,20
 392 84 392 84 392 46 c 0,21,22
 392 -55 392 -55 283 -134 c 1,23,24
 263 -114 263 -114 244 -93 c 1,25,26
 290 -47 290 -47 290 -20 c 0,27,28
 290 -12 290 -12 282 -4 c 2,29,-1
 266 13 l 1,15,16
EndSplineSet
EndChar

StartChar: dagger
Encoding: 8224 8224 221
Width: 481
Flags: HMW
HStem: -138 21G<218 264 218 218> 720 20G<237 237>
LayerCount: 2
Fore
SplineSet
90 430 m 1,0,-1
 24 485 l 1,1,-1
 90 539 l 1,2,-1
 206 514 l 1,3,-1
 180 658 l 1,4,-1
 237 740 l 1,5,-1
 299 658 l 1,6,-1
 272 514 l 1,7,-1
 391 539 l 1,8,-1
 455 481 l 1,9,-1
 391 430 l 1,10,-1
 272 452 l 1,11,-1
 298 309 l 1,12,-1
 264 -138 l 1,13,-1
 218 -138 l 1,14,-1
 181 309 l 1,15,-1
 206 452 l 1,16,-1
 90 430 l 1,0,-1
EndSplineSet
EndChar

StartChar: daggerdbl
Encoding: 8225 8225 222
Width: 493
Flags: HMW
HStem: -139 21G<249 249> 720 20G<243 243>
LayerCount: 2
Fore
SplineSet
96 58 m 1,0,-1
 30 117 l 1,1,-1
 96 165 l 1,2,-1
 213 145 l 1,3,-1
 187 309 l 1,4,-1
 212 452 l 1,5,-1
 96 430 l 1,6,-1
 30 485 l 1,7,-1
 96 539 l 1,8,-1
 212 514 l 1,9,-1
 186 658 l 1,10,-1
 243 740 l 1,11,-1
 305 658 l 1,12,-1
 278 514 l 1,13,-1
 397 539 l 1,14,-1
 461 481 l 1,15,-1
 397 430 l 1,16,-1
 278 452 l 1,17,-1
 305 309 l 1,18,-1
 281 145 l 1,19,-1
 394 165 l 1,20,-1
 461 112 l 1,21,-1
 394 58 l 1,22,-1
 282 83 l 1,23,-1
 305 -61 l 1,24,-1
 249 -139 l 1,25,-1
 186 -61 l 1,26,-1
 212 83 l 1,27,-1
 96 58 l 1,0,-1
EndSplineSet
EndChar

StartChar: bullet
Encoding: 8226 8226 223
Width: 422
Flags: HMW
HStem: 201 21G<168.5 255.5> 493 20G<168.5 255>
LayerCount: 2
Fore
SplineSet
100.5 246 m 128,-1,1
 55 291 55 291 55 356 c 128,-1,2
 55 421 55 421 101 467 c 128,-1,3
 147 513 147 513 212 513 c 128,-1,4
 277 513 277 513 322 468 c 128,-1,5
 367 423 367 423 367 357 c 128,-1,6
 367 291 367 291 322 246 c 128,-1,7
 277 201 277 201 211.5 201 c 128,-1,0
 146 201 146 201 100.5 246 c 128,-1,1
EndSplineSet
EndChar

StartChar: ellipsis
Encoding: 8230 8230 224
Width: 728
Flags: HMW
HStem: -12 155<94.5 137.5 94.5 138 342.5 385.5 590.5 633.5>
VStem: 39 155<43.5 86.5 43.5 87> 287 154<43.5 86.5> 534 155<43.5 86.5>
CounterMasks: 1 70
LayerCount: 2
Fore
SplineSet
61.5 10.5 m 128,-1,1
 39 33 39 33 39 65.5 c 128,-1,2
 39 98 39 98 61.5 120.5 c 128,-1,3
 84 143 84 143 116 143 c 128,-1,4
 148 143 148 143 171 120 c 128,-1,5
 194 97 194 97 194 65 c 128,-1,6
 194 33 194 33 171.5 10.5 c 128,-1,7
 149 -12 149 -12 116.5 -12 c 128,-1,0
 84 -12 84 -12 61.5 10.5 c 128,-1,1
287 65 m 128,-1,9
 287 97 287 97 309.5 120 c 128,-1,10
 332 143 332 143 364 143 c 128,-1,11
 396 143 396 143 418.5 120 c 128,-1,12
 441 97 441 97 441 65 c 128,-1,13
 441 33 441 33 418.5 10.5 c 128,-1,14
 396 -12 396 -12 364 -12 c 128,-1,15
 332 -12 332 -12 309.5 10.5 c 128,-1,8
 287 33 287 33 287 65 c 128,-1,9
534 65 m 128,-1,17
 534 97 534 97 557 120 c 128,-1,18
 580 143 580 143 612 143 c 128,-1,19
 644 143 644 143 666.5 120.5 c 128,-1,20
 689 98 689 98 689 65.5 c 128,-1,21
 689 33 689 33 666.5 10.5 c 128,-1,22
 644 -12 644 -12 611.5 -12 c 128,-1,23
 579 -12 579 -12 556.5 10.5 c 128,-1,16
 534 33 534 33 534 65 c 128,-1,17
EndSplineSet
EndChar

StartChar: perthousand
Encoding: 8240 8240 225
Width: 1201
Flags: HMW
HStem: -13 21G<195 262 195 195> -4 79<575.5 636.5 575.5 667.5 961.5 1022.5> 304 79<177.5 238.5 177.5 269> 326 79<575.5 636.5 961.5 1022.5> 645 54<348 518 348 348> 645 68
VStem: 31 109<487 531.5 487 565.5> 276 109<487 531.5> 429 109<179 224 179 257.5> 674 109<179 224> 815 109<179 224 179 257.5> 1060 109<179 224>
LayerCount: 2
Fore
SplineSet
31 509 m 128,-1,1
 31 599 31 599 75.5 656 c 128,-1,2
 120 713 120 713 208 713 c 0,3,4
 253 713 253 713 282 699 c 1,5,-1
 609 699 l 1,6,-1
 262 -13 l 1,7,-1
 195 -13 l 1,8,-1
 518 645 l 1,9,-1
 348 645 l 1,10,11
 385 590 385 590 385 504.5 c 128,-1,12
 385 419 385 419 340 361.5 c 128,-1,13
 295 304 295 304 207.5 304 c 128,-1,14
 120 304 120 304 75.5 361.5 c 128,-1,0
 31 419 31 419 31 509 c 128,-1,1
208 634 m 128,-1,16
 140 634 140 634 140 508.5 c 128,-1,17
 140 383 140 383 208 383 c 128,-1,18
 276 383 276 383 276 508.5 c 128,-1,15
 276 634 276 634 208 634 c 128,-1,16
429 201 m 128,-1,20
 429 291 429 291 473.5 348 c 128,-1,21
 518 405 518 405 606 405 c 128,-1,22
 694 405 694 405 738.5 348 c 128,-1,23
 783 291 783 291 783 201 c 128,-1,24
 783 111 783 111 738.5 53.5 c 128,-1,25
 694 -4 694 -4 606 -4 c 128,-1,26
 518 -4 518 -4 473.5 53.5 c 128,-1,19
 429 111 429 111 429 201 c 128,-1,20
606 326 m 128,-1,28
 538 326 538 326 538 200.5 c 128,-1,29
 538 75 538 75 606 75 c 128,-1,30
 674 75 674 75 674 200.5 c 128,-1,27
 674 326 674 326 606 326 c 128,-1,28
815 201 m 128,-1,32
 815 291 815 291 859.5 348 c 128,-1,33
 904 405 904 405 992 405 c 128,-1,34
 1080 405 1080 405 1124.5 348 c 128,-1,35
 1169 291 1169 291 1169 201 c 128,-1,36
 1169 111 1169 111 1124.5 53.5 c 128,-1,37
 1080 -4 1080 -4 992 -4 c 128,-1,38
 904 -4 904 -4 859.5 53.5 c 128,-1,31
 815 111 815 111 815 201 c 128,-1,32
992 326 m 128,-1,40
 924 326 924 326 924 200.5 c 128,-1,41
 924 75 924 75 992 75 c 128,-1,42
 1060 75 1060 75 1060 200.5 c 128,-1,39
 1060 326 1060 326 992 326 c 128,-1,40
EndSplineSet
EndChar

StartChar: guilsinglleft
Encoding: 8249 8249 226
Width: 300
Flags: HMW
HStem: 162 21G<189 189> 484 20G<185 185>
LayerCount: 2
Fore
SplineSet
189 162 m 1,0,-1
 33 332 l 1,1,-1
 185 504 l 1,2,-1
 262 490 l 1,3,-1
 143 332 l 1,4,-1
 265 173 l 1,5,-1
 189 162 l 1,0,-1
EndSplineSet
EndChar

StartChar: guilsinglright
Encoding: 8250 8250 227
Width: 299
Flags: HMW
HStem: 162 21G<110 110> 484 20G<114 114>
LayerCount: 2
Fore
SplineSet
110 162 m 1,0,-1
 35 173 l 1,1,-1
 157 332 l 1,2,-1
 37 490 l 1,3,-1
 114 504 l 1,4,-1
 266 332 l 1,5,-1
 110 162 l 1,0,-1
EndSplineSet
EndChar

StartChar: fraction
Encoding: 8260 8260 228
Width: 363
Flags: HMW
HStem: 0 21G<1 94 1 1> 712 20G<270 364 364 364>
LayerCount: 2
Fore
SplineSet
94 0 m 1,0,-1
 1 0 l 1,1,-1
 270 732 l 1,2,-1
 364 732 l 1,3,-1
 94 0 l 1,0,-1
EndSplineSet
EndChar

StartChar: Euro
Encoding: 8364 8364 229
Width: 535
Flags: HMW
HStem: -11 85<333.5 388 333.5 390> 182 47<38 107 38 114 27 107 246 246 246 419> 291 47<61 107 52 115 243 443> 439 84<328 381 296.5 382.5>
LayerCount: 2
Fore
SplineSet
114 182 m 1,0,-1
 27 182 l 1,1,-1
 38 229 l 1,2,-1
 107 229 l 1,3,4
 106 234 106 234 106 244 c 2,5,-1
 106 275 l 2,6,7
 106 286 106 286 107 291 c 1,8,-1
 52 291 l 1,9,-1
 61 338 l 1,10,-1
 115 338 l 1,11,12
 137 423 137 423 201 473 c 128,-1,13
 265 523 265 523 363 523 c 0,14,15
 432 523 432 523 490 500 c 1,16,-1
 469 407 l 1,17,18
 425 439 425 439 366 439 c 0,19,20
 265 439 265 439 243 338 c 1,21,-1
 454 338 l 1,22,-1
 443 291 l 1,23,-1
 236 291 l 1,24,-1
 236 246 l 2,25,26
 236 234 236 234 237 229 c 1,27,-1
 430 229 l 1,28,-1
 419 182 l 1,29,-1
 246 182 l 1,30,31
 275 74 275 74 368 74 c 0,32,33
 425 74 425 74 469 106 c 1,34,-1
 500 20 l 1,35,36
 437 -11 437 -11 362 -11 c 0,37,38
 259 -11 259 -11 196 41 c 128,-1,39
 133 93 133 93 114 182 c 1,0,-1
EndSplineSet
EndChar

StartChar: trademark
Encoding: 8482 8482 230
Width: 578
Flags: HMW
HStem: 497 236<125 185 125 125 54 269 269 321 54 373 54 409 54 460 54 519> 686 47<54 125 54 257 185 185 185 257> 712 20G<446 519 519 519>
VStem: 125 60<497 686 497 686> 269 52<497 631> 460 59<497 625 625 625>
LayerCount: 2
Fore
SplineSet
125 686 m 1,0,-1
 54 686 l 1,1,-1
 54 733 l 1,2,-1
 257 733 l 1,3,-1
 257 686 l 1,4,-1
 185 686 l 1,5,-1
 185 497 l 1,6,-1
 125 497 l 1,7,-1
 125 686 l 1,0,-1
321 497 m 1,8,-1
 269 497 l 1,9,-1
 269 733 l 1,10,-1
 343 733 l 1,11,-1
 395 596 l 1,12,-1
 446 732 l 1,13,-1
 519 732 l 1,14,-1
 519 497 l 1,15,-1
 460 497 l 1,16,-1
 460 625 l 1,17,-1
 409 497 l 1,18,-1
 373 497 l 1,19,20
 346 564 346 564 321 631 c 1,21,-1
 321 497 l 1,8,-1
EndSplineSet
EndChar

StartChar: uni2126
Encoding: 8486 8486 231
Width: 801
Flags: HMW
HStem: 0 99<40 107 40 335 40 107 694 761> 644 99<323.5 478>
VStem: 54 147<312 413.5 294 474> 600 147<312 413.5>
LayerCount: 2
Fore
SplineSet
335 0 m 1,0,-1
 40 0 l 1,1,-1
 40 99 l 1,2,-1
 107 99 l 1,3,-1
 179 93 l 1,4,5
 124 126 124 126 89 204.5 c 128,-1,6
 54 283 54 283 54 367 c 0,7,8
 54 533 54 533 146 638 c 128,-1,9
 238 743 238 743 401 743 c 128,-1,10
 564 743 564 743 655.5 638 c 128,-1,11
 747 533 747 533 747 367 c 0,12,13
 747 283 747 283 712 204.5 c 128,-1,14
 677 126 677 126 622 93 c 1,15,-1
 694 99 l 1,16,-1
 761 99 l 1,17,-1
 761 0 l 1,18,-1
 466 0 l 1,19,-1
 466 76 l 1,20,21
 514 94 514 94 545.5 139.5 c 0,22,23
 600 218.222222222 600 218.222222222 600 349 c 0,24,25
 600 457.139534884 600 457.139534884 558.5 544 c 0,26,27
 537 589 537 589 496.5 616.5 c 128,-1,28
 456 644 456 644 401 644 c 128,-1,29
 346 644 346 644 305 616.5 c 128,-1,30
 264 589 264 589 242.5 544 c 0,31,32
 201 457.139534884 201 457.139534884 201 349 c 0,33,34
 201 218.222222222 201 218.222222222 255.5 139.5 c 0,35,36
 287 94 287 94 335 76 c 1,37,-1
 335 0 l 1,0,-1
EndSplineSet
EndChar

StartChar: partialdiff
Encoding: 8706 8706 232
Width: 563
Flags: HMW
HStem: -11 99<210.5 296> 325 98<233 292 220.5 307> 636 107<207 275>
VStem: 33 133<188 208 188 291.5> 373 151
LayerCount: 2
Fore
SplineSet
49 671 m 1,0,1
 121 743 121 743 241 743 c 0,2,3
 382 743 382 743 453 633.5 c 128,-1,4
 524 524 524 524 524 334 c 0,5,6
 524 252 524 252 504 188.5 c 128,-1,7
 484 125 484 125 454 88.5 c 128,-1,8
 424 52 424 52 385.5 28.5 c 0,9,10
 320.787234043 -11 320.787234043 -11 251 -11 c 0,11,12
 177.434782609 -11 177.434782609 -11 112 32 c 0,13,14
 77 55 77 55 55 100 c 128,-1,15
 33 145 33 145 33 200 c 128,-1,16
 33 255 33 255 49.5 294 c 128,-1,17
 66 333 66 333 91 356.5 c 128,-1,18
 116 380 116 380 147 395.5 c 0,19,20
 202 423 202 423 256 423 c 0,21,22
 314.818181818 423 314.818181818 423 363.5 391.5 c 0,23,24
 372 386 372 386 373 385 c 1,25,26
 370.904880066 464.614557486 370.904880066 464.614557486 339 542.5 c 0,27,28
 322 584 322 584 289.5 610 c 128,-1,29
 257 636 257 636 213 636 c 0,30,31
 145 636 145 636 99 596 c 1,32,-1
 74 633 l 2,33,34
 70 638 70 638 64.5 647 c 128,-1,35
 59 656 59 656 57 659 c 2,36,-1
 49 671 l 1,0,1
171 226.5 m 128,-1,38
 166 208 166 208 166 195.5 c 128,-1,39
 166 183 166 183 168 171 c 128,-1,40
 170 159 170 159 177 137 c 128,-1,41
 184 115 184 115 204 101.5 c 128,-1,42
 224 88 224 88 256.5 88 c 128,-1,43
 289 88 289 88 314 115 c 128,-1,44
 339 142 339 142 350.5 180.5 c 0,45,46
 371 249.130434783 371 249.130434783 371 293 c 1,47,48
 339 325 339 325 281 325 c 0,49,50
 248 325 248 325 223 309 c 128,-1,51
 198 293 198 293 187 269 c 128,-1,37
 176 245 176 245 171 226.5 c 128,-1,38
EndSplineSet
EndChar

StartChar: uni2206
Encoding: 8710 8710 233
Width: 693
Flags: HMW
HStem: 0 99<161 499 161 660> 712 20G<292 401 401 401>
LayerCount: 2
Fore
SplineSet
660 0 m 1,0,-1
 33 0 l 1,1,-1
 33 67 l 1,2,-1
 292 732 l 1,3,-1
 401 732 l 1,4,-1
 660 67 l 1,5,-1
 660 0 l 1,0,-1
161 99 m 1,6,-1
 499 99 l 1,7,8
 393 374 393 374 369 445 c 0,9,10
 345 516 345 516 331 586 c 1,11,12
 329 580 329 580 319.5 541.5 c 128,-1,13
 310 503 310 503 305 486 c 1,14,15
 231 279 231 279 161 99 c 1,6,-1
EndSplineSet
EndChar

StartChar: product
Encoding: 8719 8719 234
Width: 855
Flags: HMW
HStem: -229 21G<134 277 134 134 576 719 576 576> 633 99<29 134 29 826 277 277 277 576 719 719 719 826>
VStem: 134 143<-229 633 -229 633> 576 143<-229 633 -229 633>
LayerCount: 2
Fore
SplineSet
134 633 m 1,0,-1
 29 633 l 1,1,-1
 29 732 l 1,2,-1
 826 732 l 1,3,-1
 826 633 l 1,4,-1
 719 633 l 1,5,-1
 719 -229 l 1,6,-1
 576 -229 l 1,7,-1
 576 633 l 1,8,-1
 277 633 l 1,9,-1
 277 -229 l 1,10,-1
 134 -229 l 1,11,-1
 134 633 l 1,0,-1
EndSplineSet
EndChar

StartChar: summation
Encoding: 8721 8721 235
Width: 713
Flags: HMW
HStem: -217 115<152 679 152 679> 633 99<33 669 196 196 196 669>
LayerCount: 2
Fore
SplineSet
33 -217 m 1,0,-1
 33 -109 l 1,1,-1
 319 277 l 1,2,-1
 33 633 l 1,3,-1
 33 732 l 1,4,-1
 669 732 l 1,5,-1
 669 633 l 1,6,-1
 196 633 l 1,7,8
 244 585 244 585 248 580 c 2,9,-1
 467 310 l 1,10,-1
 201 -51 l 2,11,12
 194 -60 194 -60 152 -102 c 1,13,-1
 679 -102 l 1,14,-1
 679 -217 l 1,15,-1
 33 -217 l 1,0,-1
EndSplineSet
EndChar

StartChar: minus
Encoding: 8722 8722 236
Width: 624
Flags: HMW
HStem: 205 88<64 560 64 560>
LayerCount: 2
Fore
SplineSet
560 205 m 1,0,-1
 64 205 l 1,1,-1
 64 293 l 1,2,-1
 560 293 l 1,3,-1
 560 205 l 1,0,-1
EndSplineSet
EndChar

StartChar: radical
Encoding: 8730 8730 237
Width: 730
Flags: HMW
HStem: -230 21G<263 379 263 263> 948 20G<641 739 739 739>
LayerCount: 2
Fore
SplineSet
21 176 m 1,0,-1
 -6 257 l 1,1,-1
 194 324 l 1,2,-1
 328 -78 l 1,3,-1
 641 968 l 1,4,-1
 739 968 l 1,5,-1
 379 -230 l 1,6,-1
 263 -230 l 1,7,-1
 115 206 l 1,8,-1
 21 176 l 1,0,-1
EndSplineSet
EndChar

StartChar: infinity
Encoding: 8734 8734 238
Width: 762
Flags: HMW
HStem: 74 110<188.5 232.5 188.5 246.5 529.5 573.5> 314 110<188.5 232.5 529.5 573.5>
VStem: 45 99<229 269 229 299.5> 618 99<229 269>
LayerCount: 2
Fore
SplineSet
45 249 m 128,-1,1
 45 326 45 326 89.5 375 c 128,-1,2
 134 424 134 424 210 424 c 0,3,4
 244 424 244 424 278 405.5 c 128,-1,5
 312 387 312 387 331.5 368.5 c 128,-1,6
 351 350 351 350 381 317 c 1,7,8
 471 424 471 424 549.5 424 c 0,9,10
 628 424 628 424 672.5 375 c 128,-1,11
 717 326 717 326 717 249 c 128,-1,12
 717 172 717 172 672.5 123 c 128,-1,13
 628 74 628 74 549.5 74 c 0,14,15
 471 74 471 74 381 181 c 1,16,17
 351 148 351 148 331.5 129.5 c 128,-1,18
 312 111 312 111 278 92.5 c 128,-1,19
 244 74 244 74 210 74 c 0,20,21
 134 74 134 74 89.5 123 c 128,-1,0
 45 172 45 172 45 249 c 128,-1,1
144 249 m 128,-1,23
 144 219 144 219 161 201.5 c 128,-1,24
 178 184 178 184 209 184 c 0,25,26
 260 184 260 184 321 249 c 1,27,28
 260 314 260 314 209 314 c 0,29,30
 178 314 178 314 161 296.5 c 128,-1,22
 144 279 144 279 144 249 c 128,-1,23
441 249 m 1,31,32
 502 184 502 184 553 184 c 0,33,34
 584 184 584 184 601 201.5 c 128,-1,35
 618 219 618 219 618 249 c 128,-1,36
 618 279 618 279 601 296.5 c 128,-1,37
 584 314 584 314 553 314 c 0,38,39
 502 314 502 314 441 249 c 1,31,32
EndSplineSet
EndChar

StartChar: integral
Encoding: 8747 8747 239
Width: 331
Flags: HMW
HStem: -227 80<11 45 11 90.5> 662 80<282 316>
VStem: 11 222<-227 -10 -147 -10> 111 205<-34 742 525 742>
LayerCount: 2
Fore
SplineSet
11 -227 m 1,0,-1
 11 -147 l 1,1,2
 59 -147 59 -147 85 -114.5 c 128,-1,3
 111 -82 111 -82 111 -34 c 2,4,-1
 111 525 l 2,5,6
 111 637 111 637 156 689.5 c 128,-1,7
 201 742 201 742 316 742 c 1,8,-1
 316 662 l 1,9,10
 233 662 233 662 233 549 c 2,11,-1
 233 -10 l 2,12,13
 233 -122 233 -122 181 -174.5 c 128,-1,14
 129 -227 129 -227 11 -227 c 1,0,-1
EndSplineSet
EndChar

StartChar: approxequal
Encoding: 8776 8776 240
Width: 597
Flags: HMW
HStem: 79 88<375.5 420.5 375.5 442> 149 88<178.5 223.5> 270 88<375.5 420.5 375.5 442> 340 88<178.5 223.5>
LayerCount: 2
Fore
SplineSet
115 90 m 1,0,-1
 45 135 l 1,1,2
 67 177 67 177 105.5 207 c 128,-1,3
 144 237 144 237 190 237 c 0,4,5
 236 237 236 237 308 202 c 128,-1,6
 380 167 380 167 403 167 c 0,7,8
 445 167 445 167 484 226 c 1,9,-1
 554 181 l 1,10,11
 533 139 533 139 494 109 c 128,-1,12
 455 79 455 79 409 79 c 0,13,14
 363 79 363 79 291 114 c 128,-1,15
 219 149 219 149 196 149 c 0,16,17
 154 149 154 149 115 90 c 1,0,-1
115 281 m 1,18,-1
 45 326 l 1,19,20
 67 368 67 368 105.5 398 c 128,-1,21
 144 428 144 428 190 428 c 0,22,23
 236 428 236 428 308 393 c 128,-1,24
 380 358 380 358 403 358 c 0,25,26
 445 358 445 358 484 417 c 1,27,-1
 554 372 l 1,28,29
 533 330 533 330 494 300 c 128,-1,30
 455 270 455 270 409 270 c 0,31,32
 363 270 363 270 291 305 c 128,-1,33
 219 340 219 340 196 340 c 0,34,35
 154 340 154 340 115 281 c 1,18,-1
EndSplineSet
EndChar

